<svg width="36" height="36" viewBox="0 0 36 36" fill="none" xmlns="http://www.w3.org/2000/svg">
<path d="M13.5 10.5C9 10.5 7.5 15 7.5 18.75C7.5 23.25 10.5 30 13.5 30C15.132 29.931 16.0185 29.25 18 29.25C19.968 29.25 20.25 30 22.5 30C24.75 30 28.5 25.5 28.5 22.5C28.458 22.485 24.792 21.8955 24.75 18C24.7215 14.745 28.374 13.569 28.5 13.5C26.9655 11.262 24.0735 10.5555 23.25 10.5C21.1005 10.3335 19.005 12 18 12C16.98 12 15.15 10.5 13.5 10.5Z" stroke="white" stroke-width="1.25" stroke-linecap="round" stroke-linejoin="round"/>
<path d="M18 8.18181C19.302 8.18181 20.5506 7.6646 21.4712 6.74397C22.3919 5.82334 22.9091 4.57469 22.9091 3.27272C21.6071 3.27272 20.3585 3.78993 19.4378 4.71056C18.5172 5.63119 18 6.87984 18 8.18181" stroke="white" stroke-width="1.25" stroke-linecap="round" stroke-linejoin="round"/>
</svg>
