<svg width="219" height="52" viewBox="0 0 219 52" fill="none" xmlns="http://www.w3.org/2000/svg">
<path d="M27.22 28.4L26.9359 27.4412L27.0116 29.378L27.22 28.4ZM33.1 32.06L32.308 32.6705L32.3143 32.6786L33.1 32.06ZM31.6 46.94L32.2414 47.7072L32.2426 47.7062L31.6 46.94ZM1.72 50H0.72V51H1.72V50ZM1.72 7.88V6.88H0.72V7.88H1.72ZM30.7 10.82L30.0674 11.5946L30.0737 11.5996L30.7 10.82ZM32.38 24.98L31.601 24.353L31.5963 24.3588L31.5917 24.3647L32.38 24.98ZM11.98 24.92H10.98V25.92H11.98V24.92ZM22.54 23.84L23.1732 24.614L23.1769 24.611L22.54 23.84ZM22.54 17.24L21.8864 17.9968L21.8947 18.004L21.9031 18.011L22.54 17.24ZM11.98 16.1V15.1H10.98V16.1H11.98ZM23.5 40.58L24.1369 41.351L24.1402 41.3482L23.5 40.58ZM23.44 33.68L22.7815 34.4326L22.7891 34.4392L22.7968 34.4457L23.44 33.68ZM11.98 32.42V31.42H10.98V32.42H11.98ZM11.98 41.72H10.98V42.72H11.98V41.72ZM27.0116 29.378C29.227 29.8502 30.9773 30.9442 32.308 32.6705L33.892 31.4495C32.2627 29.3358 30.093 27.9898 27.4284 27.422L27.0116 29.378ZM32.3143 32.6786C33.6525 34.3785 34.32 36.3196 34.32 38.54H36.32C36.32 35.8804 35.5075 33.5015 33.8857 31.4414L32.3143 32.6786ZM34.32 38.54C34.32 41.7937 33.1893 44.3019 30.9574 46.1738L32.2426 47.7062C34.9707 45.4181 36.32 42.3263 36.32 38.54H34.32ZM30.9586 46.1728C28.7568 48.0136 25.5948 49 21.34 49V51C25.8852 51 29.5632 49.9464 32.2414 47.7072L30.9586 46.1728ZM21.34 49H1.72V51H21.34V49ZM2.72 50V7.88H0.72V50H2.72ZM1.72 8.88H20.68V6.88H1.72V8.88ZM20.68 8.88C24.8166 8.88 27.9035 9.82728 30.0675 11.5945L31.3325 10.0455C28.6965 7.89271 25.1034 6.88 20.68 6.88V8.88ZM30.0737 11.5996C32.2582 13.3543 33.36 15.7175 33.36 18.8H35.36C35.36 15.1625 34.0218 12.2057 31.3263 10.0404L30.0737 11.5996ZM33.36 18.8C33.36 21.0943 32.7535 22.9211 31.601 24.353L33.159 25.607C34.6465 23.7589 35.36 21.4657 35.36 18.8H33.36ZM31.5917 24.3647C30.4506 25.8267 28.9136 26.8552 26.9359 27.4412L27.5041 29.3588C29.8464 28.6648 31.7494 27.4133 33.1683 25.5953L31.5917 24.3647ZM11.98 25.92H18.7V23.92H11.98V25.92ZM18.7 25.92C20.5043 25.92 22.0466 25.5357 23.1732 24.614L21.9068 23.066C21.2734 23.5842 20.2557 23.92 18.7 23.92V25.92ZM23.1769 24.611C24.3746 23.6216 24.92 22.2103 24.92 20.54H22.92C22.92 21.7497 22.5454 22.5384 21.9031 23.069L23.1769 24.611ZM24.92 20.54C24.92 18.8697 24.3746 17.4584 23.1769 16.469L21.9031 18.011C22.5454 18.5416 22.92 19.3303 22.92 20.54H24.92ZM23.1936 16.4832C22.0659 15.5092 20.5152 15.1 18.7 15.1V17.1C20.2448 17.1 21.2541 17.4508 21.8864 17.9968L23.1936 16.4832ZM18.7 15.1H11.98V17.1H18.7V15.1ZM10.98 16.1V24.92H12.98V16.1H10.98ZM19.54 42.72C21.3922 42.72 22.9732 42.3123 24.1369 41.351L22.8631 39.809C22.1868 40.3677 21.1278 40.72 19.54 40.72V42.72ZM24.1402 41.3482C25.371 40.3226 25.94 38.8762 25.94 37.16H23.94C23.94 38.4038 23.549 39.2374 22.8598 39.8118L24.1402 41.3482ZM25.94 37.16C25.94 35.4287 25.3411 33.971 24.0832 32.9143L22.7968 34.4457C23.5389 35.069 23.94 35.9313 23.94 37.16H25.94ZM24.0985 32.9274C22.901 31.8796 21.2971 31.42 19.42 31.42V33.42C20.9829 33.42 22.059 33.8004 22.7815 34.4326L24.0985 32.9274ZM19.42 31.42H11.98V33.42H19.42V31.42ZM10.98 32.42V41.72H12.98V32.42H10.98ZM11.98 42.72H19.54V40.72H11.98V42.72ZM75.6508 35.72V36.72H76.542L76.6442 35.8346L75.6508 35.72ZM52.4308 35.72V34.72H51.3509L51.4337 35.7967L52.4308 35.72ZM54.4108 40.52L53.7162 41.2394L53.7288 41.2516L53.7418 41.2633L54.4108 40.52ZM64.1308 38.9V37.9H63.4918L63.2233 38.4799L64.1308 38.9ZM75.0508 38.9L76.0199 39.1467L76.3372 37.9H75.0508V38.9ZM71.9908 44.84L71.2253 44.1963L71.2168 44.2068L71.9908 44.84ZM66.5308 48.98L66.9446 49.8904L66.5308 48.98ZM50.3908 48.38L49.911 49.2574L50.3908 48.38ZM44.3908 42.38L45.2656 41.8955L44.3908 42.38ZM44.3308 24.14L43.4559 23.6555L43.4503 23.6659L44.3308 24.14ZM50.3308 18.14L50.8106 19.0174V19.0174L50.3308 18.14ZM67.7908 18.08L67.3158 18.96V18.96L67.7908 18.08ZM73.6708 23.9L72.7966 24.3857L72.8025 24.3961L73.6708 23.9ZM65.3308 30.02V31.02H66.3308V30.02H65.3308ZM63.5308 25.82L64.1857 25.0643L63.5308 25.82ZM54.6508 25.76L54.0106 24.9918L54.0042 24.9971L53.9978 25.0026L54.6508 25.76ZM52.4908 30.02L51.5022 29.8696L51.3271 31.02H52.4908V30.02ZM74.8308 32.72C74.8308 33.6384 74.7734 34.6001 74.6574 35.6054L76.6442 35.8346C76.7682 34.7599 76.8308 33.7216 76.8308 32.72H74.8308ZM75.6508 34.72H52.4308V36.72H75.6508V34.72ZM51.4337 35.7967C51.6068 38.0472 52.3334 39.9043 53.7162 41.2394L55.1054 39.8006C54.1681 38.8957 53.5747 37.5528 53.4278 35.6433L51.4337 35.7967ZM53.7418 41.2633C55.1381 42.52 56.8414 43.14 58.7908 43.14V41.14C57.3002 41.14 56.0834 40.68 55.0797 39.7767L53.7418 41.2633ZM58.7908 43.14C60.2118 43.14 61.4858 42.8394 62.5645 42.1849C63.6479 41.5276 64.4671 40.5538 65.0382 39.3201L63.2233 38.4799C62.7945 39.4062 62.2237 40.0524 61.5271 40.4751C60.8258 40.9006 59.9298 41.14 58.7908 41.14V43.14ZM64.1308 39.9H75.0508V37.9H64.1308V39.9ZM74.0817 38.6533C73.5593 40.7054 72.6098 42.5501 71.2254 44.1964L72.7561 45.4836C74.3318 43.6099 75.4222 41.4946 76.0199 39.1467L74.0817 38.6533ZM71.2168 44.2068C69.8801 45.8406 68.1862 47.1291 66.117 48.0696L66.9446 49.8904C69.2753 48.8309 71.2215 47.3594 72.7647 45.4732L71.2168 44.2068ZM66.117 48.0696C64.0624 49.0036 61.746 49.48 59.1508 49.48V51.48C61.9956 51.48 64.5992 50.9564 66.9446 49.8904L66.117 48.0696ZM59.1508 49.48C56.0173 49.48 53.266 48.8126 50.8706 47.5026L49.911 49.2574C52.6356 50.7474 55.7242 51.48 59.1508 51.48V49.48ZM50.8706 47.5026C48.4801 46.1953 46.6156 44.333 45.2656 41.8955L43.516 42.8645C45.046 45.627 47.1815 47.7647 49.911 49.2574L50.8706 47.5026ZM45.2656 41.8955C43.9207 39.4673 43.2308 36.5996 43.2308 33.26H41.2308C41.2308 36.8804 41.9808 40.0927 43.516 42.8645L45.2656 41.8955ZM43.2308 33.26C43.2308 29.9159 43.9026 27.0444 45.2113 24.6141L43.4503 23.6659C41.9589 26.4356 41.2308 29.6441 41.2308 33.26H43.2308ZM45.2056 24.6245C46.5556 22.187 48.4201 20.3247 50.8106 19.0174L49.851 17.2626C47.1215 18.7553 44.986 20.893 43.456 23.6555L45.2056 24.6245ZM50.8106 19.0174C53.2042 17.7084 55.9751 17.04 59.1508 17.04V15.04C55.6865 15.04 52.5773 15.7716 49.851 17.2626L50.8106 19.0174ZM59.1508 17.04C62.2471 17.04 64.96 17.6886 67.3158 18.96L68.2657 17.2C65.5815 15.7514 62.5345 15.04 59.1508 15.04V17.04ZM67.3158 18.96C69.6667 20.2287 71.4887 22.0313 72.7966 24.3856L74.5449 23.4144C73.0529 20.7287 70.9549 18.6513 68.2657 17.2L67.3158 18.96ZM72.8025 24.3961C74.1434 26.7427 74.8308 29.5063 74.8308 32.72H76.8308C76.8308 29.2137 76.0782 26.0973 74.539 23.4039L72.8025 24.3961ZM66.3308 30.02C66.3308 28.0053 65.6302 26.3162 64.1857 25.0643L62.8759 26.5757C63.8314 27.4038 64.3308 28.5147 64.3308 30.02H66.3308ZM64.1857 25.0643C62.7796 23.8457 61.0371 23.26 59.0308 23.26V25.26C60.6244 25.26 61.882 25.7143 62.8759 26.5757L64.1857 25.0643ZM59.0308 23.26C57.1021 23.26 55.4088 23.8266 54.0106 24.9918L55.291 26.5282C56.2927 25.6934 57.5194 25.26 59.0308 25.26V23.26ZM53.9978 25.0026C52.6203 26.1901 51.81 27.8466 51.5022 29.8696L53.4794 30.1704C53.7316 28.5134 54.3612 27.3299 55.3037 26.5174L53.9978 25.0026ZM52.4908 31.02H65.3308V29.02H52.4908V31.02ZM94.5034 5.6H95.5034V4.6H94.5034V5.6ZM94.5034 50V51H95.5034V50H94.5034ZM84.2434 50H83.2434V51H84.2434V50ZM84.2434 5.6V4.6H83.2434V5.6H84.2434ZM93.5034 5.6V50H95.5034V5.6H93.5034ZM94.5034 49H84.2434V51H94.5034V49ZM85.2434 50V5.6H83.2434V50H85.2434ZM84.2434 6.6H94.5034V4.6H84.2434V6.6ZM105.659 11.48L104.965 12.1998L104.978 12.2124L104.991 12.2246L105.659 11.48ZM105.659 3.56L106.339 4.29279L106.34 4.29189L105.659 3.56ZM114.419 3.56L113.725 4.27984L113.738 4.29245L113.751 4.30457L114.419 3.56ZM114.419 11.48L115.099 12.2128L115.1 12.2119L114.419 11.48ZM115.199 16.52H116.199V15.52H115.199V16.52ZM115.199 50V51H116.199V50H115.199ZM104.939 50H103.939V51H104.939V50ZM104.939 16.52V15.52H103.939V16.52H104.939ZM110.099 12.04C108.504 12.04 107.275 11.5856 106.326 10.7354L104.991 12.2246C106.363 13.4544 108.093 14.04 110.099 14.04V12.04ZM106.353 10.7602C105.429 9.86919 104.979 8.80929 104.979 7.52H102.979C102.979 9.35071 103.649 10.9308 104.965 12.1998L106.353 10.7602ZM104.979 7.52C104.979 6.18338 105.433 5.13381 106.339 4.29279L104.978 2.8272C103.644 4.06618 102.979 5.65661 102.979 7.52H104.979ZM106.34 4.29189C107.29 3.40782 108.515 2.94 110.099 2.94V0.939997C108.083 0.939997 106.348 1.55217 104.977 2.8281L106.34 4.29189ZM110.099 2.94C111.637 2.94 112.816 3.40359 113.725 4.27984L115.113 2.84015C113.782 1.5564 112.081 0.939997 110.099 0.939997V2.94ZM113.751 4.30457C114.693 5.14913 115.159 6.19541 115.159 7.52H117.159C117.159 5.64459 116.464 4.05087 115.086 2.81543L113.751 4.30457ZM115.159 7.52C115.159 8.79739 114.698 9.85384 113.737 10.7481L115.1 12.2119C116.46 10.9462 117.159 9.36261 117.159 7.52H115.159ZM113.738 10.7472C112.831 11.5895 111.647 12.04 110.099 12.04V14.04C112.07 14.04 113.766 13.4505 115.099 12.2128L113.738 10.7472ZM114.199 16.52V50H116.199V16.52H114.199ZM115.199 49H104.939V51H115.199V49ZM105.939 50V16.52H103.939V50H105.939ZM104.939 17.52H115.199V15.52H104.939V17.52ZM157.014 35.72V36.72H157.905L158.007 35.8346L157.014 35.72ZM133.794 35.72V34.72H132.714L132.797 35.7967L133.794 35.72ZM135.774 40.52L135.079 41.2394L135.092 41.2516L135.105 41.2633L135.774 40.52ZM145.494 38.9V37.9H144.855L144.587 38.4799L145.494 38.9ZM156.414 38.9L157.383 39.1467L157.701 37.9H156.414V38.9ZM153.354 44.84L152.589 44.1963L152.58 44.2068L153.354 44.84ZM147.894 48.98L148.308 49.8904L147.894 48.98ZM131.754 48.38L131.274 49.2574L131.754 48.38ZM125.754 42.38L126.629 41.8955L125.754 42.38ZM125.694 24.14L124.819 23.6555L124.814 23.6659L125.694 24.14ZM131.694 18.14L132.174 19.0174V19.0174L131.694 18.14ZM149.154 18.08L148.679 18.96V18.96L149.154 18.08ZM155.034 23.9L154.16 24.3857L154.166 24.3961L155.034 23.9ZM146.694 30.02V31.02H147.694V30.02H146.694ZM144.894 25.82L145.549 25.0643L144.894 25.82ZM136.014 25.76L135.374 24.9918L135.367 24.9971L135.361 25.0026L136.014 25.76ZM133.854 30.02L132.865 29.8696L132.69 31.02H133.854V30.02ZM156.194 32.72C156.194 33.6384 156.137 34.6001 156.021 35.6054L158.007 35.8346C158.131 34.7599 158.194 33.7216 158.194 32.72H156.194ZM157.014 34.72H133.794V36.72H157.014V34.72ZM132.797 35.7967C132.97 38.0472 133.697 39.9043 135.079 41.2394L136.469 39.8006C135.531 38.8957 134.938 37.5528 134.791 35.6433L132.797 35.7967ZM135.105 41.2633C136.501 42.52 138.205 43.14 140.154 43.14V41.14C138.663 41.14 137.447 40.68 136.443 39.7767L135.105 41.2633ZM140.154 43.14C141.575 43.14 142.849 42.8394 143.928 42.1849C145.011 41.5276 145.83 40.5538 146.402 39.3201L144.587 38.4799C144.158 39.4062 143.587 40.0524 142.89 40.4751C142.189 40.9006 141.293 41.14 140.154 41.14V43.14ZM145.494 39.9H156.414V37.9H145.494V39.9ZM155.445 38.6533C154.923 40.7054 153.973 42.5501 152.589 44.1964L154.119 45.4836C155.695 43.6099 156.786 41.4946 157.383 39.1467L155.445 38.6533ZM152.58 44.2068C151.243 45.8406 149.55 47.1291 147.48 48.0696L148.308 49.8904C150.639 48.8309 152.585 47.3594 154.128 45.4732L152.58 44.2068ZM147.48 48.0696C145.426 49.0036 143.109 49.48 140.514 49.48V51.48C143.359 51.48 145.962 50.9564 148.308 49.8904L147.48 48.0696ZM140.514 49.48C137.381 49.48 134.629 48.8126 132.234 47.5026L131.274 49.2574C133.999 50.7474 137.088 51.48 140.514 51.48V49.48ZM132.234 47.5026C129.843 46.1953 127.979 44.333 126.629 41.8955L124.879 42.8645C126.409 45.627 128.545 47.7647 131.274 49.2574L132.234 47.5026ZM126.629 41.8955C125.284 39.4673 124.594 36.5996 124.594 33.26H122.594C122.594 36.8804 123.344 40.0927 124.879 42.8645L126.629 41.8955ZM124.594 33.26C124.594 29.9159 125.266 27.0444 126.575 24.6141L124.814 23.6659C123.322 26.4356 122.594 29.6441 122.594 33.26H124.594ZM126.569 24.6245C127.919 22.187 129.783 20.3247 132.174 19.0174L131.214 17.2626C128.485 18.7553 126.349 20.893 124.819 23.6555L126.569 24.6245ZM132.174 19.0174C134.567 17.7084 137.338 17.04 140.514 17.04V15.04C137.05 15.04 133.941 15.7716 131.214 17.2626L132.174 19.0174ZM140.514 17.04C143.61 17.04 146.323 17.6886 148.679 18.96L149.629 17.2C146.945 15.7514 143.898 15.04 140.514 15.04V17.04ZM148.679 18.96C151.03 20.2287 152.852 22.0313 154.16 24.3856L155.908 23.4144C154.416 20.7287 152.318 18.6513 149.629 17.2L148.679 18.96ZM154.166 24.3961C155.507 26.7427 156.194 29.5063 156.194 32.72H158.194C158.194 29.2137 157.441 26.0973 155.902 23.4039L154.166 24.3961ZM147.694 30.02C147.694 28.0053 146.993 26.3162 145.549 25.0643L144.239 26.5757C145.195 27.4038 145.694 28.5147 145.694 30.02H147.694ZM145.549 25.0643C144.143 23.8457 142.4 23.26 140.394 23.26V25.26C141.988 25.26 143.245 25.7143 144.239 26.5757L145.549 25.0643ZM140.394 23.26C138.465 23.26 136.772 23.8266 135.374 24.9918L136.654 26.5282C137.656 25.6934 138.883 25.26 140.394 25.26V23.26ZM135.361 25.0026C133.984 26.1901 133.173 27.8466 132.865 29.8696L134.843 30.1704C135.095 28.5134 135.725 27.3299 136.667 26.5174L135.361 25.0026ZM133.854 31.02H146.694V29.02H133.854V31.02ZM182.407 25.04V26.04H183.407V25.04H182.407ZM176.887 25.04V24.04H175.887V25.04H176.887ZM176.887 50V51H177.887V50H176.887ZM166.627 50H165.627V51H166.627V50ZM166.627 25.04H167.627V24.04H166.627V25.04ZM162.907 25.04H161.907V26.04H162.907V25.04ZM162.907 16.52V15.52H161.907V16.52H162.907ZM166.627 16.52V17.52H167.627V16.52H166.627ZM170.167 6.2L170.835 6.94395L170.842 6.93767L170.167 6.2ZM182.227 3.02H183.227V2.12495L182.337 2.02611L182.227 3.02ZM182.227 11.72L182.166 12.7181L183.227 12.7831V11.72H182.227ZM178.087 12.56L178.734 13.3219L178.734 13.3219L178.087 12.56ZM176.887 16.52H175.887V17.52H176.887V16.52ZM182.407 16.52H183.407V15.52H182.407V16.52ZM182.407 24.04H176.887V26.04H182.407V24.04ZM175.887 25.04V50H177.887V25.04H175.887ZM176.887 49H166.627V51H176.887V49ZM167.627 50V25.04H165.627V50H167.627ZM166.627 24.04H162.907V26.04H166.627V24.04ZM163.907 25.04V16.52H161.907V25.04H163.907ZM162.907 17.52H166.627V15.52H162.907V17.52ZM167.627 16.52V15.56H165.627V16.52H167.627ZM167.627 15.56C167.627 11.6339 168.745 8.82148 170.835 6.94392L169.498 5.45608C166.869 7.81851 165.627 11.2461 165.627 15.56H167.627ZM170.842 6.93767C172.952 5.00632 176.131 3.96 180.547 3.96V1.96C175.843 1.96 172.101 3.07368 169.492 5.46233L170.842 6.93767ZM180.547 3.96C181.301 3.96 181.814 3.98034 182.116 4.01388L182.337 2.02611C181.919 1.97966 181.313 1.96 180.547 1.96V3.96ZM181.227 3.02V11.72H183.227V3.02H181.227ZM182.288 10.7219C180.27 10.5983 178.549 10.8549 177.439 11.7981L178.734 13.3219C179.225 12.9051 180.263 12.6017 182.166 12.7181L182.288 10.7219ZM177.439 11.7981C176.302 12.7646 175.887 14.3586 175.887 16.22H177.887C177.887 14.5614 178.271 13.7154 178.734 13.3219L177.439 11.7981ZM175.887 16.22V16.52H177.887V16.22H175.887ZM176.887 17.52H182.407V15.52H176.887V17.52ZM181.407 16.52V25.04H183.407V16.52H181.407ZM196.048 48.98L196.449 48.0642L196.048 48.98ZM190.648 44.9L189.848 45.5L189.855 45.5088L190.648 44.9ZM188.428 39.02V38.02H187.351L187.431 39.0939L188.428 39.02ZM198.568 39.02L199.562 38.9171L199.47 38.02H198.568V39.02ZM200.188 41.84L200.788 41.04L200.188 41.84ZM206.668 42.2L207.245 43.017L207.253 43.0107L206.668 42.2ZM206.248 38.12L205.815 39.0215L205.83 39.0287L205.845 39.0353L206.248 38.12ZM201.388 36.56L201.63 35.5899L201.623 35.5879L201.615 35.5862L201.388 36.56ZM195.388 34.82L195.016 35.7485L195.027 35.7525L195.037 35.7563L195.388 34.82ZM191.248 31.88L190.487 32.5289L190.492 32.5346L190.497 32.5401L191.248 31.88ZM191.068 21.2L190.239 20.6405L190.236 20.6453L191.068 21.2ZM195.748 17.42L195.343 16.5054L195.337 16.5084L195.748 17.42ZM213.028 19.16L212.373 19.9157L212.379 19.921L213.028 19.16ZM217.228 27.44V28.44H218.338L218.222 27.3359L217.228 27.44ZM207.748 27.44L206.757 27.5766L206.876 28.44H207.748V27.44ZM206.188 24.68L205.559 25.4572L205.567 25.4644L205.576 25.4713L206.188 24.68ZM200.068 24.38L200.634 25.204L200.651 25.1924L200.668 25.18L200.068 24.38ZM200.608 28.4L200.175 29.3015L200.182 29.3048L200.189 29.308L200.608 28.4ZM205.408 29.84L205.658 28.8717L205.641 28.8675L205.625 28.8638L205.408 29.84ZM211.468 31.76L211.088 32.6852L211.098 32.6894L211.109 32.6933L211.468 31.76ZM215.548 34.76L214.778 35.398L214.788 35.41L214.798 35.4216L215.548 34.76ZM217.408 40.28H218.408V40.2714L218.408 40.2628L217.408 40.28ZM215.728 45.56L214.915 44.9768L214.913 44.9808L215.728 45.56ZM210.988 49.16L210.598 48.239L210.592 48.2418L210.988 49.16ZM203.848 49.48C201.042 49.48 198.583 48.9999 196.449 48.0642L195.646 49.8958C198.073 50.9601 200.813 51.48 203.848 51.48V49.48ZM196.449 48.0642C194.301 47.1218 192.644 45.8588 191.441 44.2912L189.855 45.5088C191.291 47.3812 193.235 48.8382 195.646 49.8958L196.449 48.0642ZM191.448 44.3C190.241 42.6904 189.571 40.9123 189.425 38.9461L187.431 39.0939C187.605 41.4477 188.415 43.5896 189.848 45.5L191.448 44.3ZM188.428 40.02H198.568V38.02H188.428V40.02ZM197.573 39.1229C197.723 40.5691 198.412 41.7583 199.588 42.64L200.788 41.04C200.043 40.4817 199.653 39.7909 199.562 38.9171L197.573 39.1229ZM199.588 42.64C200.749 43.5106 202.149 43.92 203.728 43.92V41.92C202.507 41.92 201.547 41.6094 200.788 41.04L199.588 42.64ZM203.728 43.92C205.111 43.92 206.327 43.6645 207.244 43.017L206.091 41.383C205.648 41.6955 204.905 41.92 203.728 41.92V43.92ZM207.253 43.0107C208.2 42.3267 208.748 41.38 208.748 40.22H206.748C206.748 40.66 206.575 41.0333 206.082 41.3893L207.253 43.0107ZM208.748 40.22C208.748 39.5568 208.572 38.9328 208.187 38.3938C207.807 37.8629 207.271 37.4778 206.651 37.2047L205.845 39.0353C206.224 39.2022 206.438 39.3871 206.559 39.5562C206.674 39.7172 206.748 39.9232 206.748 40.22H208.748ZM206.681 37.2185C205.584 36.6922 203.881 36.1526 201.63 35.5899L201.145 37.5301C203.374 38.0874 204.912 38.5878 205.815 39.0215L206.681 37.2185ZM201.615 35.5862C199.24 35.0321 197.285 34.4635 195.739 33.8837L195.037 35.7563C196.69 36.3765 198.735 36.9679 201.161 37.5338L201.615 35.5862ZM195.759 33.8915C194.308 33.3111 193.057 32.4242 191.999 31.2199L190.497 32.5401C191.758 33.9757 193.268 35.0489 195.016 35.7485L195.759 33.8915ZM192.009 31.2311C191.042 30.0973 190.508 28.5293 190.508 26.42H188.508C188.508 28.8707 189.134 30.9427 190.487 32.5289L192.009 31.2311ZM190.508 26.42C190.508 24.6924 190.972 23.1463 191.9 21.7547L190.236 20.6453C189.083 22.3737 188.508 24.3076 188.508 26.42H190.508ZM191.897 21.7595C192.857 20.3365 194.261 19.1876 196.159 18.3316L195.337 16.5084C193.155 17.4924 191.438 18.8635 190.239 20.6405L191.897 21.7595ZM196.152 18.3345C198.077 17.4831 200.394 17.04 203.128 17.04V15.04C200.182 15.04 197.578 15.5169 195.343 16.5055L196.152 18.3345ZM203.128 17.04C207.166 17.04 210.206 18.0381 212.373 19.9157L213.683 18.4043C211.049 16.1219 207.49 15.04 203.128 15.04V17.04ZM212.379 19.921C214.608 21.8207 215.898 24.3373 216.233 27.5441L218.222 27.3359C217.838 23.6627 216.328 20.6593 213.677 18.399L212.379 19.921ZM217.228 26.44H207.748V28.44H217.228V26.44ZM208.738 27.3034C208.545 25.8991 207.898 24.738 206.799 23.8887L205.576 25.4713C206.237 25.982 206.631 26.6609 206.757 27.5766L208.738 27.3034ZM206.817 23.9028C205.752 23.0407 204.388 22.66 202.828 22.66V24.66C204.067 24.66 204.943 24.9593 205.559 25.4572L206.817 23.9028ZM202.828 22.66C201.514 22.66 200.348 22.9197 199.468 23.58L200.668 25.18C201.067 24.8803 201.741 24.66 202.828 24.66V22.66ZM199.501 23.556C198.58 24.1891 198.108 25.1225 198.108 26.24H200.108C200.108 25.7575 200.275 25.4509 200.634 25.204L199.501 23.556ZM198.108 26.24C198.108 26.9036 198.284 27.527 198.661 28.0704C199.033 28.6055 199.56 29.0062 200.175 29.3015L201.041 27.4985C200.656 27.3138 200.433 27.1145 200.304 26.9296C200.182 26.753 200.108 26.5364 200.108 26.24H198.108ZM200.189 29.308C201.328 29.834 203.013 30.3322 205.191 30.8162L205.625 28.8638C203.483 28.3878 201.967 27.926 201.027 27.492L200.189 29.308ZM205.158 30.8083C207.614 31.4421 209.586 32.0689 211.088 32.6852L211.847 30.8348C210.23 30.1711 208.162 29.5179 205.658 28.8717L205.158 30.8083ZM211.109 32.6933C212.495 33.2265 213.717 34.1182 214.778 35.398L216.318 34.122C215.058 32.6018 213.561 31.4935 211.827 30.8267L211.109 32.6933ZM214.798 35.4216C215.801 36.5583 216.371 38.1469 216.408 40.2972L218.408 40.2628C218.365 37.7731 217.695 35.6817 216.298 34.0984L214.798 35.4216ZM216.408 40.28C216.408 42.0354 215.911 43.5905 214.915 44.9768L216.54 46.1432C217.785 44.4095 218.408 42.4446 218.408 40.28H216.408ZM214.913 44.9808C213.961 46.3205 212.544 47.416 210.598 48.239L211.377 50.081C213.592 49.144 215.335 47.8395 216.543 46.1392L214.913 44.9808ZM210.592 48.2418C208.702 49.0572 206.461 49.48 203.848 49.48V51.48C206.674 51.48 209.194 51.0228 211.384 50.0782L210.592 48.2418Z" fill="#8DDE9F"/>
</svg>
