<svg width="110" height="22" viewBox="0 0 110 22" fill="none" xmlns="http://www.w3.org/2000/svg">
<path d="M6.9685 21.614H2.82359V10.9837H0V7.52261H2.82348V5.05984C2.82348 2.14144 4.07231 0.0483856 8.206 0.0483856C9.08028 0.0483856 10.4529 0.229682 10.4529 0.229682V3.44345H9.0112C7.54226 3.44345 6.96872 3.90314 6.96872 5.17402V7.52261H10.3979L10.0925 10.9837H6.96861L6.9685 21.614ZM16.4791 7.24603C16.4187 7.24603 16.3566 7.24829 16.2951 7.24988C12.4517 7.24988 10.6932 10.2242 10.6932 14.4463C10.6932 19.765 12.9742 21.8937 16.3251 21.8937C18.2423 21.8937 19.5019 21.0635 20.2675 19.5142V21.6155H24.2099V7.52408H20.2675V9.69115C19.6424 8.29691 18.3476 7.26255 16.4791 7.24603ZM17.4815 10.5758C19.0958 10.5758 20.0647 11.7342 20.0647 13.7046L20.0684 15.717C20.0684 17.0451 19.2682 18.5988 17.4815 18.5988C14.7348 18.5988 14.8082 15.5475 14.8082 14.5313C14.8082 11.1128 16.2716 10.5758 17.4815 10.5758ZM25.802 14.5705C25.802 12.8582 25.7224 7.25519 32.8178 7.25519C35.6661 7.25519 36.8554 8.18691 36.8554 8.18691L35.8995 11.2371C35.8995 11.2371 34.7117 10.5642 33.164 10.5642C31.1817 10.5642 29.9168 11.7465 29.9168 13.8267L29.919 15.3182C29.919 17.317 31.1395 18.6513 33.1681 18.6513C34.5781 18.6513 35.8776 17.972 35.8776 17.972L36.8311 20.9586C36.8311 20.9586 35.7436 21.8962 32.8377 21.8962C26.0818 21.8962 25.8022 16.8692 25.8022 14.5705H25.802ZM59.9711 7.24988C63.8146 7.24988 65.6008 10.2242 65.6008 14.4463C65.6008 19.765 63.3197 21.8937 59.9688 21.8937C58.0516 21.8937 56.6344 21.0636 55.8688 19.5142V21.6155L51.976 21.6139V0.476842L56.1091 0.105988V9.50024C56.7057 7.85669 58.6661 7.24988 59.9712 7.24988H59.9711ZM58.8124 10.5758C57.1981 10.5758 56.1091 11.7342 56.1091 13.7046L56.1053 15.717C56.1029 17.0451 56.8594 18.5988 58.8124 18.5988C61.5591 18.5988 61.4857 15.5475 61.4857 14.5313C61.4857 11.1128 60.0224 10.5758 58.8124 10.5758ZM44.0267 7.26153C39.6674 7.26153 37.366 9.70677 37.366 14.0522V14.8596C37.366 20.4996 40.5979 21.9516 44.451 21.9516C48.1962 21.9516 49.8914 20.8739 49.8914 20.8739L49.118 18.004C49.118 18.004 47.1239 18.8768 44.9466 18.8768C42.6894 18.8768 41.7186 18.285 41.4698 16.0533H50.2218V13.7509C50.2218 9.03715 47.6389 7.26142 44.0266 7.26142L44.0267 7.26153ZM44.1318 10.1353C45.6408 10.1353 46.6185 11.0873 46.5649 13.2951H41.4774C41.5656 10.9714 42.62 10.1355 44.1318 10.1355V10.1353ZM73.8421 7.24218C69.3654 7.24218 67.0087 9.83759 67.0087 14.4887C67.0087 20.8703 71.0712 21.8975 73.8496 21.8975C77.917 21.8975 80.623 19.6447 80.623 14.5467C80.623 9.24051 77.5804 7.24218 73.8421 7.24218ZM73.7858 10.5873C75.7542 10.5873 76.5343 12.103 76.5343 13.8283V15.3116C76.5343 17.4016 75.4428 18.6104 73.7783 18.6104C72.2216 18.6104 71.1275 17.4796 71.1275 15.3116V13.8283C71.1275 11.516 72.4294 10.5873 73.7858 10.5873ZM88.8569 7.24218C84.3802 7.24218 82.0235 9.83759 82.0235 14.4887C82.0235 20.8703 86.086 21.8975 88.8644 21.8975C92.9316 21.8975 95.6377 19.6447 95.6377 14.5467C95.6377 9.24051 92.595 7.24218 88.8569 7.24218ZM88.8006 10.5873C90.769 10.5873 91.5489 12.103 91.5489 13.8283V15.3116C91.5489 17.4016 90.4575 18.6104 88.7931 18.6104C87.2364 18.6104 86.1423 17.4796 86.1423 15.3116V13.8283C86.1423 11.516 87.4442 10.5873 88.8006 10.5873ZM97.1996 21.614V0.476842L101.345 0.105988V14.2735L105.457 7.52261H109.835L105.545 14.5145L110 21.614H105.61L101.345 14.7205V21.614H97.1996Z" fill="#1877F2"/>
</svg>
