<svg width="327" height="380" viewBox="0 0 327 380" fill="none" xmlns="http://www.w3.org/2000/svg">
<path d="M208.777 0.780508C194.729 3.00588 184.959 12.4985 182.49 26.268C182.003 29.154 182.003 35.3433 182.525 37.986C184.507 48.1045 190.835 56.4844 199.91 61.0394C203.318 62.778 208.638 64.1689 211.767 64.1689C212.845 64.1689 213.541 64.3427 213.645 64.5861C213.715 64.8295 214.201 72.3054 214.688 81.2069C215.175 90.1084 215.697 98.2449 215.836 99.288L216.079 101.2L220.773 101.479C230.092 102 262.325 102.696 262.673 102.383C262.881 102.174 262.742 101.792 262.29 101.374C261.664 100.714 260.691 100.679 243.896 100.157C234.125 99.8791 224.32 99.6357 222.06 99.6357C219.104 99.6357 217.922 99.5314 217.818 99.1837C217.644 98.6621 215.905 68.4805 215.905 66.0465V64.2732L218.861 63.8559C235.516 61.5262 246.4 48.2783 245.704 31.136C245.322 21.8172 241.358 13.785 234.16 7.7348C231.309 5.33557 225.885 2.55385 222.164 1.54548C219.591 0.850051 211.315 0.36325 208.777 0.780508ZM222.164 3.66654C229.953 5.92668 236.698 11.4553 240.419 18.653C242.923 23.4863 243.548 26.1984 243.548 32.353C243.548 37.4992 242.957 41.9151 242.262 41.9151C242.053 41.9151 240.941 40.9415 239.758 39.7245C238.055 38.0207 237.116 36.6299 235.377 33.2223C231.309 25.1205 228.944 22.165 225.085 20.1134C221.434 18.1662 219.278 17.8533 210.133 17.9924C202.414 18.0967 201.997 18.0619 201.093 17.3665C200.571 16.984 199.98 16.219 199.806 15.6975C199.354 14.3414 200.049 11.4553 201.301 9.47337C202.483 7.59571 207.247 3.45791 208.742 2.97111C210.689 2.37999 219.243 2.79725 222.164 3.66654ZM201.197 6.13531C199.006 8.43023 197.754 11.1076 197.581 14.0632C197.441 16.0452 197.511 16.532 198.241 17.5751C198.693 18.2358 199.667 19.1051 200.432 19.4875C201.718 20.1134 202.518 20.183 210.863 20.183C219.417 20.183 220.008 20.2525 221.851 20.9827C226.719 22.9299 228.701 25.0857 232.769 32.9093C235.029 37.221 235.899 38.5771 237.95 40.6981C239.306 42.089 240.732 43.3755 241.08 43.5842C241.74 43.8971 241.74 43.9666 241.184 45.4271C240.384 47.4786 238.124 50.8862 236.003 53.2159C234.091 55.3021 229.57 58.4663 226.858 59.6138C222.06 61.6305 214.306 62.6041 209.472 61.7696C204.987 61.0047 197.754 58.0839 197.72 57.0407C197.72 56.8321 199.91 56.2062 202.553 55.6151C205.196 55.024 208.395 54.2242 209.646 53.807C215.836 51.7207 218.722 47.409 217.678 41.776C217.122 38.7509 215.94 36.6994 214.027 35.4129C212.011 34.0568 210.898 33.7091 206.065 33.0136C198.276 31.9357 196.572 30.371 193.547 21.7129C192.713 19.3137 191.53 16.6015 190.939 15.6975L189.827 14.0284L190.835 12.7419C193.13 9.82109 196.711 7.07414 200.362 5.40511C201.545 4.84877 202.622 4.39674 202.727 4.36197C202.831 4.36197 202.136 5.16171 201.197 6.13531ZM189.409 17.2969C189.792 17.9228 190.765 20.3221 191.565 22.617C193.373 27.7284 193.999 29.0149 195.668 30.8578C198.137 33.57 200.467 34.5436 206.691 35.3086C213.471 36.1778 215.801 38.6118 215.488 44.4882C215.384 46.6093 215.21 47.2352 214.41 48.2783C212.602 50.6775 210.446 51.5816 201.649 53.5983C198.693 54.2938 195.946 54.9197 195.564 55.024C194.625 55.2326 190.974 51.5468 188.888 48.3131C183.463 39.8636 182.803 28.0413 187.219 18.6878C187.879 17.3317 188.47 16.1843 188.575 16.1843C188.644 16.1843 189.027 16.7058 189.409 17.2969Z" fill="url(#paint0_linear)"/>
<path d="M265.941 101.444C265.733 101.826 265.698 102.278 265.872 102.452C266.046 102.626 272.826 102.904 280.928 103.113C289.064 103.321 296.54 103.565 297.549 103.669L299.357 103.843V106.868C299.357 110.206 300.226 167.127 300.608 188.616L300.852 202.316L292.924 202.107C288.543 201.968 283.223 201.864 281.032 201.864H277.103V179.784V157.704L276.338 157.53C275.886 157.461 265.837 156.904 253.98 156.313C242.123 155.722 229.918 155.096 226.858 154.922C223.451 154.748 221.156 154.748 220.982 154.922C220.773 155.131 220.878 163.546 221.26 177.176L221.886 199.082L219.834 201.446C218.235 203.289 216.114 205.862 214.966 207.392C214.932 207.462 214.549 207.253 214.167 206.906C213.715 206.488 212.95 206.28 211.906 206.314C207.525 206.349 201.301 212.712 196.433 222.101L194.486 225.856L193.617 224.048C193.165 223.04 191.704 221.023 190.348 219.597L187.914 216.989L188.123 209.166C188.227 204.854 188.297 192.823 188.262 182.392C188.158 160.207 187.81 155.757 185.272 145.36C181.481 130.026 173.727 120.985 161.001 117.195C154.638 115.318 151.926 115.109 132.801 115.144C82.8001 115.178 64.9275 119.386 58.0776 132.634C54.5309 139.588 53.6964 147.203 54.2875 167.962C54.6352 179.158 54.357 189.798 53.5573 195.779L53.3486 197.517L32.6596 200.542C12.2488 203.533 11.9358 203.602 9.39752 204.854C4.91201 207.079 1.40009 211.495 0.252632 216.433C-0.199397 218.38 -0.164626 220.084 1.36532 283.924C1.7478 299.502 2.13029 316.714 2.26938 322.173C2.40846 328.188 2.65186 333.022 2.93003 334.447C3.93841 339.489 7.45032 343.975 12.1445 346.27C15.3434 347.869 16.8386 348.043 31.6165 348.773L42.2218 349.26L45.1774 352.111C51.9578 358.648 58.5991 363.273 67.6049 367.724C79.8445 373.774 91.5972 377.077 108.635 379.233C113.329 379.859 116.389 379.998 123.587 379.998C132.975 380.033 137.078 379.65 144.693 378.12C181.273 370.783 208.881 342.201 224.598 295.434C227.31 287.332 229.257 280.412 231.066 272.345C232.248 267.06 234.369 255.029 234.856 250.857L235.064 248.875L237.29 248.736C240.071 248.562 241.567 247.484 243.27 244.424C246.261 239.034 246.191 231.106 243.131 226.099C242.471 224.987 241.984 224.013 242.053 223.944C242.123 223.874 245.565 223.77 249.703 223.7L257.214 223.596L257.422 226.378C257.527 227.908 258.187 239.104 258.848 251.239C259.509 263.374 260.134 274.606 260.274 276.17L260.482 279.056H247.443C240.245 279.056 234.299 279.195 234.195 279.369C234.021 279.647 233.534 287.471 231.378 325.824C230.892 334.239 230.196 346.583 229.779 353.293C229.397 359.97 229.049 367.098 229.014 369.114L228.944 372.765H277.972H327L326.896 368.941C326.861 366.819 326.583 358.3 326.305 349.99C326.026 341.68 325.4 322.66 324.914 307.743C324.427 292.826 323.94 280.273 323.871 279.821L323.697 279.056H293.098H262.534L262.36 277.561C262.256 276.761 261.63 265.774 260.934 253.152C260.274 240.53 259.613 228.672 259.509 226.83L259.3 223.457L267.889 223.422C272.617 223.422 276.651 223.318 276.79 223.213C276.964 223.109 277.103 218.728 277.103 213.443V203.846L289.795 204.054C297.201 204.193 302.521 204.159 302.66 203.985C302.764 203.811 302.625 188.824 302.312 170.674C302.034 152.558 301.686 129.852 301.582 120.22C301.408 108.537 301.2 102.591 300.956 102.243C300.643 101.826 298.14 101.687 286.839 101.374C279.294 101.2 271.574 100.957 269.697 100.887C266.567 100.748 266.289 100.783 265.941 101.444ZM145.667 117.021C149.005 117.23 153.247 117.612 155.055 117.925C173.554 121.02 182.246 132.39 185.515 157.704C186.419 164.658 186.558 195.014 185.828 218.102C185.48 228.255 185.341 237.609 185.48 238.861C185.619 240.321 186.071 241.92 186.732 243.172C187.288 244.25 187.74 245.328 187.74 245.502C187.74 246.336 182.107 267.686 180.995 271.163C175.814 286.949 168.999 299.05 159.923 308.403C154.916 313.584 150.118 317.131 144.102 320.087C136 324.051 130.889 325.337 121.848 325.546C116.598 325.685 114.929 325.615 111.382 325.024C104.776 323.877 97.6127 321.373 92.5361 318.383C88.7112 316.123 88.9546 316.575 89.3719 312.611C89.8587 307.847 89.8239 294.773 89.3719 289.488C87.4247 268.138 80.7485 249.779 69.3435 234.375C64.2669 227.525 59.5032 222.761 51.6448 216.711L50.6365 215.911L51.5753 213.616C53.5225 208.714 54.8786 202.351 55.7826 193.588C56.2347 189.45 56.3042 184.652 56.2347 168.135C56.1651 146.925 56.2694 144.699 57.6951 139.136C61.7981 123.037 75.9849 118.204 122.544 117.056C138.539 116.639 139.06 116.639 145.667 117.021ZM244.592 157.878C254.362 158.365 265.002 158.921 268.236 159.095C271.505 159.269 274.356 159.443 274.599 159.443C274.912 159.443 275.017 165.875 275.017 190.389V221.336H264.342C258.431 221.336 250.711 221.44 247.165 221.544L240.697 221.753L239.445 220.049C238.194 218.345 235.899 216.468 235.099 216.468C234.856 216.468 233.778 215.738 232.7 214.868C230.44 213.025 228.353 211.982 226.963 211.947C226.406 211.947 225.989 211.843 225.989 211.739C225.989 211.634 226.893 210.383 227.971 208.992L229.953 206.419L232.735 207.914C234.299 208.748 237.463 210.487 239.828 211.739L244.07 214.034L250.051 211.565C253.319 210.244 256.275 208.992 256.657 208.783C257.248 208.47 257.283 207.566 257.283 189.033V169.631L253.389 169.422C251.233 169.283 246.365 169.074 242.61 168.97C236.803 168.761 235.725 168.796 235.551 169.248C235.447 169.526 236.073 174.012 236.942 179.193L238.541 188.651L236.733 190.772C235.273 192.406 234.717 192.823 234.16 192.649C232.074 192.058 231.552 192.093 229.744 192.893C228.736 193.379 226.997 194.492 225.919 195.396L223.903 197.03V194.318C223.903 192.823 223.729 187.051 223.555 181.522C223.381 175.959 223.138 168.101 222.999 163.998L222.755 156.591L224.807 156.8C225.954 156.904 234.856 157.426 244.592 157.878ZM251.998 171.439C252.311 171.543 252.415 174.047 252.415 182.392V193.171L248.208 201.933C245.913 206.766 243.896 210.87 243.722 211.009C243.479 211.287 231.552 205.167 231.552 204.75C231.552 204.68 232.248 203.602 233.117 202.42C235.134 199.569 236.073 197.517 236.073 195.779C236.073 194.527 236.316 194.144 238.333 192.128C239.828 190.633 240.593 189.624 240.593 189.068C240.593 188.616 239.967 184.513 239.202 179.958C238.437 175.403 237.811 171.473 237.811 171.265C237.811 170.952 239.585 170.917 244.696 171.091C248.451 171.23 251.755 171.369 251.998 171.439ZM233.326 194.562C234.89 195.431 233.743 198.352 230.022 203.081C228.944 204.402 226.928 207.079 225.467 208.992C224.042 210.904 222.72 212.573 222.581 212.712C222.442 212.851 221.399 213.86 220.217 214.973C219.069 216.085 217.192 218.206 216.079 219.701C214.48 221.857 214.097 222.553 214.375 223.005C215.071 224.048 215.523 223.804 217.574 221.092C222.825 214.173 225.572 212.712 229.257 214.868C231.622 216.259 231.796 216.607 230.405 217.476C228.04 218.936 222.268 226.099 222.651 227.108C223.068 228.255 224.32 227.351 226.963 223.944C230.092 219.875 232.491 218.032 234.16 218.345C235.377 218.589 237.742 220.814 238.785 222.692L239.515 223.978L238.055 224.639C237.255 224.987 235.794 226.065 234.856 227.038C232.317 229.611 228.701 234.479 228.84 235.175C229.084 236.427 230.301 235.766 232.143 233.332C234.647 230.063 238.089 226.586 239.063 226.343C240.245 226.03 241.08 226.447 241.74 227.595C244.348 231.976 244.105 239.104 241.219 243.937C239.897 246.163 238.089 247.275 236.42 246.893C234.647 246.51 234.995 245.224 237.985 241.329C240.628 237.887 241.01 236.879 239.724 236.705C239.202 236.635 238.333 237.539 236.281 240.286L233.569 243.937L233.256 246.962C232.7 252.7 230.683 265.565 229.953 267.999C229.431 269.807 217.087 270.746 209.994 269.529C205.578 268.764 200.119 266.886 196.085 264.765C192.782 263.027 186.697 258.68 186.697 258.089C186.697 257.046 190.522 243.659 192.782 236.774C196.711 224.813 200.258 217.963 205.404 212.573C208.708 209.096 212.428 207.149 212.984 208.609C213.089 208.888 212.95 209.548 212.671 210.105C211.594 212.156 204.326 222.275 203.005 223.492C201.51 224.882 201.405 225.23 202.136 225.821C203.144 226.691 205.161 224.743 208.777 219.423C215.314 209.792 223.451 199.882 227.171 196.961C230.509 194.318 231.865 193.797 233.326 194.562ZM52.7923 201.412C52.1664 204.854 50.6365 210.487 49.6281 213.06C48.7936 215.285 48.4806 215.772 47.8548 215.772C46.7073 215.772 43.8213 217.233 41.8393 218.867C39.4401 220.779 36.7279 224.187 33.8419 228.812C30.469 234.271 29.3216 237.678 29.8431 240.634C30.0518 241.851 29.8431 242.477 28.4175 245.537C19.0988 265.426 17.1863 293.139 23.6538 315.532C26.7137 326.206 32.1381 336.846 38.5012 344.74C39.5096 345.957 40.2746 347.035 40.205 347.069C39.9964 347.313 19.1335 346.165 17.0472 345.818C11.1361 344.809 6.05946 339.941 4.84246 334.1C4.66861 333.195 4.25135 322.173 3.97318 309.655C3.66023 297.137 3.20821 277.318 2.93003 265.669C2.65186 253.986 2.33892 240.46 2.2346 235.592C2.13029 230.724 1.95643 225.161 1.85212 223.213C1.64349 219.076 2.26938 215.564 3.66023 212.991C5.36404 209.861 9.29321 206.593 12.4922 205.689L13.5353 205.376V233.297C13.5353 262.818 13.5006 262.401 15.0653 261.81C15.5868 261.601 15.6216 259.098 15.6216 233.332V205.063L19.6551 204.472C35.9629 202.003 50.7756 199.847 51.8187 199.812L53.0705 199.777L52.7923 201.412ZM44.4819 231.35C53.453 236.496 65.6577 260.384 71.2907 283.82C72.3686 288.41 73.8638 296.651 74.2115 300.267C74.6288 304.3 78.4884 310.281 83.3564 314.384C93.9269 323.355 108.079 328.154 122.37 327.597C130.889 327.284 138.226 325.441 145.319 321.79C151.613 318.591 155.994 315.288 161.523 309.586C171.78 299.015 179.326 284.794 184.611 266.017C185.411 263.131 186.141 260.732 186.21 260.662C186.245 260.593 186.975 261.114 187.81 261.775C193.756 266.643 202.344 270.329 210.863 271.615C214.966 272.276 223.937 272.067 227.136 271.302C229.605 270.676 229.57 270.363 227.693 277.805C222.407 298.946 215.036 316.818 205.474 331.77C191.287 353.989 172.789 368.419 150.639 374.643C147.197 375.617 140.034 377.112 138.886 377.112C138.643 377.112 137.565 375.512 136.557 373.53C133.705 368.071 131.584 365.116 127.933 361.43C121.327 354.789 114.06 351.624 104.254 351.138C93.3706 350.581 82.1046 355.171 72.9597 363.933C69.6217 367.132 70.2476 367.132 64.8232 364.142C43.1606 352.25 28.6261 332.291 23.8277 307.778C22.263 299.919 22.0543 297.416 22.0543 287.054C22.0543 278.465 22.1934 276.448 22.8888 271.928C25.0447 257.811 29.1129 246.754 35.6152 237.157C40.205 230.376 40.5875 229.959 41.8393 230.237C42.4304 230.342 43.6126 230.863 44.4819 231.35ZM312.222 314.176V347.208H272.2H232.143L232.387 342.758C232.526 340.324 233.187 328.953 233.847 317.479C234.508 306.004 235.203 293.139 235.447 288.862L235.864 281.143H274.043H312.222V314.176ZM322.097 285.385C322.202 287.749 322.445 294.495 322.654 300.441C322.827 306.352 323.071 313.098 323.175 315.393C323.279 317.687 323.488 324.955 323.697 331.561C323.905 338.168 324.114 344.392 324.218 345.366L324.392 347.208H319.35H314.308V314.176V281.143H318.098H321.889L322.097 285.385ZM312.222 360.248V371.201H271.54H230.857V370.053C230.857 369.462 231.1 365.116 231.378 360.422C231.657 355.727 231.9 351.311 231.9 350.581V349.295H272.061H312.222V360.248ZM324.531 356.319C324.636 360.213 324.844 365.15 324.948 367.272L325.157 371.201H319.733H314.308V360.248V349.295H319.315H324.288L324.531 356.319ZM110.826 353.954C112.008 354.267 114.233 354.997 115.763 355.554C123.344 358.509 130.159 365.29 134.818 374.539L136.244 377.39L134.957 377.599C134.262 377.703 130.472 377.877 126.543 378.016C110.304 378.537 91.7711 375.373 76.1239 369.358C74.1072 368.593 72.4034 367.932 72.3339 367.863C71.7775 367.411 77.2366 362.473 81.2006 359.865C86.2077 356.562 90.7627 354.719 96.4652 353.606C99.5599 353.015 107.801 353.224 110.826 353.954Z" fill="url(#paint1_linear)"/>
<path d="M116.285 140.005C101.82 141.396 91.7712 147.064 87.7725 156.139C85.721 160.729 85.4428 164.415 86.2078 177.489L86.5902 184.582L85.1994 185.938C83.2869 187.781 82.6263 189.381 82.8001 191.919C82.974 194.04 83.6694 195.048 84.6778 194.666C85.0603 194.527 85.1298 193.97 84.956 192.162C84.7473 189.45 85.3385 188.198 87.4943 186.773C89.2329 185.625 93.7184 184.478 96.4653 184.478C99.5948 184.478 99.6295 184.443 98.5516 178.497C96.0133 164.206 97.6476 157.982 104.776 155.305C107.071 154.47 111.765 153.983 120.458 153.705C124.109 153.601 127.551 153.427 128.107 153.357C128.698 153.253 132.21 153.044 135.931 152.836C139.651 152.662 143.546 152.384 144.519 152.28L146.362 152.036L147.093 153.74C147.475 154.679 148.031 156.452 148.275 157.704C148.831 160.347 150.465 183.261 150.778 192.301C150.987 198.804 151.196 199.777 152.482 199.291C153.038 199.082 153.073 198.526 152.865 192.371C152.482 180.862 150.917 159.929 150.152 156.696C147.162 143.795 135.757 138.162 116.285 140.005ZM130.055 142.265C136.174 143.239 140.486 145.186 143.615 148.385L145.041 149.846L144.137 150.089C143.615 150.228 141.599 150.437 139.651 150.541C137.704 150.68 133.532 150.923 130.367 151.097C127.203 151.306 121.014 151.619 116.633 151.793C105.993 152.245 102.933 152.975 99.6991 155.896C96.7783 158.538 95.6308 161.459 95.3526 166.744C95.2136 170.048 95.8394 176.168 96.8478 181.279L97.0564 182.287L94.6572 182.496C93.3707 182.635 91.4582 182.948 90.4846 183.191C88.8156 183.643 88.6418 183.609 88.6418 183.122C88.6418 182.809 88.4679 180.305 88.294 177.524C87.6682 168.553 87.7725 163.441 88.607 160.312C91.4582 149.985 100.047 144.178 115.242 142.3C120.84 141.605 125.917 141.605 130.055 142.265Z" fill="url(#paint2_linear)"/>
<path d="M144.172 168.727C143.546 169.318 144.102 170.152 145.806 171.195C147.893 172.412 148.727 172.586 149.005 171.786C149.283 171.091 148.692 170.43 146.815 169.352C145.18 168.448 144.554 168.309 144.172 168.727Z" fill="url(#paint3_linear)"/>
<path d="M116.459 170.326C115.277 170.639 114.86 170.917 114.79 171.508C114.651 172.447 115.555 172.76 117.155 172.308C117.815 172.099 118.754 171.96 119.276 171.96C120.493 171.96 121.432 171.23 121.119 170.465C120.875 169.77 118.893 169.7 116.459 170.326Z" fill="url(#paint4_linear)"/>
<path d="M132.523 173.977C132.21 174.221 132.106 175.542 132.175 179.471L132.28 184.652L134.401 185.208C135.548 185.521 136.835 186.008 137.252 186.252C139.547 187.677 137.913 190.389 134.783 190.389C133.462 190.389 132.593 191.12 132.94 191.954C133.184 192.615 135.861 192.649 137.426 191.989C140.173 190.841 141.285 187.747 139.686 185.695C138.921 184.722 135.896 183.087 134.818 183.087C134.262 183.087 134.192 182.635 134.192 178.81C134.192 174.116 133.844 173.143 132.523 173.977Z" fill="url(#paint5_linear)"/>
<path d="M143.059 176.968C142.155 177.628 141.877 181.001 142.711 181.801C143.441 182.531 145.076 182.566 145.702 181.836C145.945 181.557 146.188 180.48 146.293 179.471C146.432 177.837 146.362 177.559 145.632 177.037C144.658 176.342 143.928 176.342 143.059 176.968Z" fill="url(#paint6_linear)"/>
<path d="M116.355 177.593C115.972 177.871 115.659 178.741 115.52 179.888C115.277 181.974 115.937 183.087 117.398 183.087C118.754 183.087 119.588 181.905 119.588 180.027C119.588 177.593 117.989 176.411 116.355 177.593Z" fill="url(#paint7_linear)"/>
<path d="M240.594 290.322C240.176 290.74 240.107 332.535 240.559 333.23C240.802 333.613 245.427 333.682 267.576 333.474C282.458 333.335 294.594 333.057 294.941 332.883C295.498 332.604 295.532 331.318 295.463 311.637L295.359 290.705L286.666 290.461C270.01 290.044 240.976 289.94 240.594 290.322Z" fill="url(#paint8_linear)"/>
<path d="M240.384 355.31C240.314 355.554 240.28 357.257 240.314 359.065L240.419 362.334H251.198H261.977L263.437 359.378C265.767 354.649 266.775 355.032 252.658 354.928C242.818 354.858 240.558 354.928 240.384 355.31Z" fill="url(#paint9_linear)"/>
<path d="M290.561 356.632C289.83 357.049 288.926 358.753 288.926 359.726C288.926 362.751 292.716 364.316 294.872 362.195C297.063 360.004 295.568 356.249 292.508 356.249C291.778 356.249 290.908 356.423 290.561 356.632ZM293.794 359.031C294.351 360.074 293.655 361.117 292.403 361.117C291.604 361.117 291.325 360.943 291.152 360.248C290.839 358.926 291.221 358.335 292.369 358.335C293.064 358.335 293.551 358.579 293.794 359.031Z" fill="url(#paint10_linear)"/>
<path d="M299.322 357.257C297.896 358.718 297.896 360.665 299.391 362.125C300.852 363.621 302.799 363.621 304.259 362.195C306.485 359.935 304.955 356.249 301.791 356.249C300.643 356.249 300.122 356.458 299.322 357.257ZM303.008 359.726C303.008 360.874 302.938 360.943 301.791 360.943C300.782 360.943 300.539 360.804 300.469 360.143C300.261 358.753 300.643 358.266 301.86 358.405C302.903 358.509 303.008 358.613 303.008 359.726Z" fill="url(#paint11_linear)"/>
<defs>
<linearGradient id="paint0_linear" x1="220.42" y1="111.89" x2="276.932" y2="60.2545" gradientUnits="userSpaceOnUse">
<stop stop-color="#33A994"/>
<stop offset="0.0001" stop-color="#33A994"/>
<stop offset="1" stop-color="#8DDE9F"/>
<stop offset="1" stop-color="#8DDE9F"/>
</linearGradient>
<linearGradient id="paint1_linear" x1="155.276" y1="405.85" x2="304.032" y2="204.801" gradientUnits="userSpaceOnUse">
<stop stop-color="#33A994"/>
<stop offset="0.0001" stop-color="#33A994"/>
<stop offset="1" stop-color="#8DDE9F"/>
<stop offset="1" stop-color="#8DDE9F"/>
</linearGradient>
<linearGradient id="paint2_linear" x1="116.112" y1="204.929" x2="147.908" y2="161.806" gradientUnits="userSpaceOnUse">
<stop stop-color="#33A994"/>
<stop offset="0.0001" stop-color="#33A994"/>
<stop offset="1" stop-color="#8DDE9F"/>
<stop offset="1" stop-color="#8DDE9F"/>
</linearGradient>
<linearGradient id="paint3_linear" x1="146.367" y1="172.624" x2="148.27" y2="169.628" gradientUnits="userSpaceOnUse">
<stop stop-color="#33A994"/>
<stop offset="0.0001" stop-color="#33A994"/>
<stop offset="1" stop-color="#8DDE9F"/>
<stop offset="1" stop-color="#8DDE9F"/>
</linearGradient>
<linearGradient id="paint4_linear" x1="117.817" y1="172.754" x2="118.734" y2="170.164" gradientUnits="userSpaceOnUse">
<stop stop-color="#33A994"/>
<stop offset="0.0001" stop-color="#33A994"/>
<stop offset="1" stop-color="#8DDE9F"/>
<stop offset="1" stop-color="#8DDE9F"/>
</linearGradient>
<linearGradient id="paint5_linear" x1="136.081" y1="194.204" x2="144.529" y2="189.907" gradientUnits="userSpaceOnUse">
<stop stop-color="#33A994"/>
<stop offset="0.0001" stop-color="#33A994"/>
<stop offset="1" stop-color="#8DDE9F"/>
<stop offset="1" stop-color="#8DDE9F"/>
</linearGradient>
<linearGradient id="paint6_linear" x1="144.178" y1="182.909" x2="147.375" y2="180.303" gradientUnits="userSpaceOnUse">
<stop stop-color="#33A994"/>
<stop offset="0.0001" stop-color="#33A994"/>
<stop offset="1" stop-color="#8DDE9F"/>
<stop offset="1" stop-color="#8DDE9F"/>
</linearGradient>
<linearGradient id="paint7_linear" x1="117.426" y1="183.639" x2="120.662" y2="181.057" gradientUnits="userSpaceOnUse">
<stop stop-color="#33A994"/>
<stop offset="0.0001" stop-color="#33A994"/>
<stop offset="1" stop-color="#8DDE9F"/>
<stop offset="1" stop-color="#8DDE9F"/>
</linearGradient>
<linearGradient id="paint8_linear" x1="266.48" y1="337.618" x2="289.053" y2="304.544" gradientUnits="userSpaceOnUse">
<stop stop-color="#33A994"/>
<stop offset="0.0001" stop-color="#33A994"/>
<stop offset="1" stop-color="#8DDE9F"/>
<stop offset="1" stop-color="#8DDE9F"/>
</linearGradient>
<linearGradient id="paint9_linear" x1="251.942" y1="363.022" x2="253.976" y2="355.276" gradientUnits="userSpaceOnUse">
<stop stop-color="#33A994"/>
<stop offset="0.0001" stop-color="#33A994"/>
<stop offset="1" stop-color="#8DDE9F"/>
<stop offset="1" stop-color="#8DDE9F"/>
</linearGradient>
<linearGradient id="paint10_linear" x1="292.244" y1="363.813" x2="296.057" y2="359.372" gradientUnits="userSpaceOnUse">
<stop stop-color="#33A994"/>
<stop offset="0.0001" stop-color="#33A994"/>
<stop offset="1" stop-color="#8DDE9F"/>
<stop offset="1" stop-color="#8DDE9F"/>
</linearGradient>
<linearGradient id="paint11_linear" x1="301.609" y1="363.904" x2="305.47" y2="359.421" gradientUnits="userSpaceOnUse">
<stop stop-color="#33A994"/>
<stop offset="0.0001" stop-color="#33A994"/>
<stop offset="1" stop-color="#8DDE9F"/>
<stop offset="1" stop-color="#8DDE9F"/>
</linearGradient>
</defs>
</svg>
