<svg width="375" height="347" viewBox="0 0 375 347" fill="none" xmlns="http://www.w3.org/2000/svg">
<path d="M234.912 0.425794C234.702 0.776244 234.807 7.36471 235.298 24.5718C235.403 27.9362 235.718 40.6225 235.999 52.7831C236.279 64.9087 236.594 77.3847 236.7 80.4687C236.805 83.5527 237.015 93.2601 237.225 102.021C237.4 110.783 237.646 119.824 237.716 122.067L237.891 126.202H227.763H217.6V84.7091C217.6 45.4587 217.565 43.1808 217.004 43.0055C216.654 42.9354 189.249 42.7602 156.096 42.6551C122.943 42.5499 74.4409 42.3397 48.3324 42.2345C4.52605 42.0243 0.811277 42.0593 0.355691 42.585C-0.0298046 43.0406 -0.0648497 44.0569 0.0753305 47.281C0.215511 49.5239 0.495871 58.3553 0.706141 66.9063C1.09164 81.1696 1.09164 82.4663 0.530916 83.027C-0.20503 83.8681 -0.169985 84.3587 0.601006 84.9194C1.19677 85.3399 1.30191 86.146 1.51218 93.6106C1.65236 98.1314 1.89767 106.647 2.0729 112.535C2.45839 124.485 2.66866 132.37 2.94902 141.973C3.05416 145.547 3.19434 150.734 3.29948 153.538C3.40461 156.341 3.54479 161.458 3.64993 164.927C3.75506 168.397 3.93029 173.443 4.00038 176.142C4.10551 178.84 4.35083 186.795 4.52605 193.839C5.15686 216.514 5.61245 227.272 6.03299 227.763C6.31335 228.113 7.78524 228.184 12.9018 228.008C16.4764 227.903 29.7585 227.658 42.3747 227.483C85.6904 226.852 89.8607 226.782 97.3954 226.607C101.531 226.501 116.145 226.291 129.812 226.081C143.515 225.906 158.514 225.66 163.21 225.59L171.691 225.415V226.572C171.691 227.202 171.936 232.704 172.217 238.732C173.338 262.738 173.829 272.481 174.144 279.349C174.95 295.505 175.931 316.322 176.422 327.361C177.123 343.131 177.333 346.04 177.754 346.566C178.069 346.951 179.576 347.021 185.534 346.846C193.454 346.636 204.598 346.391 221.28 346.11C235.193 345.865 247.914 345.62 257.376 345.409C264.771 345.234 289.197 344.743 311.345 344.358C317.128 344.253 323.681 344.113 325.889 344.007C328.097 343.902 335.527 343.727 342.36 343.622C349.72 343.482 354.977 343.236 355.257 343.026C355.572 342.781 355.677 322.139 355.677 241.991V141.272H361.039C364.824 141.272 366.576 141.132 366.962 140.816C367.382 140.501 367.558 139.414 367.733 136.015C367.838 133.597 368.259 125.467 368.644 117.967C369.555 100.024 372.569 39.6412 373.726 15.6353C374.006 9.64264 374.321 3.89525 374.392 2.8439C374.497 1.79255 374.392 0.741199 374.181 0.495884C373.691 -0.134927 235.298 -0.169972 234.912 0.425794ZM371.658 8.34597C371.518 11.6052 371.343 14.7943 371.272 15.4601C371.202 16.126 371.027 19.5253 370.922 22.9948C370.782 26.4643 370.642 29.6884 370.572 30.179C370.502 30.6697 370.361 33.5784 370.221 36.6624C370.116 39.7463 369.941 43.0406 369.871 44.0218C369.801 44.9681 369.625 47.9819 369.52 50.6804C369.415 53.3789 369.17 58.4954 368.995 62.07C368.819 65.6446 368.574 70.2005 368.469 72.2331C368.364 74.2657 368.224 77.4899 368.118 79.4173C368.013 81.3448 367.873 84.2536 367.768 85.9007C367.663 87.5478 367.523 90.7719 367.418 93.0849C367.312 95.3979 367.137 98.7972 367.067 100.62C366.962 102.442 366.752 107.103 366.541 110.958C366.366 114.813 366.121 119.369 366.016 121.121C365.946 122.838 365.77 126.868 365.665 130.057C365.56 133.247 365.385 136.506 365.28 137.312L365.105 138.819H358.096C354.135 138.819 351.122 138.679 351.122 138.503C351.122 138.328 350.806 135.524 350.421 132.265C347.407 106.682 338.575 69.2543 327.957 36.9077C323.681 23.906 320.317 16.6166 316.812 12.9018C314.254 10.1683 312.642 9.64264 310.224 10.7641C308.647 11.5351 307.981 12.5864 307.701 14.7943L307.491 16.5816L306.404 15.0045C305.283 13.4275 302.9 11.9556 301.428 11.9556C300.236 11.9556 298.484 12.7967 297.503 13.848C296.767 14.6891 296.627 15.2148 296.521 17.5628L296.381 20.3314L294.559 18.4389C292.456 16.3012 290.739 15.6353 288.706 16.161C283.8 17.4927 283.8 22.399 288.636 37.8539C289.512 40.6575 290.494 43.8817 290.844 44.9681L291.475 46.9306L289.302 45.7741C285.167 43.4962 280.331 42.6901 277.001 43.6714C273.076 44.7928 270.343 47.3862 268.03 52.1172C265.051 58.2501 264.876 63.9274 267.609 66.1703L268.52 66.9063L267.469 67.8174C265.962 69.079 264.385 71.6373 263.544 74.2307C260.705 82.7466 266.348 94.0311 278.999 105C284.781 110.012 286.989 113.271 289.092 119.789C290.774 124.976 292.561 134.193 292.596 137.662V138.819H266.698H240.8L240.59 136.611C240.309 133.387 240.099 126.518 239.153 86.0759C238.872 74.3008 238.557 61.6845 238.452 58.0399C238.171 48.7529 237.646 26.8498 237.365 13.6027L237.12 2.49345H304.512H371.868L371.658 8.34597ZM314.079 13.3574C317.338 15.9157 321.789 25.3428 326.17 38.9403C333.879 62.806 341.274 91.9284 345.129 113.411C346.986 123.784 348.668 135.419 348.668 137.802V138.819H321.894H295.12L294.874 136.611C294.103 129.146 292.421 121.401 290.529 116.565C288.321 110.783 286.814 108.89 278.683 101.391C267.329 90.9472 262.983 81.0294 266.453 73.4597C267.574 70.9715 269.291 69.079 270.413 69.079C272.13 69.079 273.777 71.9177 274.338 75.8778C274.758 78.8216 275.95 80.8892 278.158 82.5363C281.067 84.6741 283.975 85.41 286.709 84.6741C289.688 83.9031 291.3 81.6252 291.931 77.3847C292.526 73.1092 291.16 65.6096 289.022 61.6145C285.447 54.9559 278.438 54.9909 275.074 61.6845C273.917 63.9975 272.796 64.8736 271.009 64.8736C268.976 64.8736 268.065 63.7522 268.065 61.229C268.065 55.832 271.885 48.6478 275.81 46.6152C280.12 44.4424 287.305 46.1596 291.44 50.4C293.262 52.2224 293.578 52.8181 294.699 56.1124C295.821 59.4767 295.996 59.7921 296.802 59.7921C297.327 59.7921 297.713 59.5818 297.783 59.1963C297.853 58.8809 296.171 53.3088 294.033 46.8605C289.442 32.9476 287.725 26.7797 287.445 22.9948C287.27 20.5767 287.34 20.0861 287.9 19.4202C290.178 16.7568 293.508 19.4553 297.152 26.9199C298.239 29.1627 300.446 35.2255 302.97 42.8653C305.213 49.6641 307.21 55.4465 307.385 55.6568C307.876 56.2876 309.032 56.2175 309.278 55.5867C309.383 55.3063 307.911 50.2949 305.984 44.4774C300.236 27.1301 298.94 22.4691 298.869 18.8595C298.799 15.9508 299.045 15.2849 300.376 14.7242C301.323 14.3387 301.603 14.3737 302.689 14.9695C305.353 16.4063 308.261 22.1537 311.135 31.6159C314.464 42.5149 318.39 53.7644 318.985 54.1499C319.406 54.4302 319.721 54.3952 320.142 53.9746C320.632 53.449 320.352 52.3976 316.637 41.043C310.224 21.6631 308.822 14.8994 310.785 13.3224C311.836 12.4462 312.958 12.4813 314.079 13.3574ZM167.415 45.1082L215.497 45.3535V63.3317V81.3448L196.503 81.4149L177.473 81.52L177.508 83.833V86.146L171.901 86.3913C147.79 87.4427 130.583 89.8958 117.371 94.1363L113.481 95.3979L111.308 94.0311C100.655 87.3025 85.4451 83.5527 61.1238 81.6252C52.7831 80.9593 27.3053 81.0645 14.8643 81.8354C9.29218 82.1509 4.49101 82.5013 4.24569 82.5714C4.00038 82.6765 3.72002 82.5363 3.64993 82.291C3.57984 82.0808 3.36957 75.6325 3.1593 68.0277C2.94902 60.4229 2.66866 52.0121 2.56353 49.3136L2.35326 44.4774L60.8434 44.6877C92.9798 44.7928 140.956 45.0031 167.415 45.1082ZM283.59 59.4066C287.024 60.8785 289.477 67.1516 289.582 74.6863C289.618 78.5062 289.162 80.1182 287.655 81.5551C286.218 82.9569 283.66 82.9218 281.031 81.485C278.228 79.9781 277.212 78.4711 276.616 75.0367C276.09 71.9527 275.179 69.815 273.707 68.238C273.006 67.467 272.901 67.1866 273.287 67.0464C274.373 66.6609 276.371 64.4881 277.352 62.5957C279.034 59.3716 281.067 58.3202 283.59 59.4066ZM63.4017 84.1484C84.0783 85.7955 100.269 89.8257 109.416 95.6081L110.748 96.4492L105.736 98.9725C91.7181 106.052 78.1907 115.934 75.8077 120.876C74.9316 122.663 74.9666 124.871 75.8778 126.062C76.859 127.394 79.5225 128.656 81.7303 128.901C85.7955 129.321 93.2251 126.588 101.776 121.612C104.369 120.105 106.577 118.843 106.682 118.843C106.788 118.843 108.084 119.544 109.591 120.35C111.063 121.191 114.042 122.803 116.145 123.925C125.046 128.621 139.975 142.954 145.337 151.926C150.909 161.248 148.982 168.992 140.816 170.149L139.204 170.394L138.573 168.081C136.015 158.549 124.03 143.935 112.184 135.875C109.065 133.772 108.47 133.562 107.944 134.543C107.488 135.419 107.734 135.735 110.748 137.697C121.927 145.022 134.088 159.776 136.471 168.957C137.908 174.495 135.77 177.368 129.777 177.929L127.289 178.139L127.079 176.913C125.922 169.763 115.619 155.675 104.475 146.108C100.655 142.814 99.1477 142.183 99.1477 143.865C99.1477 144.426 99.6734 145.127 100.83 146.038C110.012 153.468 119.158 164.261 123.013 172.357C127.114 180.943 125.256 185.148 117.091 185.674L114.042 185.884L113.621 183.606C112.99 179.786 110.362 175.09 105.666 169.308C102.933 165.944 95.3628 158.304 91.0873 154.624C87.688 151.68 86.4614 151.19 86.2511 152.697C86.181 153.222 87.0571 154.203 89.6505 156.446C96.8347 162.719 103.739 170.114 107.383 175.441C112.114 182.345 112.57 186.725 108.89 189.809C105.386 192.788 100.339 193.103 95.468 190.685C93.0849 189.529 89.8607 186.865 90.2813 186.48C90.4215 186.305 91.8934 185.919 93.5405 185.604C96.5543 185.008 97.3954 184.623 97.3954 183.887C97.3954 183.676 96.3791 182.31 95.1525 180.873L92.8746 178.244L93.0849 176.107C93.2251 174.565 93.1199 173.724 92.7344 172.918C91.9284 171.376 89.9659 169.799 87.9683 169.098C86.3212 168.502 86.2511 168.432 86.2511 167.1C86.2161 165.032 84.7792 163.21 82.1859 161.948C80.2234 160.967 79.978 160.722 79.5925 159.355C79.1019 157.463 77.4898 155.886 75.0717 154.869C73.2494 154.133 73.2143 154.063 73.4597 153.047C73.9503 151.12 73.7751 149.052 73.0041 148.036C70.9014 145.232 65.9951 144.601 61.2289 146.494C58.3202 147.65 52.3275 150.594 48.823 152.591L46.6852 153.783L44.162 152.591C41.6388 151.365 37.3282 150.313 33.0878 149.858C30.8098 149.613 30.8098 149.613 30.4594 148.281C29.0926 143.234 27.6558 135.349 26.7797 128.305C26.0087 122.242 25.7283 108.645 26.2189 102.372C26.6745 96.5894 28.1815 85.7254 28.7071 84.2886L29.0926 83.3424L43.8816 83.5527C52.0121 83.6578 60.8084 83.9381 63.4017 84.1484ZM26.254 84.1134C26.254 84.2886 25.9386 86.3212 25.5531 88.5991C22.9948 103.633 22.9948 121.086 25.5531 136.19C26.2189 140.115 27.8661 147.825 28.2165 148.807C28.3567 149.122 25.7984 149.262 17.0722 149.437C10.8692 149.542 5.75263 149.613 5.71758 149.578C5.54236 149.402 5.15686 138.328 4.70128 121.296C4.42092 110.783 4.10551 100.374 4.00038 98.1664C3.93029 95.9586 3.79011 92.0686 3.75506 89.5804L3.68497 85.0245L6.62875 84.7792C15.7405 83.9732 26.254 83.6227 26.254 84.1134ZM178.455 95.3628C178.77 98.9374 180.067 113.026 181.328 126.728C182.59 140.396 183.606 151.61 183.606 151.645C183.606 151.68 178.77 151.785 172.847 151.89C162.019 152.101 155.15 152.661 151.365 153.713C149.823 154.133 149.367 154.133 149.157 153.783C149.017 153.573 148.351 152.416 147.65 151.26C144.917 146.669 142.148 143.269 136.085 137.137C132.581 133.597 129.917 130.793 130.128 130.899C138.433 134.438 142.954 135.945 145.933 136.085C147.65 136.19 147.685 136.19 147.685 135.139C147.685 134.123 147.615 134.088 145.652 133.842C140.361 133.176 127.955 127.744 112.535 119.299L106.507 116.004L103.073 118.142C99.0776 120.7 91.5079 124.45 88.2837 125.537C82.6064 127.429 77.4198 126.413 77.4198 123.399C77.4198 120.42 85.0245 113.867 97.2202 106.402C111.834 97.4305 123.539 93.5755 144.005 91.0172C153.923 89.7556 177.088 88.1786 177.684 88.7043C177.824 88.8094 178.174 91.7882 178.455 95.3628ZM237.926 134.298C237.926 137.487 238.066 140.22 238.277 140.606C238.662 141.272 239.678 141.272 296.101 141.272C345.935 141.272 353.575 141.342 353.575 141.762C353.575 142.043 352.383 143.515 350.946 145.022C349.51 146.529 348.318 147.86 348.318 148C348.318 148.106 346.741 149.648 344.813 151.365C333.914 161.177 320.247 166.224 309.593 164.402C306.019 163.771 301.112 163.911 298.554 164.717C295.014 165.838 291.51 168.011 288.321 171.025C285.868 173.338 285.167 173.829 283.835 174.039C279.595 174.74 274.899 177.298 271.114 180.908C269.081 182.87 268.415 183.291 267.154 183.466C263.789 183.922 260.916 186.13 259.128 189.634C258.638 190.58 257.691 191.772 256.991 192.297C255.343 193.594 252.82 197.134 251.699 199.867C250.893 201.76 250.753 202.601 250.753 205.58C250.718 208.523 250.823 209.294 251.489 210.486C253.066 213.43 256.5 215.602 260.285 216.093C261.301 216.233 262.843 216.724 263.719 217.214C265.366 218.126 267.89 218.406 270.203 217.915L271.464 217.67L271.009 220.018C270.413 223.137 270.413 226.957 271.044 228.709C271.324 229.48 271.569 230.146 271.569 230.181C271.569 230.181 269.326 231.898 266.593 233.966L261.581 237.716L254.783 248.79C247.704 260.285 247.493 260.775 249.456 261.056C249.876 261.126 255.694 259.969 262.352 258.498L274.478 255.799L278.438 252.96C280.646 251.383 284.326 248.755 286.639 247.108L290.879 244.129L294.979 244.094C306.194 243.919 326.59 242.061 333.844 240.59C340.293 239.293 348.739 235.823 351.717 233.265C352.523 232.599 353.259 232.039 353.364 232.039C353.47 232.039 353.575 240.975 353.575 251.874V271.71L346.145 281.382C342.045 286.709 338.505 291.3 338.295 291.51C337.91 291.931 331.286 300.482 313.098 324.207C312.432 325.083 309.383 329.043 306.299 333.038C303.215 336.998 300.446 340.643 300.131 341.134L299.57 341.975L286.534 342.22C279.349 342.325 270.658 342.501 267.189 342.606C263.719 342.711 256.535 342.851 251.243 342.956C245.951 343.061 238.136 343.201 233.896 343.307C229.655 343.412 221.385 343.552 215.497 343.657C209.61 343.762 200.393 343.937 194.996 344.043L185.183 344.253L186.971 342.36C187.952 341.344 191.667 337.524 195.206 333.914C198.746 330.27 201.689 327.081 201.76 326.8C201.9 326.17 201.199 325.258 200.603 325.258C200.323 325.258 195.907 329.499 190.755 334.721C183.852 341.694 181.153 344.183 180.557 344.183C179.962 344.183 179.751 343.972 179.751 343.377C179.751 342.921 179.436 336.087 179.05 328.202C178.665 320.317 178.209 310.154 177.999 305.633C177.789 301.112 177.473 294.664 177.298 291.3C177.088 287.97 176.948 284.466 176.948 283.52V281.803L185.253 272.796C189.809 267.82 195.206 261.932 197.274 259.724C206.806 249.386 224.644 229.901 225.941 228.429C226.852 227.342 226.992 226.992 226.712 226.431C225.8 224.714 227.307 223.207 195.522 257.797C178.7 276.16 176.772 278.193 176.702 277.983C176.667 277.877 176.457 273.987 176.247 269.362C176.037 264.736 175.651 256.079 175.336 250.122L174.81 239.293L181.714 232.354C188.618 225.415 188.653 225.415 190.405 225.24C191.386 225.135 197.729 224.994 204.493 224.924C214.446 224.854 216.934 224.749 217.425 224.329C217.95 223.873 217.985 220.579 217.88 176.247L217.775 128.656H227.868H237.926V134.298ZM353.505 167.03L353.4 174.249L350.421 174.319C348.178 174.389 347.091 174.6 346.005 175.16C344.533 175.966 338.891 180.032 326.45 189.354L319.161 194.856L317.443 192.998C314.535 189.809 309.944 187.882 305.248 187.882C301.918 187.882 299.711 188.828 297.573 191.176C295.155 193.804 294.384 195.837 291.755 206.631C290.318 212.694 288.917 216.268 286.534 220.298C284.466 223.838 280.856 227.728 278.683 228.849C276.581 229.901 274.548 229.831 273.812 228.674C272.41 226.572 272.761 222.997 275.6 209.96C276.616 205.229 277.807 199.482 278.193 197.134C279.244 191.211 280.12 188.232 282.048 184.167C287.059 173.653 293.963 167.731 302.865 166.329C303.565 166.224 306.089 166.399 308.472 166.715C317.268 167.906 324.277 166.644 333.073 162.299C338.961 159.355 343.166 156.271 348.668 150.734L353.4 146.003L353.505 152.907C353.54 156.692 353.54 163.035 353.505 167.03ZM68.6935 147.93C73.5298 149.262 71.7775 154.063 64.7334 158.864C56.7432 164.261 50.1898 164.261 45.8442 158.794C44.968 157.708 43.5662 154.939 43.8816 154.939C43.9517 154.939 44.5125 155.325 45.1433 155.816L46.3348 156.657L48.823 155.255C53.3789 152.697 60.3879 149.227 62.7008 148.421C65.189 147.51 66.7661 147.405 68.6935 147.93ZM35.9615 152.626C40.5874 153.432 40.7977 153.573 41.4986 155.605C42.3397 158.199 44.5475 161.388 46.475 162.825C47.5964 163.631 48.5076 164.752 49.2085 166.084C50.4701 168.537 54.0097 172.182 55.7269 172.812C56.6731 173.163 57.1988 173.689 57.8997 175.055C59.0561 177.193 60.3879 178.7 62.3854 180.172C63.1915 180.768 64.348 182.029 64.9087 183.011C67.8525 188.232 72.7938 190.615 78.1907 189.494C79.4524 189.213 80.9593 188.758 81.52 188.478C82.0457 188.197 83.5526 187.777 84.8493 187.531L87.1973 187.041L88.9496 188.828C92.5592 192.508 96.2389 194.225 100.97 194.47C106.087 194.716 110.117 192.963 112.255 189.529C113.306 187.847 113.341 187.812 114.743 187.987C116.32 188.197 119.894 187.812 122.207 187.216C124.38 186.62 126.623 184.307 127.184 182.029L127.639 180.242L130.338 180.102C135.209 179.821 138.503 177.473 138.994 173.934L139.169 172.567L141.202 172.357C145.127 172.006 148.211 169.974 149.823 166.609C150.594 165.032 150.804 164.156 150.804 161.983C150.839 160.512 150.699 158.689 150.559 157.883L150.278 156.481L151.645 156.061C153.608 155.465 159.565 154.694 164.226 154.414C168.922 154.168 168.397 153.362 168.712 161.598C168.817 164.787 169.308 175.266 169.763 184.903C170.885 207.928 171.481 222.576 171.305 222.717C170.99 222.997 146.564 223.523 94.4166 224.329C82.6765 224.504 68.8688 224.749 63.7522 224.854C36.4521 225.415 8.24083 225.73 8.03056 225.485C7.89038 225.345 7.57497 218.196 7.3647 209.61C7.11939 201.024 6.80398 189.213 6.62875 183.326C6.45353 177.438 6.20821 169.168 6.10308 164.927C5.99794 160.687 5.82272 156.096 5.71758 154.694L5.50731 152.171L7.92542 152.031C9.22209 151.961 15.355 151.926 21.5229 151.961C30.0388 152.031 33.5083 152.171 35.9615 152.626ZM184.027 156.832C184.167 158.339 184.447 159.776 184.693 160.056C185.008 160.477 187.671 160.547 200.112 160.547H215.147V191.351V222.156L204.914 222.366C199.271 222.471 190.055 222.646 184.412 222.752L174.214 222.962L174.004 221.104C173.899 220.088 173.724 217.355 173.618 215.042C173.513 212.729 173.303 207.752 173.093 204.002C172.918 200.253 172.357 188.653 171.866 178.244C171.411 167.836 170.92 158.199 170.815 156.797L170.64 154.274L173.899 154.168C175.651 154.098 178.63 154.063 180.452 154.063H183.781L184.027 156.832ZM75.282 157.533C78.6814 159.32 77.8403 162.544 72.934 166.259C65.7147 171.726 60.2126 172.918 55.6568 169.974C54.2199 169.063 51.4864 166.014 51.4864 165.348C51.4864 165.243 52.5728 165.173 53.9045 165.173C58.951 165.173 64.5933 162.544 69.7449 157.813C71.6023 156.096 71.6373 156.096 72.8989 156.516C73.5998 156.797 74.6862 157.252 75.282 157.533ZM81.2397 164.051C82.9569 164.892 84.0783 166.294 84.0783 167.521C84.0783 170.57 79.4524 175.616 74.3708 178.139C71.7425 179.471 71.1116 179.611 68.8688 179.646C65.6096 179.646 63.5069 178.63 61.3341 175.966L59.7571 174.039L62.035 173.794C66.696 173.338 72.3032 170.324 76.3684 166.154C77.8052 164.647 79.207 163.42 79.4524 163.385C79.6977 163.385 80.5037 163.666 81.2397 164.051ZM88.3538 171.796C90.1061 172.672 90.9121 173.969 90.842 175.721C90.7018 178.7 86.146 183.501 80.9593 186.059C78.6463 187.216 78.0506 187.356 75.7025 187.356C73.4246 187.356 72.7938 187.216 71.4271 186.41C69.8851 185.499 67.2567 182.94 67.2567 182.31C67.2567 182.169 68.4482 181.924 69.8851 181.854C72.0929 181.714 73.0041 181.433 75.4222 180.242C76.9992 179.436 79.3122 177.929 80.5388 176.878C82.6765 175.055 85.4801 171.691 85.4801 170.99C85.4801 170.605 86.5665 170.885 88.3538 171.796ZM353.329 176.913C353.47 176.983 353.575 181.328 353.575 186.515C353.575 192.227 353.435 195.907 353.259 195.767C352.874 195.557 342.746 181.363 342.501 180.768C342.395 180.417 345.199 178.279 347.232 177.193C348.598 176.422 352.278 176.247 353.329 176.913ZM282.609 178.139C279.069 183.957 277.106 189.389 275.915 196.748C275.214 200.989 272.586 213.219 272.27 213.57C271.92 213.99 268.626 209.785 267.399 207.367C265.296 203.161 264.771 198.956 265.787 194.575C267.224 188.478 271.92 182.31 277.737 178.91C279.069 178.104 282.538 176.702 283.239 176.667C283.415 176.667 283.099 177.333 282.609 178.139ZM345.865 189.669C348.844 193.91 351.332 197.484 351.402 197.659C351.437 197.8 350.806 198.395 350 198.956C349.159 199.552 342.991 203.932 336.298 208.734C322.139 218.792 323.611 218.126 309.173 221.385C295.891 224.399 290.949 225.976 287.129 228.499C284.571 230.146 283.8 230.987 282.573 233.405C280.261 238.066 281.417 241.501 285.903 243.008L287.41 243.498L284.326 245.741C282.609 246.968 280.296 248.615 279.209 249.386C278.088 250.157 276.511 251.278 275.67 251.909L274.163 253.031L269.186 246.057C266.453 242.237 264.21 239.012 264.21 238.942C264.21 238.837 266.313 237.225 268.871 235.333C273.462 231.898 273.497 231.898 275.354 231.968C278.088 232.109 280.506 230.882 283.66 227.763C285.062 226.361 286.989 223.978 287.97 222.436L289.793 219.703L314.92 200.848C328.763 190.475 340.152 181.994 340.258 181.959C340.363 181.959 342.886 185.429 345.865 189.669ZM266.663 186.305C266.663 186.41 266.137 187.531 265.471 188.828C261.231 197.204 262.388 206.14 268.696 213.43C269.502 214.411 270.168 215.252 270.168 215.357C270.168 215.813 267.504 215.953 266.242 215.602C262.002 214.306 259.233 208.418 259.269 200.673C259.269 194.19 260.986 189.564 264.28 187.181C265.577 186.235 266.663 185.849 266.663 186.305ZM309.803 191.036C310.96 191.456 312.502 192.122 313.203 192.578C314.815 193.629 316.883 195.767 316.742 196.222C316.637 196.538 293.788 213.745 292.351 214.621C292.071 214.796 292.141 214.236 292.561 213.044C292.912 212.028 293.648 209.364 294.173 207.157C295.68 200.813 296.767 197.029 297.573 195.381C298.414 193.559 300.411 191.456 301.883 190.826C303.495 190.125 307.35 190.23 309.803 191.036ZM256.92 199.377C256.745 203.897 257.411 207.857 258.953 211.257C260.11 213.78 259.934 213.92 257.376 212.729C254.292 211.257 252.995 209.224 252.995 205.79C252.995 203.267 254.187 199.797 255.869 197.309C256.5 196.363 257.026 195.592 257.061 195.592C257.061 195.592 256.991 197.309 256.92 199.377ZM351.437 230.391C347.687 233.861 341.064 236.664 332.723 238.312C327.291 239.363 321.368 240.029 309.944 240.8C288.952 242.237 283.835 241.606 283.835 237.506C283.835 236.7 284.151 235.438 284.501 234.632C286.499 230.251 292.281 227.623 307.491 224.153C323.576 220.474 326.555 219.457 329.569 216.619C330.725 215.532 339.452 209.224 351.472 200.743L353.4 199.412L353.505 213.885L353.61 228.359L351.437 230.391ZM184.658 225.625C184.658 225.801 182.45 228.113 179.786 230.777C174.144 236.419 174.67 236.524 174.354 229.655L174.144 225.38H179.401C182.31 225.38 184.658 225.485 184.658 225.625ZM266.838 247.108C269.116 250.297 271.114 253.066 271.289 253.311C271.639 253.766 270.273 254.222 267.539 254.643C266.207 254.853 266.102 254.783 265.261 253.521C264.771 252.785 263.334 250.718 262.037 248.93L259.689 245.671L260.565 244.199C262.317 241.396 262.528 241.08 262.633 241.22C262.703 241.255 264.595 243.919 266.838 247.108ZM353.54 325.819L353.575 340.959L347.197 341.169C343.657 341.274 332.513 341.484 322.385 341.589C312.257 341.694 303.881 341.87 303.741 341.94C303.601 342.045 303.425 341.94 303.32 341.765C303.215 341.624 304.582 339.557 306.369 337.244C308.121 334.931 314.044 327.221 319.441 320.107C324.873 313.028 333.143 302.234 337.804 296.171C342.465 290.108 347.792 283.134 349.65 280.716L353.049 276.3L353.259 293.508C353.364 302.97 353.505 317.513 353.54 325.819Z" fill="url(#paint0_linear)"/>
<path d="M293.986 83.8283C292.97 84.8446 294.056 85.7207 296.509 85.8258C301.135 86.0011 304.955 87.7183 308.319 91.0826C310.737 93.5007 312.174 95.8838 313.226 99.178C313.716 100.79 313.927 101.105 314.627 101.105C315.398 101.105 315.469 100.965 315.434 99.4584C315.398 95.323 310.422 88.4893 305.586 85.931C301.766 83.8983 295.107 82.7068 293.986 83.8283Z" fill="#33A94D"/>
<path d="M12.2939 131.244C12.1537 131.56 12.0486 134.539 12.0136 137.833L11.9785 143.861L12.8897 143.966C14.1513 144.106 14.2214 143.685 14.1513 136.746C14.0812 130.964 14.0812 130.894 13.2752 130.789C12.7846 130.719 12.3991 130.894 12.2939 131.244Z" fill="#33A94D"/>
<path d="M262.34 159.351C245.133 178.59 243.101 180.903 243.101 181.149C243.101 181.289 243.416 181.709 243.801 182.06C244.397 182.586 244.572 182.621 245.168 182.2C245.554 181.92 251.546 175.331 258.52 167.551C271.522 152.937 272.188 152.061 270.05 151.816C269.314 151.711 268.228 152.762 262.34 159.351Z" fill="#33A94D"/>
<path d="M291.708 282.884C291.217 283.34 287.713 287.86 283.858 292.977C280.003 298.094 274.045 305.979 270.611 310.5C267.176 315.02 263.286 320.172 261.955 321.959C259.852 324.763 259.572 325.254 259.922 325.884C260.763 327.461 261.499 326.795 267.036 319.506C288.659 291.085 293.916 284.041 293.916 283.48C293.916 282.919 293.25 282.113 292.829 282.113C292.654 282.113 292.164 282.464 291.708 282.884Z" fill="#33A94D"/>
<path d="M327.034 198.286C306.953 212.374 306.708 212.584 306.708 213.46C306.708 215.283 308.285 214.371 322.478 204.348C334.989 195.517 336.496 194.361 336.496 193.52C336.496 192.959 336.286 192.538 335.971 192.468C335.69 192.433 331.66 195.027 327.034 198.286Z" fill="#33A94D"/>
<defs>
<linearGradient id="paint0_linear" x1="177.799" y1="379.061" x2="366.549" y2="144.004" gradientUnits="userSpaceOnUse">
<stop stop-color="#33A994"/>
<stop offset="0.0001" stop-color="#33A994"/>
<stop offset="1" stop-color="#8DDE9F"/>
<stop offset="1" stop-color="#8DDE9F"/>
</linearGradient>
</defs>
</svg>
