<svg width="367" height="296" viewBox="0 0 367 296" fill="none" xmlns="http://www.w3.org/2000/svg">
<path d="M0.256062 0.868562C0.155531 1.06962 0.155531 4.58819 0.256062 8.64292C0.390103 12.7312 0.624674 21.4438 0.792224 27.9783C1.12733 40.0755 1.62998 56.663 1.96508 66.3474C2.06561 69.2963 2.30018 77.0707 2.46773 83.6052C2.66879 90.1396 2.97038 100.26 3.13794 106.057C3.30549 111.854 3.54006 119.159 3.64059 122.309C3.74112 125.426 3.87516 130.352 3.97569 133.2C4.07622 136.049 4.21026 141.477 4.31079 145.264C4.41132 149.051 4.57887 154.01 4.64589 156.322C4.74642 158.634 5.04801 168.486 5.3161 178.271C5.58418 188.023 5.88577 198.143 5.9863 200.723C6.08683 203.303 6.28789 210.843 6.48895 217.478C6.9916 235.842 7.15915 238.322 7.69532 238.791C8.06393 239.092 16.8101 239.159 45.4613 238.992L82.7246 238.824L84.333 242.443C93.0457 262.214 106.249 276.791 120.926 282.823C127.628 285.604 134.833 286.677 142.306 286.04C159.664 284.532 176.218 279.003 190.661 269.955C192.437 268.816 193.945 267.945 194.012 267.978C194.045 268.045 195.687 274.177 197.664 281.65C199.608 289.123 201.418 295.423 201.686 295.691C202.322 296.328 203.194 295.926 203.194 294.987C203.194 294.552 202.758 292.608 202.222 290.631L201.25 287.045L202.993 283.091C208.086 271.698 211.705 259.902 211.94 253.803C212.007 252.094 212.174 251.726 213.515 250.117C215.86 247.302 216.061 246.867 215.592 246.297C215.358 246.029 214.989 245.794 214.755 245.794C214.52 245.794 213.28 247.034 212.04 248.576C205.439 256.585 194.313 265.766 184.729 271.027L182.518 272.267L179.066 268.816C168.511 258.294 161.473 243.817 159.865 229.441C159.731 228.269 159.798 227.933 160.401 227.531C165.193 224.214 169.817 220.427 172.565 217.612C176.788 213.289 176.955 213.122 184.26 204.074C192.47 193.921 195.319 190.67 200.178 185.811C211.37 174.686 223.099 167.615 236.67 163.862C239.586 163.058 248.7 161.349 250.108 161.349C250.543 161.349 251.08 162.086 251.951 163.862C253.291 166.677 256.006 169.827 258.418 171.335C262.875 174.183 270.214 174.82 275.039 172.776C278.558 171.268 281.105 167.481 281.942 162.555C282.211 160.88 282.512 160.008 282.814 160.008C283.048 160.008 286.399 161.047 290.286 162.354C305.768 167.481 318.435 173.144 329.962 180.047C332.342 181.455 334.721 182.996 335.291 183.499L336.329 184.337L333.984 189.028C328.756 199.45 322.423 208.699 314.715 217.143L312.872 219.12L310.661 217.679C308.013 215.97 304.093 214.228 301.077 213.424C299.87 213.122 298.698 212.686 298.496 212.485C298.262 212.284 297.86 211.346 297.558 210.441C296.754 207.928 294.81 205.582 292.666 204.51C290.454 203.404 288.376 203.169 287.874 203.94C287.639 204.342 288.98 209.67 293.168 224.716C296.251 235.842 298.899 245.392 299.033 245.962C299.435 247.57 310.426 287.079 310.795 288.252C311.063 289.089 311.331 289.358 311.934 289.358C313.04 289.358 313.14 288.687 312.403 286.275C312.068 285.135 311.766 284.063 311.766 283.929C311.766 283.828 312.336 283.527 313.04 283.292C313.71 283.058 316.458 281.918 319.139 280.745C337.435 272.636 352.247 261.444 359.887 249.95C366.824 239.561 368.633 229.14 365.55 217.445C361.093 200.422 345.377 184.873 319.641 172.005C314.849 169.592 306.874 166.074 302.317 164.365L299.368 163.259V82.3988V1.50526L298.63 1.37121C297.994 1.23717 49.2144 0.46644 12.6213 0.499951C4.17675 0.499951 0.423613 0.600481 0.256062 0.868562ZM175.548 3.01321C223.668 3.11374 270.75 3.28129 280.2 3.38182L297.357 3.58289V82.9685C297.357 126.632 297.29 162.354 297.19 162.354C297.089 162.354 295.011 161.684 292.565 160.88C290.119 160.042 286.835 159.003 285.26 158.5L282.378 157.663L282.177 153.038C282.076 150.525 281.507 144.962 280.87 140.74C279.798 133.301 279.764 132.731 279.898 124.823C280.267 102.438 280.2 101.466 277.921 96.7747C275.944 92.7869 271.923 90.3072 267.332 90.3072C265.791 90.3072 265.522 90.2067 265.522 89.704C265.522 89.3354 265.221 87.928 264.852 86.5205C261.937 75.0936 251.783 67.4198 234.693 63.6331C230.873 62.7618 229.901 62.6948 223.467 62.6948C216.698 62.6613 216.33 62.6948 213.749 63.5661C207.416 65.7107 203.026 69.7655 200.513 75.7973C199.574 78.009 196.525 90.9774 194.146 102.739L193.777 104.616L191.767 104.817C188.114 105.219 186.438 106.593 186.438 109.207C186.438 110.715 186.573 110.983 187.913 112.29C188.717 113.061 189.89 113.865 190.527 114.066L191.666 114.435L190.895 119.059C189.823 125.325 189.521 134.708 190.259 138.193C191.633 144.694 195.386 148.983 201.92 151.597C203.294 152.133 205.372 152.77 206.478 153.005C207.617 153.239 208.589 153.608 208.689 153.775C208.756 153.976 210.063 157.16 211.571 160.846C213.079 164.532 214.621 168.252 214.956 169.123L215.559 170.665L213.481 171.971C207.885 175.524 200.144 182.326 194.045 189.095C190.292 193.217 188.047 195.931 179.569 206.453C170.722 217.411 163.451 223.745 154.537 228.235C144.551 233.262 135.671 232.323 129.605 225.588C126.321 221.969 123.205 216.205 121.127 209.938C119.485 205.079 116.972 194.792 112.247 173.58C107.355 151.664 106.249 147.107 103.97 139.567C100.451 128.073 96.8658 121.304 90.7 114.77C86.2766 110.078 82.5235 107.464 79.4406 106.928C78.7368 106.794 77.6645 106.325 76.9943 105.889C76.3576 105.454 75.6874 105.052 75.4864 104.985C75.1848 104.884 76.2236 69.799 76.7262 63.2645L76.9273 60.8183L78.3012 60.2151L79.6751 59.6119L86.2096 64.0352C109.332 79.5839 116.637 84.4764 122.501 88.3971C126.154 90.8434 129.103 92.9545 129.136 93.1556C129.136 93.3566 126.321 93.4571 121.161 93.3901C114.727 93.3231 113.085 93.3901 112.549 93.7587C111.912 94.2279 111.945 94.5965 114.023 113.295C115.162 123.75 116.268 132.53 116.469 132.765C116.737 133.1 119.418 133.2 128.935 133.2H141.032L145.154 150.357C153.431 185.107 155.676 194.356 155.81 194.49C155.978 194.658 157.955 194.825 157.955 194.658C157.955 194.457 155.408 183.633 151.286 166.543C149.075 157.328 146.394 146.068 145.288 141.477L143.311 133.2H149.979C154.168 133.2 156.916 133.066 157.352 132.832C157.988 132.496 158.022 132.262 157.821 129.581C157.72 127.973 157.251 119.562 156.782 110.916C156.313 102.237 155.844 94.8311 155.777 94.4289C155.542 93.3901 154.57 93.2896 145.791 93.3901C139.089 93.4907 138.184 93.4236 138.184 92.9545C138.184 92.6864 138.016 92.2843 137.849 92.1167C137.614 91.8822 140.865 87.8274 147.935 79.5504C164.992 59.6119 175.146 47.7493 182.551 39.0367C186.405 34.5128 189.655 30.7261 189.756 30.5921C189.89 30.458 190.527 30.4916 191.23 30.6926C192.671 31.0947 194.682 30.6591 195.687 29.7208C196.324 29.1176 196.458 29.1847 202.322 31.9325C207.986 34.6133 208.354 34.7474 208.79 34.1442C209.024 33.8091 209.225 33.3734 209.225 33.1389C209.225 32.9378 206.478 31.4634 203.127 29.8884C197.229 27.107 196.994 26.973 197.061 26.0682C197.329 22.8177 193.174 20.2039 190.192 21.7454C187.879 22.9518 186.807 25.8001 187.879 27.8443L188.416 28.8496L176.955 42.2536C159.798 62.2927 144.249 80.5222 139.893 85.6493C136.408 89.771 135.905 90.2067 135.168 90.0391C133.828 89.6705 132.186 89.8716 131.247 90.4747L130.376 91.0444L118.279 82.9014C111.644 78.4446 100.686 71.0724 93.9505 66.582C87.2149 62.0581 81.5182 58.2045 81.2836 57.9699C81.0155 57.7353 80.781 56.7635 80.781 55.7582C80.7139 54.4848 80.4794 53.6471 79.9767 52.9099C77.698 49.6929 72.705 50.2961 71.3311 53.9152L70.7614 55.3561L68.2817 55.6577L65.8019 55.9928V39.3047C65.8019 27.3081 65.7014 22.5832 65.4333 22.4156C65.1987 22.2816 62.3169 22.047 58.9659 21.913C55.6483 21.7454 44.9921 21.2427 35.3077 20.7736C15.6707 19.8353 16.8101 19.7683 17.0782 22.2146C17.1452 22.8848 17.7484 31.832 18.4186 42.0526C19.0553 52.2732 19.692 62.4267 19.8595 64.6049C20.0271 67.4533 20.2616 68.6596 20.5967 68.8942C21.3675 69.3633 64.8972 69.2963 65.3998 68.7937C65.6679 68.5256 65.8019 66.8166 65.8019 63.2645C65.8019 59.3773 65.9025 58.1374 66.2376 58.1374C66.4386 58.1374 67.578 57.9699 68.7508 57.8023L70.8955 57.5007L72.2694 58.9417C73.0401 59.7459 73.8779 60.4496 74.1124 60.5167C74.5481 60.6507 74.28 71.508 73.0736 102.941C73.0401 104.348 72.8726 105.052 72.6045 105.052C72.0013 105.052 69.8231 107.062 69.8231 107.598C69.8231 107.833 69.287 108.302 68.6168 108.604C67.3434 109.207 65.4668 111.452 64.5956 113.396C64.1264 114.435 63.7913 114.703 62.5514 115.038C60.5743 115.574 57.5584 118.523 57.2568 120.232C57.1228 120.902 56.5196 122.209 55.9164 123.181C54.6766 125.057 54.0734 127.269 54.0734 129.816C54.0734 131.089 53.8053 131.893 52.934 133.334C50.5883 137.255 50.9234 138.997 56.0505 149.419C65.5674 168.654 70.3258 183.834 74.5146 207.928C76.4917 219.221 77.7315 224.314 80.3788 232.055C81.049 233.999 81.6857 235.842 81.7863 236.143C81.9538 236.713 80.0773 236.747 45.6288 236.747H9.27029L9.03572 228.972C8.43254 207.894 7.79585 186.414 7.3267 171.569C6.85756 156.456 6.3214 138.026 4.98099 93.8258C4.71291 84.6105 4.17675 66.8166 3.80814 54.2838C3.17145 32.3011 2.66879 16.8529 2.30018 7.06794L2.13263 2.41003L45.0927 2.6446C68.7508 2.74513 127.461 2.91268 175.548 3.01321ZM38.8598 23.1193C48.8123 23.555 58.4632 24.0241 60.3733 24.1581L63.7913 24.3592V40.2095C63.7913 48.9557 63.6908 56.1603 63.5567 56.2274C63.3892 56.3279 59.0999 56.9646 53.9728 57.6683L44.6905 58.9417L43.6852 57.7353C40.7363 54.1832 35.3077 56.1268 35.3077 60.7177C35.3077 64.1358 38.7592 66.3139 42.1438 65.0405C43.6182 64.4709 44.6905 63.0634 44.6905 61.6895C44.6905 61.0528 44.8246 61.0193 51.3926 60.1481C54.2409 59.7459 58.1281 59.2433 60.0382 58.9752C61.9147 58.7071 63.5567 58.4725 63.6238 58.4725C63.7243 58.4725 63.7913 60.3491 63.7913 62.6613V66.8501H43.0485H22.2722L22.1047 65.4091C22.0042 64.6384 21.8366 62.6278 21.7361 60.9858C21.1999 51.6365 19.5579 26.1687 19.3904 24.3592C19.2228 22.3486 19.2228 22.2816 19.9935 22.2816C20.4627 22.2816 28.9408 22.6502 38.8598 23.1193ZM210.8 77.7409C213.414 84.3424 217.703 91.0109 224.405 99.0869C226.986 102.17 227.589 102.706 228.628 102.907C233.487 103.711 238.145 105.688 239.586 107.565C241.797 110.48 240.524 114.502 236.938 115.942C235.866 116.378 234.76 116.479 232.18 116.378L228.829 116.278V122.477C228.829 127.671 228.929 128.978 229.466 130.519C231.778 137.288 236.268 141.712 242.065 142.952C243.138 143.186 244.914 143.253 246.321 143.119L248.767 142.918V147.04C248.767 150.625 249.337 155.92 249.94 158.433C250.141 159.238 250.074 159.271 248.03 159.506C239.284 160.477 230.504 163.058 222.194 167.112C219.614 168.386 217.469 169.358 217.435 169.324C217.368 169.257 216.832 168.017 216.229 166.576C215.525 164.834 215.291 163.862 215.525 163.761C218.508 162.79 221.49 157.596 221.222 153.909L221.121 152.469L216.899 152.234C205.707 151.664 198.335 148.816 194.783 143.722C192.269 140.07 191.465 135.177 192.102 127.369C192.336 124.588 192.872 120.332 193.275 117.953C193.71 115.54 193.945 113.362 193.811 113.094C193.643 112.793 192.839 112.39 191.968 112.156C190.259 111.687 188.449 110.179 188.449 109.14C188.449 107.799 190.862 106.761 194.045 106.727C195.252 106.727 195.486 106.593 195.654 105.956C195.754 105.554 196.961 99.9246 198.335 93.4907C199.742 87.0232 201.116 80.8573 201.384 79.785C202.188 76.7356 204.299 72.8484 206.444 70.5362L208.354 68.4586L208.991 71.575C209.326 73.3175 210.13 76.0654 210.8 77.7409ZM129.572 96.8417C131.18 100.226 136.977 100.159 138.016 96.7411L138.318 95.6688L146.059 95.7358L153.766 95.8364L154.671 111.586C155.174 120.232 155.576 128.14 155.576 129.078L155.609 130.854H136.877H118.145L117.944 129.414C117.642 127.235 114.392 96.9757 114.392 96.272C114.392 95.7023 114.827 95.6688 121.697 95.6688H129.002L129.572 96.8417ZM82.1214 110.279C85.841 112.424 91.1691 117.953 94.5536 123.08C98.977 129.849 102.697 140.941 107.187 160.846C107.857 163.795 109.533 171.268 110.907 177.434C116.938 204.443 118.647 210.709 121.898 217.512C124.143 222.203 125.986 224.918 128.768 227.732C133.526 232.491 139.524 234.468 145.891 233.396C148.84 232.893 153.364 231.385 155.844 230.045C157.72 229.039 157.955 229.14 157.955 230.949C157.955 232.491 159.329 238.523 160.535 242.276C163.886 252.731 169.214 261.611 176.821 269.486L180.474 273.239L178.798 274.077C172.431 277.294 161.809 280.779 153.096 282.454C145.02 284.029 136.575 284.398 130.812 283.493C111.912 280.41 94.9223 263.454 84.6681 237.417C80.6469 227.23 78.7704 220.193 76.3576 206.286C73.5093 189.866 69.7561 176.026 64.6291 162.957C63.5903 160.31 60.7754 154.144 58.3627 149.218C54.7101 141.712 53.9728 139.936 53.8388 138.294C53.7048 136.853 53.8053 136.049 54.2409 135.244L54.8106 134.138L55.8829 136.752C57.4244 140.539 58.6308 142.315 59.5355 142.181C60.6414 142.013 60.6079 141.176 59.435 139.299C57.5919 136.317 56.3521 132.362 56.3521 129.481C56.3186 126.13 56.8212 125.124 57.3909 127.369C57.927 129.581 60.943 135.613 62.1493 136.92C62.9536 137.791 63.2216 137.892 63.6238 137.557C64.361 136.953 64.2605 136.35 63.0876 134.675C61.5126 132.362 59.7701 128.375 59.2339 125.794C58.6643 123.114 58.8988 121.204 59.9041 119.729C60.6749 118.59 62.3504 117.216 62.6185 117.484C62.719 117.584 62.6185 118.556 62.4174 119.662C61.8477 122.678 62.2163 126.13 63.3892 128.609C64.8972 131.826 69.4545 136.451 70.6609 136.015C71.7667 135.579 71.3981 134.809 68.9519 132.463C65.4333 129.112 64.294 126.733 64.294 122.812C64.294 120.5 64.495 119.461 65.2658 117.35C66.1705 114.837 68.5498 110.748 69.0524 110.748C69.22 110.748 69.6221 111.318 69.9907 112.022C70.6944 113.262 70.6944 113.295 70.0577 115.272C69.3205 117.685 69.421 122.41 70.3258 124.89C71.0965 127.068 73.6098 129.347 75.8215 129.816C80.0773 130.72 83.1937 127.705 83.7969 122.075C84.0985 119.159 83.3612 117.584 80.4794 114.971C78.1337 112.86 78.1002 112.826 78.5023 111.754C78.7033 111.151 78.8709 110.279 78.8709 109.81C78.8709 109.106 78.9714 109.039 79.8092 109.24C80.3118 109.341 81.3506 109.81 82.1214 110.279ZM78.5023 116.11C81.2836 118.422 81.5517 118.891 81.5517 121.472C81.5182 125.258 79.7757 127.839 77.1954 127.839C75.7209 127.839 74.0119 126.766 72.9731 125.225C71.5657 123.147 71.2306 118.724 72.2024 115.507C72.5375 114.468 72.6045 114.435 74.5146 114.435C76.3911 114.435 76.5922 114.535 78.5023 116.11ZM341.859 188.224C359.284 201.863 367.46 218.886 364.176 234.769C360.959 250.452 345.377 265.833 320.948 277.495C316.056 279.841 311.431 281.751 311.197 281.55C311.063 281.382 301.713 247.872 301.713 247.503C301.713 247.403 302.953 246.934 304.461 246.532C312.169 244.353 317.731 240.198 319.306 235.373C320.245 232.625 319.909 228.771 318.502 226.023C317.899 224.817 316.759 223.074 315.955 222.17L314.548 220.494L316.525 218.316C324.266 209.804 331.37 199.383 336.162 189.397C337.201 187.252 338.105 185.476 338.172 185.476C338.239 185.476 339.915 186.716 341.859 188.224ZM296.184 214.496C302.116 215.501 307.377 217.713 311.465 220.863C313.777 222.639 315.352 224.515 316.659 227.029C317.966 229.542 318.033 233.396 316.827 235.842C315.62 238.322 313.073 240.6 309.622 242.276C306.137 243.985 301.512 245.426 301.11 244.957C300.943 244.756 298.966 237.919 296.72 229.743C294.475 221.566 292.532 214.663 292.431 214.429C292.197 213.826 292.498 213.859 296.184 214.496Z" fill="url(#paint0_linear)"/>
<path d="M224.875 15.6466C224.741 16.1158 226.45 44.8675 226.885 49.0898L227.153 51.603L247.963 51.7036C264.45 51.7706 268.84 51.7036 268.941 51.3685C269.108 50.8993 268.974 48.4531 267.734 28.5816C267.299 21.645 266.829 15.8142 266.695 15.6131C266.36 15.0435 225.109 15.1105 224.875 15.6466ZM264.986 19.3328C265.087 20.5056 265.489 26.638 265.858 33.0049C266.226 39.3718 266.628 45.7388 266.729 47.1462L266.93 49.76H247.963C236.938 49.76 228.996 49.6259 228.996 49.4584C228.996 49.2908 228.561 42.0862 227.991 33.4405C227.455 24.8284 226.986 17.6573 226.986 17.4897C226.986 17.3557 235.497 17.2551 245.886 17.2551H264.785L264.986 19.3328Z" fill="url(#paint1_linear)"/>
<path d="M251.883 26.2022C250.275 28.0118 248.264 30.1899 247.426 31.0612L245.918 32.6697L242.567 29.6538C239.082 26.5373 237.708 25.9006 237.708 27.4086C237.708 27.9448 238.68 29.0171 241.059 31.1617C242.903 32.8037 244.41 34.2112 244.41 34.3117C244.41 34.4122 242.903 36.1547 241.059 38.1989C237.574 42.0525 236.938 43.3929 238.513 43.3929C239.116 43.3929 240.121 42.4882 242.567 39.7068C244.377 37.6627 245.985 36.0207 246.153 36.0207C246.354 36.0207 248.298 37.6962 250.509 39.7403C253.425 42.3876 254.765 43.3929 255.268 43.3259C256.91 43.0914 256.206 41.952 251.984 38.1989C249.672 36.1547 247.795 34.3787 247.795 34.2112C247.761 34.0771 249.638 31.8319 251.95 29.2852C254.262 26.7049 256.139 24.4262 256.139 24.1916C256.139 23.7225 255.502 22.9517 255.1 22.9517C254.966 22.9517 253.525 24.4262 251.883 26.2022Z" fill="url(#paint2_linear)"/>
<path d="M43.8193 182.628C43.6852 182.896 43.6852 183.365 43.8193 183.633C43.9868 184.069 45.3272 184.136 53.0346 184.136C61.0435 184.136 62.0823 184.069 62.2499 183.599C62.786 182.226 62.1158 182.125 52.8335 182.125C45.2937 182.125 43.9868 182.192 43.8193 182.628Z" fill="url(#paint3_linear)"/>
<path d="M44.0533 193.988C43.8522 194.222 43.7517 194.691 43.8857 194.993C44.0868 195.496 45.0921 195.529 54.0393 195.462L63.9583 195.362V194.524V193.686L54.2069 193.586C46.1979 193.519 44.3884 193.586 44.0533 193.988Z" fill="url(#paint4_linear)"/>
<path d="M53.5039 31.899C51.6273 34.5798 43.6519 49.1232 43.7524 49.6594C43.8194 49.9945 44.188 50.2961 44.5567 50.3631C45.1598 50.4636 46.0311 49.1232 50.3539 41.5164C53.3363 36.2553 55.4139 32.2676 55.3469 31.8655C55.1794 30.8267 54.2411 30.8267 53.5039 31.899Z" fill="url(#paint5_linear)"/>
<path d="M34.4027 36.7915C28.1698 41.0808 27.3656 41.751 27.8012 42.4212C28.1698 43.0579 41.3058 49.4248 41.842 49.2237C42.1101 49.1232 42.3446 48.6876 42.3446 48.2854C42.3446 47.6823 41.3728 47.0791 36.5809 44.6999L30.8506 41.818L36.6144 37.8973C41.4063 34.6133 42.3781 33.8091 42.2776 33.2394C42.2106 32.8038 41.909 32.4687 41.5069 32.4351C41.1048 32.4016 38.1894 34.1777 34.4027 36.7915Z" fill="url(#paint6_linear)"/>
<path d="M204.601 84.6775C203.864 85.4148 204.199 85.8839 206.344 87.0903C208.689 88.3972 209.393 88.5647 209.695 87.794C209.996 86.9562 209.628 86.4871 207.55 85.3478C205.372 84.1414 205.171 84.1079 204.601 84.6775Z" fill="url(#paint7_linear)"/>
<path d="M203.73 95.4008C203.026 96.4731 202.725 98.7853 203.16 99.6231C203.596 100.461 205.003 100.829 205.908 100.36C207.282 99.6231 207.818 95.937 206.712 95.1327C205.741 94.3955 204.3 94.563 203.73 95.4008Z" fill="url(#paint8_linear)"/>
<path d="M207.549 120.466C207.047 121.438 205.371 122.175 203.997 122.075C202.422 121.941 201.652 122.913 202.657 123.683C204.768 125.225 210.297 122.511 209.459 120.332C209.158 119.595 207.985 119.662 207.549 120.466Z" fill="url(#paint9_linear)"/>
<path d="M141.066 104.449C140.798 104.884 139.055 108.47 137.179 112.424C135.302 116.378 133.694 119.696 133.593 119.796C133.492 119.897 132.32 118.791 130.979 117.35C128.6 114.803 127.427 114.2 126.991 115.272C126.824 115.775 129.873 119.495 132.621 122.142C133.694 123.147 133.895 123.214 134.33 122.812C135.134 121.974 142.909 105.286 142.808 104.549C142.674 103.611 141.669 103.544 141.066 104.449Z" fill="url(#paint10_linear)"/>
<defs>
<linearGradient id="paint0_linear" x1="174.365" y1="323.361" x2="328.93" y2="101.967" gradientUnits="userSpaceOnUse">
<stop stop-color="#33A994"/>
<stop offset="0.0001" stop-color="#33A994"/>
<stop offset="1" stop-color="#8DDE9F"/>
<stop offset="1" stop-color="#8DDE9F"/>
</linearGradient>
<linearGradient id="paint1_linear" x1="245.823" y1="55.1077" x2="265.092" y2="28.2345" gradientUnits="userSpaceOnUse">
<stop stop-color="#33A994"/>
<stop offset="0.0001" stop-color="#33A994"/>
<stop offset="1" stop-color="#8DDE9F"/>
<stop offset="1" stop-color="#8DDE9F"/>
</linearGradient>
<linearGradient id="paint2_linear" x1="246.455" y1="45.2856" x2="257.835" y2="33.4389" gradientUnits="userSpaceOnUse">
<stop stop-color="#33A994"/>
<stop offset="0.0001" stop-color="#33A994"/>
<stop offset="1" stop-color="#8DDE9F"/>
<stop offset="1" stop-color="#8DDE9F"/>
</linearGradient>
<linearGradient id="paint3_linear" x1="52.5823" y1="184.322" x2="52.7896" y2="182.101" gradientUnits="userSpaceOnUse">
<stop stop-color="#33A994"/>
<stop offset="0.0001" stop-color="#33A994"/>
<stop offset="1" stop-color="#8DDE9F"/>
<stop offset="1" stop-color="#8DDE9F"/>
</linearGradient>
<linearGradient id="paint4_linear" x1="53.3851" y1="195.666" x2="53.5617" y2="193.536" gradientUnits="userSpaceOnUse">
<stop stop-color="#33A994"/>
<stop offset="0.0001" stop-color="#33A994"/>
<stop offset="1" stop-color="#8DDE9F"/>
<stop offset="1" stop-color="#8DDE9F"/>
</linearGradient>
<linearGradient id="paint5_linear" x1="49.2583" y1="52.1531" x2="59.3216" y2="45.1676" gradientUnits="userSpaceOnUse">
<stop stop-color="#33A994"/>
<stop offset="0.0001" stop-color="#33A994"/>
<stop offset="1" stop-color="#8DDE9F"/>
<stop offset="1" stop-color="#8DDE9F"/>
</linearGradient>
<linearGradient id="paint6_linear" x1="34.6554" y1="50.7834" x2="44.0126" y2="41.3696" gradientUnits="userSpaceOnUse">
<stop stop-color="#33A994"/>
<stop offset="0.0001" stop-color="#33A994"/>
<stop offset="1" stop-color="#8DDE9F"/>
<stop offset="1" stop-color="#8DDE9F"/>
</linearGradient>
<linearGradient id="paint7_linear" x1="206.877" y1="88.6202" x2="208.836" y2="85.4396" gradientUnits="userSpaceOnUse">
<stop stop-color="#33A994"/>
<stop offset="0.0001" stop-color="#33A994"/>
<stop offset="1" stop-color="#8DDE9F"/>
<stop offset="1" stop-color="#8DDE9F"/>
</linearGradient>
<linearGradient id="paint8_linear" x1="205.022" y1="101.113" x2="208.268" y2="98.3532" gradientUnits="userSpaceOnUse">
<stop stop-color="#33A994"/>
<stop offset="0.0001" stop-color="#33A994"/>
<stop offset="1" stop-color="#8DDE9F"/>
<stop offset="1" stop-color="#8DDE9F"/>
</linearGradient>
<linearGradient id="paint9_linear" x1="205.691" y1="124.536" x2="207.637" y2="120.717" gradientUnits="userSpaceOnUse">
<stop stop-color="#33A994"/>
<stop offset="0.0001" stop-color="#33A994"/>
<stop offset="1" stop-color="#8DDE9F"/>
<stop offset="1" stop-color="#8DDE9F"/>
</linearGradient>
<linearGradient id="paint10_linear" x1="134.499" y1="124.823" x2="145.203" y2="114.663" gradientUnits="userSpaceOnUse">
<stop stop-color="#33A994"/>
<stop offset="0.0001" stop-color="#33A994"/>
<stop offset="1" stop-color="#8DDE9F"/>
<stop offset="1" stop-color="#8DDE9F"/>
</linearGradient>
</defs>
</svg>
