<svg width="112" height="38" viewBox="0 0 112 38" fill="none" xmlns="http://www.w3.org/2000/svg">
<g clip-path="url(#clip0)">
<path fill-rule="evenodd" clip-rule="evenodd" d="M7.69233 3.46042C8.41485 1.93492 9.64094 0.387323 10.3854 0.0999116C10.8013 -0.076957 12.5748 -0.0106313 14.1293 0.232563C14.806 0.320732 14.808 0.342973 14.9599 2.0083L14.9613 2.02336C15.1583 4.52163 15.1146 13.8293 14.8737 16.2613C14.5891 19.1354 13.9979 20.7051 12.5967 22.0979C11.2611 23.4687 9.99125 23.9551 7.53907 24.1319C3.0726 24.4415 0.379576 22.5843 0.0511586 18.9585C-0.0145249 18.2511 0.0511585 17.2562 0.182525 16.7256C0.664204 15.0011 2.21871 13.8293 3.4667 14.2936C3.92648 14.4484 3.97027 14.581 3.88269 15.4654C3.79511 16.195 3.53238 16.7256 2.85365 17.5215C1.84651 18.7596 1.71514 19.5333 2.30629 20.7935C2.78797 21.8326 4.10164 22.4296 5.91888 22.4296C8.48053 22.4296 10.4291 20.9925 11.3925 18.45C11.6114 17.831 11.8085 17.1014 11.8085 16.7919C11.8085 16.3276 11.699 16.2392 11.1079 16.2392C10.1664 16.2171 8.78705 15.5759 8.04264 14.78C7.71422 14.4263 7.18876 13.5419 6.86034 12.8345C6.35677 11.7069 6.26919 11.1984 6.26919 9.62871C6.26919 7.46207 6.70708 5.58284 7.69233 3.46042ZM11.8523 8.65593C11.918 5.58284 11.8742 3.4162 11.7428 3.23933C11.3487 2.73083 10.3416 2.92981 9.7723 3.63728C8.87463 4.6985 8.63379 5.7376 8.63379 8.61171C8.63379 10.9994 8.67758 11.3753 9.18115 12.3702C9.75041 13.5419 10.6262 14.161 11.3487 13.9178C11.7209 13.8072 11.7647 13.4314 11.8523 8.65593ZM38.0819 2.15601C38.0819 1.53697 38.1475 0.873712 38.2132 0.696843C38.3446 0.298889 39.4393 0.409432 40.6654 0.89582C41.366 1.18323 41.3879 1.20534 41.2566 2.24444C41.1909 2.81927 41.1033 3.99102 41.0814 4.85326L41.0376 6.40086L43.1614 6.53351C44.8035 6.62194 45.3946 6.75459 45.7449 7.06411C46.5112 7.77159 46.2923 7.97056 44.7816 7.99267C44.0153 7.99267 42.833 8.08111 42.1542 8.14743C41.7136 8.2072 41.4132 8.21909 41.2045 8.36345C40.7182 8.69971 40.7288 9.75464 40.6216 13.8072C40.4902 18.4279 40.6873 20.5061 41.3441 21.1694C41.7601 21.5894 41.8039 21.5894 42.3294 21.2357C43.0738 20.7714 43.6868 19.4891 44.1247 17.632C44.2999 16.814 44.5626 16.0181 44.6721 15.8854C44.7816 15.7528 44.9786 14.8463 45.0881 13.8957C45.8544 7.74948 47.8906 5.89236 51.963 7.57261C53.9991 8.41274 54.3276 8.87702 54.4589 11.1984C54.5465 12.8345 54.6122 13.0776 55.1158 13.4977C55.6412 13.9399 55.6631 14.0062 55.4223 14.979C55.0939 16.2171 55.0939 18.7153 55.3785 19.7987C55.6631 20.7935 56.0791 21.1915 56.6922 20.9925C57.5242 20.7272 57.8526 19.6439 58.0277 16.5708C58.3124 11.7732 59.0568 9.16443 60.5456 7.83791C61.5965 6.90935 62.2315 6.79881 63.4357 7.35152C64.0049 7.61683 64.8807 7.94846 65.3843 8.08111C65.8878 8.23587 66.5885 8.63382 66.9169 8.98756C67.4861 9.6066 67.5299 9.73925 67.5299 11.6406V13.6304L68.2524 13.9399L68.975 14.2273L68.6028 14.9569C68.3181 15.5096 68.2087 16.5045 68.1211 19.268L68.0116 22.8717H68.559C68.8655 22.8717 69.3472 23.0707 69.6318 23.2918C70.0697 23.6455 70.1135 23.7782 69.8726 24.0214C69.7194 24.1762 69.2815 24.3088 68.8874 24.3088H68.1868L68.0773 29.5043C67.9459 35.1199 67.7927 36.0485 66.7636 37.2865C66.1506 38.0161 66.1287 38.0161 64.3333 37.994C60.1515 37.9719 58.794 36.0927 59.8669 31.8257C60.5018 29.3274 61.8155 27.006 63.6108 25.2374L65.231 23.6234V20.9925L64.618 22.0758C64.2895 22.6728 63.7641 23.3581 63.4576 23.5792C62.954 23.9772 62.7569 23.9772 61.5965 23.7782C60.0201 23.4908 59.3633 23.0265 58.7502 21.8326L58.2905 20.9041L57.7869 21.5894C57.1957 22.4075 56.0572 22.916 55.2033 22.7391C54.4151 22.5843 53.2328 21.4126 52.992 20.5282L52.7949 19.8871L52.4446 20.7493C51.328 23.3139 50.2333 24.1098 48.3504 23.7561C47.7154 23.6234 46.9491 23.3802 46.6645 23.1813C46.1171 22.8054 45.0881 20.8378 45.0881 20.1082C45.0881 19.865 44.8035 20.2629 44.475 20.9925C43.7525 22.4959 42.6797 23.6677 41.8696 23.8224C40.2494 24.1319 38.6511 22.717 37.9505 20.3735C37.5783 19.1796 37.5345 18.3616 37.6002 13.763L37.644 8.50117L37.1623 8.41274C34.7977 7.92635 34.3379 7.74948 34.119 7.35152C33.9876 7.10833 33.9438 6.86514 33.9876 6.79881C34.2065 6.59983 35.8048 6.29031 36.7901 6.29031H37.7972L37.9286 4.78693C38.0162 3.96891 38.0819 2.79716 38.0819 2.15601ZM65.0996 12.0828C65.1215 10.5573 65.0777 10.4246 64.5085 9.91612C63.8079 9.29708 63.8079 9.29708 62.9102 9.69503C62.122 10.0488 61.5089 10.9773 60.9397 12.7018C60.3485 14.4484 60.3266 20.285 60.9178 21.1694C61.1367 21.5231 61.5089 21.7663 61.7936 21.7663C62.3628 21.7663 63.2605 20.9041 63.7641 19.8871C64.4866 18.4279 65.0558 15.0674 65.0996 12.0828ZM52.2257 13.4093C52.6417 12.7681 52.4227 11.1542 51.8316 10.3804C50.9996 9.29708 49.4013 9.78347 48.6131 11.3532C47.4965 13.5419 47.1462 19.3565 48.0001 21.3684C48.4379 22.4296 49.2043 22.4959 50.1238 21.5894C50.912 20.7935 51.3499 19.2459 51.6783 16.2834C51.8097 14.979 52.0505 13.6967 52.2257 13.4093ZM62.4723 36.2695C63.6765 36.557 64.618 35.2304 65.0121 32.6658C65.1434 31.8478 65.2091 29.7696 65.1872 28.0673L65.1215 24.9942L64.2676 25.9669C63.2605 27.1387 62.1001 29.5485 61.6184 31.3835C60.9835 33.9039 61.3338 35.9821 62.4723 36.2695ZM79.442 13.6967C79.7704 10.8668 80.4273 9.09811 81.5439 7.92636C82.3978 6.9978 82.5072 6.95358 83.6895 6.95358C84.828 6.95358 85.2221 7.06413 87.5211 8.14744C88.2874 8.47907 88.6158 9.3192 88.7909 11.2869C88.9223 12.7681 89.0099 13.0998 89.4697 13.4756C89.9732 13.8957 89.9951 14.0062 89.7762 14.8021C89.4259 16.0844 89.4697 19.4228 89.8419 20.3293C90.4768 21.8547 91.5715 21.0588 92.4254 18.4721C92.8195 17.2341 92.9071 16.3497 92.9947 12.8345L93.0823 8.65594L94.2646 8.78859C94.8995 8.85492 95.5344 8.96546 95.6658 9.05389C95.7972 9.14233 95.8848 10.8005 95.9066 13.4314C95.9066 15.7749 95.9504 17.5657 95.9942 17.4551C96.038 17.3225 96.3883 16.1507 96.7824 14.8242C97.8115 11.3974 98.731 10.5794 100.483 11.4858L101.118 11.8175L101.183 15.2001L101.249 18.5606L102.3 15.5759C102.891 13.9399 103.613 12.0164 103.942 11.2869L104.511 10.0046L105.54 10.093C106.241 10.1593 106.854 10.4025 107.401 10.8226C107.698 11.0471 107.891 11.1703 107.992 11.3466C108.189 11.6909 108.033 12.2378 107.598 14.1389C107.182 15.9518 107.248 19.7544 107.708 20.7051C108.474 22.3411 110.16 20.7272 110.664 17.8973C110.882 16.7698 111.145 16.2392 111.539 16.2392C112.809 16.2392 111.058 21.7 109.372 22.9602C108.584 23.5571 107.029 23.5571 106.219 22.9602C105.891 22.717 105.387 22.0316 105.08 21.4126C104.599 20.4619 104.511 19.9755 104.424 17.2341L104.314 14.1389L103.613 15.9075C102.891 17.7647 102.015 20.9704 102.015 21.7442C102.015 22.7612 99.8914 22.916 99.0376 21.9653C98.6872 21.5673 98.6216 21.0588 98.5559 18.2068C98.5121 16.3939 98.4026 14.9127 98.315 14.9127C97.9866 14.9127 97.4174 17.4109 97.0452 20.3956L97.0432 20.4105C96.6073 23.7119 96.6044 23.7335 94.7024 23.4466C93.4983 23.2476 93.2574 22.9602 93.0604 21.501L92.929 20.3514L92.3378 21.2578C90.9147 23.4245 88.5063 23.2476 87.4554 20.882L87.0394 19.9534L86.5796 21.0367C85.9884 22.3411 85.047 23.5129 84.3245 23.7782C83.4925 24.1098 81.4563 23.6013 80.7338 22.916C80.4054 22.6064 79.9675 21.9211 79.7704 21.4126L79.4201 20.4619L78.8727 21.5452C78.2378 22.8496 77.362 23.535 76.3549 23.535C73.9465 23.535 72.7861 20.6609 72.9174 15.0232L73.005 12.1491H71.7132L71.2973 14.9127C70.8375 18.0521 70.2682 19.6439 69.6771 19.5112C69.2392 19.4228 69.2173 19.2459 69.6114 16.9024C69.7865 15.8412 69.8522 14.0504 69.7646 11.8838C69.6552 8.16955 69.6552 8.12534 70.9907 7.90425C71.8884 7.7716 72.1074 8.01479 72.1292 9.27498C72.1292 9.87191 72.2387 10.1593 72.4577 10.2035C72.6328 10.2256 73.4429 10.3141 74.253 10.3804C75.1726 10.4688 75.917 10.6678 76.2235 10.911L76.7052 11.309L76.2016 12.945C75.8294 14.1389 75.6761 15.3327 75.5886 17.3446C75.4572 20.6609 75.7418 21.8769 76.6176 21.8769C77.0336 21.8769 77.2745 21.6558 77.6467 20.9704C78.2597 19.8429 79.1355 16.3497 79.442 13.6967ZM86.4701 13.4977C87.0175 12.945 86.5358 10.4467 85.8133 10.0488C84.4558 9.3192 83.0765 10.3804 82.4196 12.6134C81.6314 15.3769 81.5877 19.865 82.3321 21.4568C82.77 22.3854 83.6676 22.4296 84.4777 21.5673C85.244 20.7272 85.7257 19.0249 86.0322 16.0181C86.1417 14.7579 86.3607 13.6083 86.4701 13.4977ZM17.1084 20.7051C16.999 19.467 17.4588 8.98757 17.6339 8.67805C17.7872 8.43486 18.9695 8.65594 19.6482 9.076C20.108 9.38552 20.1299 9.51817 20.1299 12.9892L20.1518 16.5708L20.7648 14.979C21.553 12.9671 22.4288 11.4416 22.9762 11.1542C23.633 10.8005 24.4869 11.1321 24.8591 11.8617C25.1218 12.3702 25.2094 13.3872 25.2313 16.1507C25.2751 19.1575 25.3408 19.8208 25.6254 20.1303C26.4136 20.9041 27.574 19.3786 27.9243 17.1456C28.0119 16.6371 28.2089 16.1507 28.3622 16.0844C28.603 15.996 28.5592 15.797 28.2308 15.1116C27.5083 13.6967 27.7711 12.0607 28.9096 10.9994C30.3327 9.67293 34.3394 8.58961 35.5655 9.18655C36.1128 9.45185 36.2223 9.65083 36.288 10.4025C36.3318 11.1321 36.2442 11.4637 35.7844 12.0164C35.1495 12.7681 34.6897 12.8787 34.1642 12.3923C33.0257 11.3753 31.0771 12.326 31.0771 13.9178C31.0771 15.0011 31.4493 15.4875 33.7263 17.3446C36.0034 19.2017 36.3318 19.6218 36.3318 20.5724C36.3318 21.5452 35.3684 22.319 33.7701 22.6507C31.6464 23.1149 28.6249 22.518 27.9243 21.501C27.6178 21.0588 27.6178 21.0588 26.961 21.5452C26.1728 22.1422 24.7934 22.319 24.0709 21.9432C23.0637 21.4126 22.7572 20.3956 22.7572 17.4551C22.7353 15.0453 22.7134 14.8463 22.4288 15.3548C21.9471 16.2171 21.2903 18.3837 20.8743 20.4398C20.6772 21.4789 20.4145 22.3854 20.2612 22.4738C20.1299 22.5622 19.5606 22.6507 19.0133 22.6507C17.7434 22.6507 17.2617 22.1643 17.1084 20.7051ZM33.3322 20.4398C33.2666 20.1966 32.8068 19.6439 32.2813 19.1796C31.7777 18.7153 30.8801 17.9194 30.2889 17.433L29.1942 16.5045L28.9534 17.7647C28.822 18.45 28.6468 19.1575 28.5811 19.3344C28.4936 19.5555 28.6687 19.7987 29.0409 20.0197C29.3912 20.2187 30.0042 20.6608 30.464 20.9924L30.4641 20.9925C31.8653 22.0316 33.6607 21.6779 33.3322 20.4398Z" fill="url(#paint0_linear)"/>
</g>
<defs>
<linearGradient id="paint0_linear" x1="-8.0033e-10" y1="19" x2="115" y2="19" gradientUnits="userSpaceOnUse">
<stop stop-color="#FBC619"/>
<stop offset="0.4375" stop-color="#EC0002"/>
<stop offset="1" stop-color="#B505AF"/>
</linearGradient>
<clipPath id="clip0">
<rect width="112" height="38" fill="white"/>
</clipPath>
</defs>
</svg>
