<svg width="23" height="23" viewBox="0 0 23 23" fill="none" xmlns="http://www.w3.org/2000/svg">
<path d="M8.625 11.5C8.625 9.9122 9.91218 8.62502 11.5 8.62502V7.62502C9.3599 7.62502 7.625 9.35992 7.625 11.5H8.625ZM11.5 14.375C9.91218 14.375 8.625 13.0878 8.625 11.5H7.625C7.625 13.6401 9.3599 15.375 11.5 15.375V14.375ZM14.375 11.5C14.375 13.0878 13.0878 14.375 11.5 14.375V15.375C13.6401 15.375 15.375 13.6401 15.375 11.5H14.375ZM11.5 8.62502C13.0878 8.62502 14.375 9.9122 14.375 11.5H15.375C15.375 9.35992 13.6401 7.62502 11.5 7.62502V8.62502ZM11.5 6.62502C8.80761 6.62502 6.625 8.80763 6.625 11.5H7.625C7.625 9.35992 9.3599 7.62502 11.5 7.62502V6.62502ZM16.375 11.5C16.375 8.80763 14.1924 6.62502 11.5 6.62502V7.62502C13.6401 7.62502 15.375 9.35992 15.375 11.5H16.375ZM11.5 16.375C14.1924 16.375 16.375 14.1924 16.375 11.5H15.375C15.375 13.6401 13.6401 15.375 11.5 15.375V16.375ZM6.625 11.5C6.625 14.1924 8.80761 16.375 11.5 16.375V15.375C9.3599 15.375 7.625 13.6401 7.625 11.5H6.625ZM2.16602 6.33335C2.16602 4.03217 4.0315 2.16669 6.33268 2.16669V1.16669C3.47921 1.16669 1.16602 3.47988 1.16602 6.33335H2.16602ZM2.16602 16.6667V6.33335H1.16602V16.6667H2.16602ZM6.33268 20.8334C4.0315 20.8334 2.16602 18.9679 2.16602 16.6667H1.16602C1.16602 19.5202 3.47921 21.8334 6.33268 21.8334V20.8334ZM16.666 20.8334H6.33268V21.8334H16.666V20.8334ZM20.8327 16.6667C20.8327 18.9679 18.9672 20.8334 16.666 20.8334V21.8334C19.5195 21.8334 21.8327 19.5202 21.8327 16.6667H20.8327ZM20.8327 6.33335V16.6667H21.8327V6.33335H20.8327ZM16.666 2.16669C18.9672 2.16669 20.8327 4.03217 20.8327 6.33335H21.8327C21.8327 3.47988 19.5195 1.16669 16.666 1.16669V2.16669ZM6.33268 2.16669H16.666V1.16669H6.33268V2.16669ZM6.33268 0.166687C2.92693 0.166687 0.166016 2.9276 0.166016 6.33335H1.16602C1.16602 3.47988 3.47921 1.16669 6.33268 1.16669V0.166687ZM16.666 0.166687H6.33268V1.16669H16.666V0.166687ZM22.8327 6.33335C22.8327 2.9276 20.0718 0.166687 16.666 0.166687V1.16669C19.5195 1.16669 21.8327 3.47988 21.8327 6.33335H22.8327ZM22.8327 16.6667V6.33335H21.8327V16.6667H22.8327ZM16.666 22.8334C20.0718 22.8334 22.8327 20.0724 22.8327 16.6667H21.8327C21.8327 19.5202 19.5195 21.8334 16.666 21.8334V22.8334ZM6.33268 22.8334H16.666V21.8334H6.33268V22.8334ZM0.166016 16.6667C0.166016 20.0724 2.92693 22.8334 6.33268 22.8334V21.8334C3.47921 21.8334 1.16602 19.5202 1.16602 16.6667H0.166016ZM0.166016 6.33335V16.6667H1.16602V6.33335H0.166016Z" fill="black"/>
</svg>
