<svg width="84" height="22" viewBox="0 0 84 22" fill="none" xmlns="http://www.w3.org/2000/svg">
<g clip-path="url(#clip0)">
<path d="M61.8848 1.57596C61.8848 0.706038 62.6164 0 63.5184 0H82.3543C83.2566 0 83.9879 0.706038 83.9879 1.57596V20.4243C83.9879 21.2945 83.2566 22 82.3543 22H63.5184C62.6164 22 61.8848 21.2945 61.8848 20.4246V1.57567V1.57596Z" fill="#006699"/>
<path d="M0.0117188 18.4282H9.23596V15.4327H3.35047V4.0054H0.0117188V18.4282ZM13.9061 18.4282V8.49409H10.5677V18.4282H13.9061ZM12.2372 7.13799C13.4012 7.13799 14.1258 6.37511 14.1258 5.42122C14.1042 4.44656 13.4012 3.70532 12.2594 3.70532C11.1173 3.70532 10.3705 4.44685 10.3705 5.42122C10.3705 6.37511 11.0951 7.13799 12.2153 7.13799H12.2372ZM15.4561 18.4282H18.7945V12.8804C18.7945 12.5835 18.8161 12.2866 18.9045 12.0751C19.1455 11.4818 19.6948 10.8673 20.6172 10.8673C21.8255 10.8673 22.3089 11.7785 22.3089 13.1132V18.428H25.6468V12.732C25.6468 9.68053 23.9997 8.26067 21.803 8.26067C20.0022 8.26067 19.2114 9.25639 18.7721 9.93473H18.7945V8.49409H15.4561C15.5001 9.42634 15.4561 18.4282 15.4561 18.4282ZM30.3566 4.0054H27.0182V18.4282H30.3566V15.2074L31.1909 14.1684L33.8048 18.4282H37.9116L33.5195 12.2615L37.3626 8.0662H33.3438C33.3438 8.0662 30.5985 11.8194 30.3566 12.2649V4.0054Z" fill="black"/>
<path d="M46.8386 14.2844C46.8826 14.0293 46.9485 13.54 46.9485 12.9866C46.9485 10.4186 45.6305 7.81145 42.1605 7.81145C38.4486 7.81145 36.7354 10.7149 36.7354 13.3484C36.7354 16.6053 38.822 18.6392 42.4677 18.6392C43.9175 18.6392 45.2568 18.428 46.3555 17.9828L45.9161 15.8021C45.0153 16.0975 44.0929 16.2455 42.9511 16.2455C41.3918 16.2455 40.0304 15.6122 39.9204 14.263L46.8386 14.2838V14.2844ZM39.8985 12.0506C39.9863 11.2029 40.5578 9.95207 41.9852 9.95207C43.5004 9.95207 43.8522 11.2874 43.8522 12.0506H39.8988H39.8985ZM55.1888 4.00542V8.99818H55.1447C54.6614 8.29936 53.6511 7.83309 52.3121 7.83309C49.7421 7.83309 47.48 9.86724 47.5016 13.3423C47.5016 16.5635 49.5446 18.6614 52.0919 18.6614C53.4758 18.6614 54.7932 18.0676 55.4525 16.9233H55.5182L55.6503 18.4283H58.6151C58.5713 17.7289 58.527 16.5211 58.527 15.3344V4.00513H55.1885L55.1888 4.00542ZM55.1888 13.8299C55.1888 14.0839 55.1669 14.3386 55.1226 14.5498C54.9257 15.4616 54.1348 16.0967 53.1683 16.0967C51.785 16.0967 50.8841 14.995 50.8841 13.2575C50.8841 11.6261 51.6534 10.3122 53.1905 10.3122C54.2226 10.3122 54.9472 11.0113 55.145 11.8798C55.1888 12.0711 55.1888 12.2831 55.1888 12.4736V13.8297V13.8299Z" fill="black"/>
<path d="M68.5852 18.4162V8.482H65.2467V18.4162H68.5855H68.5852ZM66.9165 7.1259C68.0805 7.1259 68.8051 6.36302 68.8051 5.40971C68.7832 4.43476 68.0805 3.69324 66.9387 3.69324C65.796 3.69324 65.0498 4.43476 65.0498 5.40971C65.0498 6.36302 65.7741 7.1259 66.8946 7.1259H66.9162H66.9165ZM70.4329 18.4162H73.7711V12.8691C73.7711 12.5725 73.793 12.2753 73.8811 12.0635C74.1223 11.47 74.6716 10.8558 75.5941 10.8558C76.8018 10.8558 77.2852 11.7666 77.2852 13.1023V18.4162H80.6233V12.7202C80.6233 9.66902 78.9766 8.24915 76.7802 8.24915C74.9794 8.24915 74.1885 9.24459 73.7492 9.92264H73.7714V8.48229H70.4332C70.4767 9.41425 70.4329 18.4164 70.4329 18.4164V18.4162Z" fill="white"/>
</g>
<defs>
<clipPath id="clip0">
<rect width="84" height="22" fill="white"/>
</clipPath>
</defs>
</svg>
