<svg width="31" height="31" viewBox="0 0 31 31" fill="none" xmlns="http://www.w3.org/2000/svg">
<path d="M23.2493 5.16669H7.74935C6.32261 5.16669 5.16602 6.32328 5.16602 7.75002V23.25C5.16602 24.6768 6.32261 25.8334 7.74935 25.8334H23.2493C24.6761 25.8334 25.8327 24.6768 25.8327 23.25V7.75002C25.8327 6.32328 24.6761 5.16669 23.2493 5.16669Z" stroke="black" stroke-width="1.75" stroke-linecap="round" stroke-linejoin="round"/>
<path d="M10.334 14.2083V20.6666" stroke="black" stroke-width="2.75" stroke-linecap="round" stroke-linejoin="round"/>
<path d="M10.334 10.3333V10.3462" stroke="black" stroke-width="2.75" stroke-linecap="round" stroke-linejoin="round"/>
<path d="M15.5 20.6666V14.2083" stroke="black" stroke-width="2.75" stroke-linecap="round" stroke-linejoin="round"/>
<path d="M20.6667 20.6666V16.7916C20.6667 16.1065 20.3945 15.4494 19.91 14.965C19.4256 14.4805 18.7685 14.2083 18.0833 14.2083C17.3982 14.2083 16.7411 14.4805 16.2566 14.965C15.7722 15.4494 15.5 16.1065 15.5 16.7916" stroke="black" stroke-width="2.75" stroke-linecap="round" stroke-linejoin="round"/>
</svg>
