<svg width="408" height="67" viewBox="0 0 408 67" fill="none" xmlns="http://www.w3.org/2000/svg">
<path d="M12.72 47.66L12.2307 48.5322L12.2353 48.5347L12.72 47.66ZM4.86 39.98L3.99434 40.4806L3.99792 40.4868L4.00159 40.493L4.86 39.98ZM4.86 17.72L4.00155 17.207L3.99699 17.2148L4.86 17.72ZM12.72 10.04L12.2352 9.16533L12.2308 9.16786L12.72 10.04ZM34.5 10.04L34.0107 10.9122L34.0153 10.9147L34.5 10.04ZM42.3 17.72L41.4324 18.2173L41.437 18.2252L42.3 17.72ZM42.3 39.98L43.163 40.4852L43.1657 40.4806L42.3 39.98ZM34.5 47.66L34.9893 48.5321L34.5 47.66ZM31.68 37.7L30.9406 37.0266L30.9341 37.034L31.68 37.7ZM31.68 19.94L30.9341 20.606L30.9403 20.613L30.9467 20.6199L31.68 19.94ZM15.48 19.88L14.7467 19.2L14.7401 19.2073L15.48 19.88ZM15.48 37.76L14.7341 38.426L14.7403 38.433L14.7467 38.4399L15.48 37.76ZM23.64 49.42C19.842 49.42 16.3699 48.5395 13.2047 46.7853L12.2353 48.5347C15.7101 50.4605 19.518 51.42 23.64 51.42V49.42ZM13.2093 46.7879C10.0841 45.0347 7.59034 42.5996 5.71842 39.467L4.00159 40.493C6.04966 43.9204 8.79591 46.6053 12.2308 48.5321L13.2093 46.7879ZM5.72566 39.4794C3.90018 36.3228 2.98 32.7777 2.98 28.82H0.98C0.98 33.1023 1.97982 36.9972 3.99434 40.4806L5.72566 39.4794ZM2.98 28.82C2.98 24.8622 3.90019 21.3392 5.72301 18.2252L3.99699 17.2148C1.97981 20.6608 0.98 24.5378 0.98 28.82H2.98ZM5.71842 18.233C7.59034 15.1004 10.0841 12.6653 13.2093 10.9121L12.2308 9.16786C8.79591 11.0947 6.04966 13.7796 4.00159 17.207L5.71842 18.233ZM13.2047 10.9147C16.3699 9.16048 19.842 8.28 23.64 8.28V6.28C19.518 6.28 15.7101 7.23952 12.2353 9.16535L13.2047 10.9147ZM23.64 8.28C27.4381 8.28 30.8882 9.16046 34.0108 10.9121L34.9893 9.16786C31.5518 7.23954 27.7619 6.28 23.64 6.28V8.28ZM34.0153 10.9147C37.1763 12.6665 39.6436 15.0963 41.4324 18.2173L43.1676 17.2227C41.1964 13.7837 38.4637 11.0935 34.9848 9.16535L34.0153 10.9147ZM41.437 18.2252C43.2598 21.3392 44.18 24.8622 44.18 28.82H46.18C46.18 24.5378 45.1802 20.6608 43.163 17.2148L41.437 18.2252ZM44.18 28.82C44.18 32.7777 43.2598 36.3228 41.4343 39.4794L43.1657 40.4806C45.1802 36.9972 46.18 33.1023 46.18 28.82H44.18ZM41.437 39.4748C39.6058 42.6032 37.1341 45.0358 34.0107 46.7879L34.9893 48.5321C38.4259 46.6042 41.1542 43.9168 43.163 40.4852L41.437 39.4748ZM34.0108 46.7879C30.8882 48.5395 27.4381 49.42 23.64 49.42V51.42C27.7619 51.42 31.5518 50.4605 34.9893 48.5321L34.0108 46.7879ZM23.64 42.06C27.2471 42.06 30.2125 40.8451 32.4259 38.366L30.9341 37.034C29.1475 39.0349 26.7529 40.06 23.64 40.06V42.06ZM32.4193 38.3733C34.6614 35.9115 35.74 32.6929 35.74 28.82H33.74C33.74 32.3071 32.7786 35.0085 30.9407 37.0267L32.4193 38.3733ZM35.74 28.82C35.74 24.9112 34.6634 21.6867 32.4133 19.2601L30.9467 20.6199C32.7766 22.5933 33.74 25.2888 33.74 28.82H35.74ZM32.4259 19.274C30.2125 16.7949 27.2471 15.58 23.64 15.58V17.58C26.7529 17.58 29.1475 18.6051 30.9341 20.606L32.4259 19.274ZM23.64 15.58C20.0026 15.58 17.0021 16.7678 14.7467 19.2001L16.2133 20.5599C18.0379 18.5922 20.4774 17.58 23.64 17.58V15.58ZM14.7401 19.2073C12.5319 21.6363 11.48 24.8795 11.48 28.82H13.48C13.48 25.2405 14.4281 22.5237 16.2199 20.5527L14.7401 19.2073ZM11.48 28.82C11.48 32.7246 12.5339 35.9618 14.7341 38.426L16.2259 37.094C14.4261 35.0782 13.48 32.3554 13.48 28.82H11.48ZM14.7467 38.4399C17.0021 40.8722 20.0026 42.06 23.64 42.06V40.06C20.4774 40.06 18.0379 39.0478 16.2133 37.0801L14.7467 38.4399ZM86.948 16.52H87.948V15.52H86.948V16.52ZM86.948 50V51H87.948V50H86.948ZM76.688 50H75.688V51H76.688V50ZM76.688 45.44H77.688V42.2776L75.8698 44.8651L76.688 45.44ZM72.428 49.04L72.8752 49.9345L72.8831 49.9304L72.428 49.04ZM59.768 48.68L59.2586 49.5406L59.2652 49.5445L59.2718 49.5482L59.768 48.68ZM55.208 43.7L54.3135 44.1472L55.208 43.7ZM53.588 16.52V15.52H52.588V16.52H53.588ZM63.788 16.52H64.788V15.52H63.788V16.52ZM65.528 39.92L64.7977 40.6032L65.528 39.92ZM76.688 16.52V15.52H75.688V16.52H76.688ZM85.948 16.52V50H87.948V16.52H85.948ZM86.948 49H76.688V51H86.948V49ZM77.688 50V45.44H75.688V50H77.688ZM75.8698 44.8651C74.9339 46.1969 73.6453 47.2948 71.9729 48.1496L72.8831 49.9304C74.8107 48.9452 76.362 47.6431 77.5062 46.0149L75.8698 44.8651ZM71.9808 48.1456C70.3728 48.9496 68.5681 49.36 66.548 49.36V51.36C68.8478 51.36 70.9632 50.8904 72.8752 49.9344L71.9808 48.1456ZM66.548 49.36C64.1383 49.36 62.0537 48.8344 60.2641 47.8118L59.2718 49.5482C61.4023 50.7656 63.8377 51.36 66.548 51.36V49.36ZM60.2773 47.8194C58.4929 46.7633 57.1019 45.2517 56.1024 43.2528L54.3135 44.1472C55.4741 46.4683 57.1231 48.2767 59.2586 49.5406L60.2773 47.8194ZM56.1024 43.2528C55.1049 41.2577 54.588 38.8768 54.588 36.08H52.588C52.588 39.1232 53.1511 41.8223 54.3135 44.1472L56.1024 43.2528ZM54.588 36.08V16.52H52.588V36.08H54.588ZM53.588 17.52H63.788V15.52H53.588V17.52ZM62.788 16.52V34.7H64.788V16.52H62.788ZM62.788 34.7C62.788 37.1106 63.4149 39.125 64.7977 40.6032L66.2582 39.2368C65.321 38.235 64.788 36.7694 64.788 34.7H62.788ZM64.7977 40.6032C66.1765 42.0771 68.018 42.78 70.208 42.78V40.78C68.478 40.78 67.1994 40.2429 66.2582 39.2368L64.7977 40.6032ZM70.208 42.78C72.4312 42.78 74.2954 42.0813 75.6782 40.6032L74.2177 39.2368C73.2805 40.2387 71.9848 40.78 70.208 40.78V42.78ZM75.6782 40.6032C77.061 39.125 77.688 37.1106 77.688 34.7H75.688C75.688 36.7694 75.1549 38.235 74.2177 39.2368L75.6782 40.6032ZM77.688 34.7V16.52H75.688V34.7H77.688ZM76.688 17.52H86.948V15.52H76.688V17.52ZM107.578 22.1H106.578V25.4639L108.415 22.6463L107.578 22.1ZM112.078 17.78L112.578 18.6459L112.585 18.6417L112.592 18.6375L112.078 17.78ZM118.078 16.16H119.078V15.16H118.078V16.16ZM118.078 27.02V28.02H119.078V27.02H118.078ZM109.498 28.7L110.143 29.4643L110.149 29.4585L110.156 29.4526L109.498 28.7ZM107.578 50V51H108.578V50H107.578ZM97.3177 50H96.3177V51H97.3177V50ZM97.3177 16.52V15.52H96.3177V16.52H97.3177ZM107.578 16.52H108.578V15.52H107.578V16.52ZM108.415 22.6463C109.534 20.9301 110.922 19.6028 112.578 18.6459L111.577 16.9141C109.634 18.0372 108.021 19.5899 106.74 21.5537L108.415 22.6463ZM112.592 18.6375C114.229 17.6553 116.05 17.16 118.078 17.16V15.16C115.706 15.16 113.526 15.7447 111.563 16.9225L112.592 18.6375ZM117.078 16.16V27.02H119.078V16.16H117.078ZM118.078 26.02H115.258V28.02H118.078V26.02ZM115.258 26.02C112.574 26.02 110.374 26.6042 108.839 27.9474L110.156 29.4526C111.181 28.5558 112.821 28.02 115.258 28.02V26.02ZM108.853 27.9357C107.236 29.2998 106.578 31.5917 106.578 34.46H108.578C108.578 31.8083 109.199 30.2602 110.143 29.4643L108.853 27.9357ZM106.578 34.46V50H108.578V34.46H106.578ZM107.578 49H97.3177V51H107.578V49ZM98.3177 50V16.52H96.3177V50H98.3177ZM97.3177 17.52H107.578V15.52H97.3177V17.52ZM106.578 16.52V22.1H108.578V16.52H106.578ZM172.117 28.16L172.989 28.6486L172.993 28.6413L172.117 28.16ZM166.957 33.02L166.485 32.1381L166.957 33.02ZM151.957 34.88V33.88H150.957V34.88H151.957ZM151.957 50V51H152.957V50H151.957ZM141.697 50H140.697V51H141.697V50ZM141.697 7.88V6.88H140.697V7.88H141.697ZM166.837 9.62L167.284 8.72557V8.72557L166.837 9.62ZM161.917 17.54L161.225 18.262L161.917 17.54ZM151.957 16.16V15.16H150.957V16.16H151.957ZM151.957 26.72H150.957V27.72H151.957V26.72ZM172.797 21.44C172.797 23.7202 172.275 25.7935 171.24 27.6787L172.993 28.6413C174.198 26.4465 174.797 24.0398 174.797 21.44H172.797ZM171.244 27.6714C170.231 29.4811 168.662 30.9745 166.485 32.1381L167.428 33.9019C169.891 32.5855 171.763 30.8389 172.989 28.6486L171.244 27.6714ZM166.485 32.1381C164.348 33.2804 161.641 33.88 158.317 33.88V35.88C161.872 35.88 164.925 35.2396 167.428 33.9019L166.485 32.1381ZM158.317 33.88H151.957V35.88H158.317V33.88ZM150.957 34.88V50H152.957V34.88H150.957ZM151.957 49H141.697V51H151.957V49ZM142.697 50V7.88H140.697V50H142.697ZM141.697 8.88H158.317V6.88H141.697V8.88ZM158.317 8.88C161.566 8.88 164.243 9.44126 166.389 10.5144L167.284 8.72557C164.79 7.47874 161.788 6.88 158.317 6.88V8.88ZM166.389 10.5144C168.552 11.5955 170.135 13.0645 171.187 14.9143L172.926 13.9257C171.658 11.6955 169.762 9.96447 167.284 8.72557L166.389 10.5144ZM171.187 14.9143C172.251 16.7855 172.797 18.9512 172.797 21.44H174.797C174.797 18.6488 174.182 16.1344 172.926 13.9257L171.187 14.9143ZM157.537 27.72C159.634 27.72 161.39 27.2294 162.608 26.062L161.225 24.618C160.523 25.2906 159.36 25.72 157.537 25.72V27.72ZM162.608 26.062C163.814 24.9065 164.357 23.3165 164.357 21.44H162.357C162.357 22.9235 161.939 23.9335 161.225 24.618L162.608 26.062ZM164.357 21.44C164.357 19.5635 163.814 17.9735 162.608 16.818L161.225 18.262C161.939 18.9465 162.357 19.9565 162.357 21.44H164.357ZM162.608 16.818C161.39 15.6506 159.634 15.16 157.537 15.16V17.16C159.36 17.16 160.523 17.5894 161.225 18.262L162.608 16.818ZM157.537 15.16H151.957V17.16H157.537V15.16ZM150.957 16.16V26.72H152.957V16.16H150.957ZM151.957 27.72H157.537V25.72H151.957V27.72ZM192.398 22.1H191.398V25.4639L193.236 22.6463L192.398 22.1ZM196.898 17.78L197.398 18.6459L197.405 18.6417L197.412 18.6375L196.898 17.78ZM202.898 16.16H203.898V15.16H202.898V16.16ZM202.898 27.02V28.02H203.898V27.02H202.898ZM194.318 28.7L194.963 29.4643L194.97 29.4585L194.976 29.4526L194.318 28.7ZM192.398 50V51H193.398V50H192.398ZM182.138 50H181.138V51H182.138V50ZM182.138 16.52V15.52H181.138V16.52H182.138ZM192.398 16.52H193.398V15.52H192.398V16.52ZM193.236 22.6463C194.355 20.9301 195.742 19.6028 197.398 18.6459L196.398 16.9141C194.454 18.0372 192.841 19.5899 191.56 21.5537L193.236 22.6463ZM197.412 18.6375C199.049 17.6553 200.87 17.16 202.898 17.16V15.16C200.526 15.16 198.347 15.7447 196.383 16.9225L197.412 18.6375ZM201.898 16.16V27.02H203.898V16.16H201.898ZM202.898 26.02H200.078V28.02H202.898V26.02ZM200.078 26.02C197.394 26.02 195.195 26.6042 193.659 27.9474L194.976 29.4526C196.001 28.5558 197.642 28.02 200.078 28.02V26.02ZM193.673 27.9357C192.056 29.2998 191.398 31.5917 191.398 34.46H193.398C193.398 31.8083 194.02 30.2602 194.963 29.4643L193.673 27.9357ZM191.398 34.46V50H193.398V34.46H191.398ZM192.398 49H182.138V51H192.398V49ZM183.138 50V16.52H181.138V50H183.138ZM182.138 17.52H192.398V15.52H182.138V17.52ZM191.398 16.52V22.1H193.398V16.52H191.398ZM217.162 48.38L216.688 49.2605L216.694 49.2635L217.162 48.38ZM210.982 42.38L210.113 42.8747L210.119 42.8847L210.982 42.38ZM211.042 24.2L211.905 24.7047L211.909 24.699L211.042 24.2ZM217.282 18.14L217.751 19.0235L217.282 18.14ZM235.042 18.14L234.574 19.0235L235.042 18.14ZM241.282 24.2L240.415 24.699L240.419 24.7047L241.282 24.2ZM241.222 42.38L240.361 41.8713L240.359 41.8753L241.222 42.38ZM234.922 48.38L234.459 47.4936L234.454 47.4965L234.922 48.38ZM231.022 39.44L230.305 38.7429L230.3 38.7481L230.295 38.7534L231.022 39.44ZM231.082 27.08L230.345 27.7557L230.35 27.7612L230.355 27.7666L231.082 27.08ZM221.182 27.08L221.91 27.7661L221.919 27.7557L221.182 27.08ZM221.122 39.44L220.375 40.1044L220.38 40.1101L220.385 40.1157L221.122 39.44ZM226.042 49.48C222.909 49.48 220.113 48.8127 217.631 47.4965L216.694 49.2635C219.492 50.7473 222.615 51.48 226.042 51.48V49.48ZM217.636 47.4995C215.201 46.1885 213.275 44.32 211.845 41.8753L210.119 42.8847C211.73 45.64 213.923 47.7715 216.688 49.2605L217.636 47.4995ZM211.851 41.8853C210.47 39.4591 209.762 36.5951 209.762 33.26H207.762C207.762 36.8849 208.534 40.1009 210.113 42.8747L211.851 41.8853ZM209.762 33.26C209.762 29.9717 210.487 27.1308 211.905 24.7047L210.179 23.6953C208.557 26.4692 207.762 29.6683 207.762 33.26H209.762ZM211.909 24.699C213.337 22.2187 215.28 20.3335 217.751 19.0235L216.814 17.2565C214.004 18.7465 211.787 20.9013 210.175 23.701L211.909 24.699ZM217.751 19.0235C220.232 17.7073 223.029 17.04 226.162 17.04V15.04C222.735 15.04 219.612 15.7727 216.814 17.2565L217.751 19.0235ZM226.162 17.04C229.295 17.04 232.092 17.7073 234.574 19.0235L235.511 17.2565C232.713 15.7727 229.589 15.04 226.162 15.04V17.04ZM234.574 19.0235C237.044 20.3335 238.987 22.2187 240.415 24.699L242.149 23.701C240.537 20.9013 238.32 18.7465 235.511 17.2565L234.574 19.0235ZM240.419 24.7047C241.837 27.1308 242.562 29.9717 242.562 33.26H244.562C244.562 29.6683 243.767 26.4692 242.145 23.6953L240.419 24.7047ZM242.562 33.26C242.562 36.5433 241.819 39.4035 240.361 41.8713L242.083 42.8887C243.745 40.0765 244.562 36.8567 244.562 33.26H242.562ZM240.359 41.8753C238.934 44.3123 236.973 46.1803 234.459 47.4937L235.385 49.2663C238.231 47.7797 240.47 45.6477 242.085 42.8847L240.359 41.8753ZM234.454 47.4965C231.972 48.8127 229.175 49.48 226.042 49.48V51.48C229.469 51.48 232.592 50.7473 235.391 49.2635L234.454 47.4965ZM226.042 42.6C228.28 42.6 230.202 41.7642 231.749 40.1266L230.295 38.7534C229.122 39.9958 227.724 40.6 226.042 40.6V42.6ZM231.739 40.1371C233.375 38.4548 234.122 36.1108 234.122 33.26H232.122C232.122 35.7692 231.469 37.5452 230.305 38.7429L231.739 40.1371ZM234.122 33.26C234.122 30.4165 233.399 28.0765 231.809 26.3934L230.355 27.7666C231.485 28.9635 232.122 30.7435 232.122 33.26H234.122ZM231.819 26.4043C230.309 24.7569 228.401 23.92 226.162 23.92V25.92C227.843 25.92 229.215 26.5231 230.345 27.7557L231.819 26.4043ZM226.162 23.92C223.889 23.92 221.959 24.7521 220.445 26.4043L221.919 27.7557C223.045 26.5279 224.435 25.92 226.162 25.92V23.92ZM220.454 26.394C218.898 28.0444 218.202 30.3907 218.202 33.26H220.202C220.202 30.6893 220.826 28.9156 221.91 27.766L220.454 26.394ZM218.202 33.26C218.202 36.0892 218.878 38.4206 220.375 40.1044L221.869 38.7756C220.806 37.5794 220.202 35.7908 220.202 33.26H218.202ZM220.385 40.1157C221.895 41.7631 223.803 42.6 226.042 42.6V40.6C224.361 40.6 222.989 39.9969 221.859 38.7643L220.385 40.1157ZM252.665 11.48L251.971 12.1998L251.984 12.2124L251.998 12.2246L252.665 11.48ZM252.665 3.56L253.346 4.29279L253.347 4.29189L252.665 3.56ZM261.425 3.56L260.731 4.27984L260.744 4.29245L260.758 4.30457L261.425 3.56ZM261.425 11.48L262.106 12.2128L262.107 12.2119L261.425 11.48ZM259.145 63.2L258.491 62.4438L258.483 62.451L259.145 63.2ZM246.425 65.96H245.425V66.96H246.425V65.96ZM246.425 57.26V56.26H245.425V57.26H246.425ZM251.285 56.6L250.609 55.8628L251.285 56.6ZM252.005 16.52V15.52H251.005V16.52H252.005ZM262.265 16.52H263.265V15.52H262.265V16.52ZM257.105 12.04C255.511 12.04 254.281 11.5856 253.333 10.7354L251.998 12.2246C253.369 13.4544 255.1 14.04 257.105 14.04V12.04ZM253.359 10.7602C252.435 9.86919 251.985 8.80929 251.985 7.52H249.985C249.985 9.35071 250.655 10.9308 251.971 12.1998L253.359 10.7602ZM251.985 7.52C251.985 6.18338 252.44 5.13381 253.346 4.29279L251.985 2.8272C250.65 4.06618 249.985 5.65661 249.985 7.52H251.985ZM253.347 4.29189C254.296 3.40782 255.521 2.94 257.105 2.94V0.939997C255.089 0.939997 253.354 1.55217 251.984 2.8281L253.347 4.29189ZM257.105 2.94C258.643 2.94 259.822 3.40359 260.731 4.27984L262.119 2.84015C260.788 1.5564 259.087 0.939997 257.105 0.939997V2.94ZM260.758 4.30457C261.7 5.14913 262.165 6.19541 262.165 7.52H264.165C264.165 5.64459 263.471 4.05087 262.093 2.81543L260.758 4.30457ZM262.165 7.52C262.165 8.79739 261.704 9.85384 260.744 10.7481L262.107 12.2119C263.466 10.9462 264.165 9.36261 264.165 7.52H262.165ZM260.745 10.7472C259.838 11.5895 258.654 12.04 257.105 12.04V14.04C259.077 14.04 260.773 13.4505 262.106 12.2128L260.745 10.7472ZM261.265 54.32C261.265 58.2959 260.261 60.9122 258.491 62.4438L259.8 63.9562C262.19 61.8879 263.265 58.5841 263.265 54.32H261.265ZM258.483 62.451C256.64 64.0812 254.005 64.96 250.445 64.96V66.96C254.325 66.96 257.491 65.9988 259.808 63.949L258.483 62.451ZM250.445 64.96H246.425V66.96H250.445V64.96ZM247.425 65.96V57.26H245.425V65.96H247.425ZM246.425 58.26H248.885V56.26H246.425V58.26ZM248.885 58.26C250.089 58.26 251.203 58.0322 251.961 57.3372L250.609 55.8628C250.408 56.0478 249.921 56.26 248.885 56.26V58.26ZM251.961 57.3372C252.736 56.6263 253.005 55.5713 253.005 54.44H251.005C251.005 55.3087 250.794 55.6937 250.609 55.8628L251.961 57.3372ZM253.005 54.44V16.52H251.005V54.44H253.005ZM252.005 17.52H262.265V15.52H252.005V17.52ZM261.265 16.52V54.32H263.265V16.52H261.265ZM304.022 35.72V36.72H304.913L305.015 35.8346L304.022 35.72ZM280.802 35.72V34.72H279.722L279.805 35.7967L280.802 35.72ZM282.782 40.52L282.087 41.2394L282.1 41.2516L282.113 41.2633L282.782 40.52ZM292.502 38.9V37.9H291.863L291.594 38.4799L292.502 38.9ZM303.422 38.9L304.391 39.1467L304.708 37.9H303.422V38.9ZM300.362 44.84L299.596 44.1963L299.588 44.2068L300.362 44.84ZM294.902 48.98L295.316 49.8904L294.902 48.98ZM278.762 48.38L278.282 49.2574L278.762 48.38ZM272.762 42.38L273.637 41.8955L272.762 42.38ZM272.702 24.14L271.827 23.6555L271.821 23.6659L272.702 24.14ZM278.702 18.14L279.182 19.0174V19.0174L278.702 18.14ZM296.162 18.08L295.687 18.96V18.96L296.162 18.08ZM302.042 23.9L301.168 24.3857L301.174 24.3961L302.042 23.9ZM293.702 30.02V31.02H294.702V30.02H293.702ZM291.902 25.82L292.557 25.0643L291.902 25.82ZM283.022 25.76L282.382 24.9918L282.375 24.9971L282.369 25.0026L283.022 25.76ZM280.862 30.02L279.873 29.8696L279.698 31.02H280.862V30.02ZM303.202 32.72C303.202 33.6384 303.144 34.6001 303.028 35.6054L305.015 35.8346C305.139 34.7599 305.202 33.7216 305.202 32.72H303.202ZM304.022 34.72H280.802V36.72H304.022V34.72ZM279.805 35.7967C279.978 38.0472 280.705 39.9043 282.087 41.2394L283.476 39.8006C282.539 38.8957 281.946 37.5528 281.799 35.6433L279.805 35.7967ZM282.113 41.2633C283.509 42.52 285.212 43.14 287.162 43.14V41.14C285.671 41.14 284.455 40.68 283.451 39.7767L282.113 41.2633ZM287.162 43.14C288.583 43.14 289.857 42.8394 290.936 42.1849C292.019 41.5276 292.838 40.5538 293.409 39.3201L291.594 38.4799C291.166 39.4062 290.595 40.0524 289.898 40.4751C289.197 40.9006 288.301 41.14 287.162 41.14V43.14ZM292.502 39.9H303.422V37.9H292.502V39.9ZM302.453 38.6533C301.93 40.7054 300.981 42.5501 299.597 44.1964L301.127 45.4836C302.703 43.6099 303.793 41.4946 304.391 39.1467L302.453 38.6533ZM299.588 44.2068C298.251 45.8406 296.557 47.1291 294.488 48.0696L295.316 49.8904C297.646 48.8309 299.593 47.3594 301.136 45.4732L299.588 44.2068ZM294.488 48.0696C292.433 49.0036 290.117 49.48 287.522 49.48V51.48C290.367 51.48 292.97 50.9564 295.316 49.8904L294.488 48.0696ZM287.522 49.48C284.388 49.48 281.637 48.8126 279.242 47.5026L278.282 49.2574C281.007 50.7474 284.095 51.48 287.522 51.48V49.48ZM279.242 47.5026C276.851 46.1953 274.987 44.333 273.637 41.8955L271.887 42.8645C273.417 45.627 275.553 47.7647 278.282 49.2574L279.242 47.5026ZM273.637 41.8955C272.292 39.4673 271.602 36.5996 271.602 33.26H269.602C269.602 36.8804 270.352 40.0927 271.887 42.8645L273.637 41.8955ZM271.602 33.26C271.602 29.9159 272.274 27.0444 273.582 24.6141L271.821 23.6659C270.33 26.4356 269.602 29.6441 269.602 33.26H271.602ZM273.577 24.6245C274.927 22.187 276.791 20.3247 279.182 19.0174L278.222 17.2626C275.493 18.7553 273.357 20.893 271.827 23.6555L273.577 24.6245ZM279.182 19.0174C281.575 17.7084 284.346 17.04 287.522 17.04V15.04C284.058 15.04 280.948 15.7716 278.222 17.2626L279.182 19.0174ZM287.522 17.04C290.618 17.04 293.331 17.6886 295.687 18.96L296.637 17.2C293.953 15.7514 290.906 15.04 287.522 15.04V17.04ZM295.687 18.96C298.038 20.2287 299.86 22.0313 301.168 24.3856L302.916 23.4144C301.424 20.7287 299.326 18.6513 296.637 17.2L295.687 18.96ZM301.174 24.3961C302.514 26.7427 303.202 29.5063 303.202 32.72H305.202C305.202 29.2137 304.449 26.0973 302.91 23.4039L301.174 24.3961ZM294.702 30.02C294.702 28.0053 294.001 26.3162 292.557 25.0643L291.247 26.5757C292.202 27.4038 292.702 28.5147 292.702 30.02H294.702ZM292.557 25.0643C291.151 23.8457 289.408 23.26 287.402 23.26V25.26C288.996 25.26 290.253 25.7143 291.247 26.5757L292.557 25.0643ZM287.402 23.26C285.473 23.26 283.78 23.8266 282.382 24.9918L283.662 26.5282C284.664 25.6934 285.891 25.26 287.402 25.26V23.26ZM282.369 25.0026C280.991 26.1901 280.181 27.8466 279.873 29.8696L281.85 30.1704C282.103 28.5134 282.732 27.3299 283.675 26.5174L282.369 25.0026ZM280.862 31.02H293.702V29.02H280.862V31.02ZM312.675 24.14L311.8 23.6555L311.794 23.6659L312.675 24.14ZM318.615 18.14L318.135 17.2626L318.129 17.2658L318.615 18.14ZM337.875 19.34L337.257 20.1263L337.262 20.1305L337.875 19.34ZM343.455 28.64V29.64H344.698L344.431 28.4251L343.455 28.64ZM332.535 28.64L331.593 28.9782L331.831 29.64H332.535V28.64ZM322.695 27.02L323.484 27.634L323.492 27.6234L322.695 27.02ZM322.695 39.56L321.897 40.1635L321.905 40.1739L322.695 39.56ZM332.535 37.88V36.88H331.831L331.593 37.5418L332.535 37.88ZM343.455 37.88L344.43 38.099L344.704 36.88H343.455V37.88ZM337.875 47.12L337.255 46.3348L337.875 47.12ZM318.615 48.38L318.129 49.2542L318.135 49.2574L318.615 48.38ZM312.675 42.38L311.794 42.8541L311.8 42.8645L312.675 42.38ZM311.575 33.26C311.575 29.9159 312.246 27.0444 313.555 24.6141L311.794 23.6659C310.303 26.4356 309.575 29.6441 309.575 33.26H311.575ZM313.549 24.6245C314.902 22.1829 316.749 20.3203 319.1 19.0142L318.129 17.2658C315.44 18.7597 313.327 20.8971 311.8 23.6555L313.549 24.6245ZM319.094 19.0174C321.49 17.7074 324.241 17.04 327.375 17.04V15.04C323.948 15.04 320.859 15.7726 318.135 17.2626L319.094 19.0174ZM327.375 17.04C331.392 17.04 334.663 18.0885 337.257 20.1263L338.492 18.5537C335.486 16.1915 331.757 15.04 327.375 15.04V17.04ZM337.262 20.1305C339.891 22.1673 341.641 25.0496 342.478 28.8549L344.431 28.4251C343.508 24.2304 341.538 20.9127 338.487 18.5494L337.262 20.1305ZM343.455 27.64H332.535V29.64H343.455V27.64ZM333.476 28.3018C332.964 26.8776 332.183 25.732 331.093 24.9481C330.001 24.1625 328.68 23.8 327.195 23.8V25.8C328.349 25.8 329.238 26.0775 329.926 26.5719C330.616 27.068 331.185 27.8424 331.593 28.9782L333.476 28.3018ZM327.195 23.8C325.006 23.8 323.209 24.683 321.897 26.4166L323.492 27.6234C324.42 26.397 325.623 25.8 327.195 25.8V23.8ZM321.905 26.4061C320.596 28.0893 320.015 30.4221 320.015 33.26H322.015C322.015 30.6579 322.553 28.8307 323.484 27.6339L321.905 26.4061ZM320.015 33.26C320.015 36.1005 320.597 38.4455 321.897 40.1634L323.492 38.9566C322.552 37.7145 322.015 35.8595 322.015 33.26H320.015ZM321.905 40.1739C323.221 41.8661 325.017 42.72 327.195 42.72V40.72C325.612 40.72 324.408 40.1339 323.484 38.9461L321.905 40.1739ZM327.195 42.72C328.68 42.72 330.001 42.3575 331.093 41.5719C332.183 40.788 332.964 39.6424 333.476 38.2182L331.593 37.5418C331.185 38.6776 330.616 39.452 329.926 39.9481C329.238 40.4425 328.349 40.72 327.195 40.72V42.72ZM332.535 38.88H343.455V36.88H332.535V38.88ZM342.479 37.661C341.643 41.3833 339.895 44.2529 337.255 46.3348L338.494 47.9052C341.534 45.5071 343.506 42.2167 344.43 38.099L342.479 37.661ZM337.255 46.3348C334.618 48.4153 331.345 49.48 327.375 49.48V51.48C331.724 51.48 335.452 50.3047 338.494 47.9052L337.255 46.3348ZM327.375 49.48C324.241 49.48 321.49 48.8126 319.094 47.5026L318.135 49.2574C320.859 50.7474 323.948 51.48 327.375 51.48V49.48ZM319.1 47.5058C316.749 46.1997 314.902 44.3371 313.549 41.8955L311.8 42.8645C313.327 45.6229 315.44 47.7603 318.129 49.2542L319.1 47.5058ZM313.555 41.9059C312.246 39.4756 311.575 36.6041 311.575 33.26H309.575C309.575 36.8759 310.303 40.0844 311.794 42.8541L313.555 41.9059ZM370.603 41.3H371.603V40.3H370.603V41.3ZM370.603 50V51H371.603V50H370.603ZM356.683 47.3L356.02 48.049L356.028 48.0562L356.683 47.3ZM353.563 25.04H354.563V24.04H353.563V25.04ZM349.483 25.04H348.483V26.04H349.483V25.04ZM349.483 16.52V15.52H348.483V16.52H349.483ZM353.563 16.52V17.52H354.563V16.52H353.563ZM353.563 8.36V7.36H352.563V8.36H353.563ZM363.823 8.36H364.823V7.36H363.823V8.36ZM363.823 16.52H362.823V17.52H363.823V16.52ZM370.543 16.52H371.543V15.52H370.543V16.52ZM370.543 25.04V26.04H371.543V25.04H370.543ZM363.823 25.04V24.04H362.823V25.04H363.823ZM364.543 40.64L363.867 41.3772L364.543 40.64ZM369.603 41.3V50H371.603V41.3H369.603ZM370.603 49H365.383V51H370.603V49ZM365.383 49C361.818 49 359.18 48.1386 357.337 46.5438L356.028 48.0562C358.345 50.0614 361.508 51 365.383 51V49ZM357.345 46.551C355.566 44.9773 354.563 42.3337 354.563 38.36H352.563C352.563 42.6263 353.639 45.9427 356.02 48.049L357.345 46.551ZM354.563 38.36V25.04H352.563V38.36H354.563ZM353.563 24.04H349.483V26.04H353.563V24.04ZM350.483 25.04V16.52H348.483V25.04H350.483ZM349.483 17.52H353.563V15.52H349.483V17.52ZM354.563 16.52V8.36H352.563V16.52H354.563ZM353.563 9.36H363.823V7.36H353.563V9.36ZM362.823 8.36V16.52H364.823V8.36H362.823ZM363.823 17.52H370.543V15.52H363.823V17.52ZM369.543 16.52V25.04H371.543V16.52H369.543ZM370.543 24.04H363.823V26.04H370.543V24.04ZM362.823 25.04V38.48H364.823V25.04H362.823ZM362.823 38.48C362.823 39.6113 363.091 40.6663 363.867 41.3772L365.218 39.9028C365.034 39.7337 364.823 39.3487 364.823 38.48H362.823ZM363.867 41.3772C364.625 42.0722 365.738 42.3 366.943 42.3V40.3C365.907 40.3 365.42 40.0878 365.218 39.9028L363.867 41.3772ZM366.943 42.3H370.603V40.3H366.943V42.3ZM385.138 48.98L385.539 48.0642L385.138 48.98ZM379.738 44.9L378.938 45.5L378.944 45.5088L379.738 44.9ZM377.518 39.02V38.02H376.441L376.52 39.0939L377.518 39.02ZM387.658 39.02L388.652 38.9171L388.56 38.02H387.658V39.02ZM389.278 41.84L389.878 41.04L389.278 41.84ZM395.758 42.2L396.334 43.017L396.343 43.0107L395.758 42.2ZM395.338 38.12L394.905 39.0215L394.92 39.0287L394.935 39.0353L395.338 38.12ZM390.478 36.56L390.72 35.5899L390.713 35.5879L390.705 35.5862L390.478 36.56ZM384.478 34.82L384.106 35.7485L384.116 35.7525L384.127 35.7563L384.478 34.82ZM380.338 31.88L379.577 32.5289L379.582 32.5346L379.586 32.5401L380.338 31.88ZM380.158 21.2L379.329 20.6405L379.326 20.6453L380.158 21.2ZM384.838 17.42L384.433 16.5054L384.427 16.5084L384.838 17.42ZM402.118 19.16L401.463 19.9157L401.469 19.921L402.118 19.16ZM406.318 27.44V28.44H407.428L407.312 27.3359L406.318 27.44ZM396.838 27.44L395.847 27.5766L395.966 28.44H396.838V27.44ZM395.278 24.68L394.648 25.4572L394.657 25.4644L394.666 25.4713L395.278 24.68ZM389.158 24.38L389.724 25.204L389.741 25.1924L389.758 25.18L389.158 24.38ZM389.698 28.4L389.265 29.3015L389.272 29.3048L389.279 29.308L389.698 28.4ZM394.498 29.84L394.748 28.8717L394.731 28.8675L394.715 28.8638L394.498 29.84ZM400.558 31.76L400.178 32.6852L400.188 32.6894L400.199 32.6933L400.558 31.76ZM404.638 34.76L403.868 35.398L403.878 35.41L403.888 35.4216L404.638 34.76ZM406.498 40.28H407.498V40.2714L407.497 40.2628L406.498 40.28ZM404.818 45.56L404.005 44.9768L404.002 44.9808L404.818 45.56ZM400.078 49.16L399.688 48.239L399.682 48.2418L400.078 49.16ZM392.938 49.48C390.132 49.48 387.673 48.9999 385.539 48.0642L384.736 49.8958C387.163 50.9601 389.903 51.48 392.938 51.48V49.48ZM385.539 48.0642C383.391 47.1218 381.734 45.8588 380.531 44.2912L378.944 45.5088C380.381 47.3812 382.325 48.8382 384.736 49.8958L385.539 48.0642ZM380.538 44.3C379.33 42.6904 378.661 40.9123 378.515 38.9461L376.52 39.0939C376.695 41.4477 377.505 43.5896 378.938 45.5L380.538 44.3ZM377.518 40.02H387.658V38.02H377.518V40.02ZM386.663 39.1229C386.813 40.5691 387.502 41.7583 388.678 42.64L389.878 41.04C389.133 40.4817 388.743 39.7909 388.652 38.9171L386.663 39.1229ZM388.678 42.64C389.838 43.5106 391.239 43.92 392.818 43.92V41.92C391.597 41.92 390.637 41.6094 389.878 41.04L388.678 42.64ZM392.818 43.92C394.2 43.92 395.417 43.6645 396.334 43.017L395.181 41.383C394.738 41.6955 393.995 41.92 392.818 41.92V43.92ZM396.343 43.0107C397.29 42.3267 397.838 41.38 397.838 40.22H395.838C395.838 40.66 395.665 41.0333 395.172 41.3893L396.343 43.0107ZM397.838 40.22C397.838 39.5568 397.661 38.9328 397.276 38.3938C396.897 37.8629 396.361 37.4778 395.74 37.2047L394.935 39.0353C395.314 39.2022 395.528 39.3871 395.649 39.5562C395.764 39.7172 395.838 39.9232 395.838 40.22H397.838ZM395.77 37.2185C394.674 36.6922 392.971 36.1526 390.72 35.5899L390.235 37.5301C392.464 38.0874 394.001 38.5878 394.905 39.0215L395.77 37.2185ZM390.705 35.5862C388.33 35.0321 386.375 34.4635 384.829 33.8837L384.127 35.7563C385.78 36.3765 387.825 36.9679 390.25 37.5338L390.705 35.5862ZM384.849 33.8915C383.398 33.3111 382.147 32.4242 381.089 31.2199L379.586 32.5401C380.848 33.9757 382.357 35.0489 384.106 35.7485L384.849 33.8915ZM381.098 31.2311C380.131 30.0973 379.598 28.5293 379.598 26.42H377.598C377.598 28.8707 378.224 30.9427 379.577 32.5289L381.098 31.2311ZM379.598 26.42C379.598 24.6924 380.062 23.1463 380.99 21.7547L379.326 20.6453C378.173 22.3737 377.598 24.3076 377.598 26.42H379.598ZM380.987 21.7595C381.947 20.3365 383.351 19.1876 385.249 18.3316L384.427 16.5084C382.245 17.4924 380.528 18.8635 379.329 20.6405L380.987 21.7595ZM385.242 18.3345C387.167 17.4831 389.483 17.04 392.218 17.04V15.04C389.272 15.04 386.668 15.5169 384.433 16.5055L385.242 18.3345ZM392.218 17.04C396.256 17.04 399.296 18.0381 401.463 19.9157L402.773 18.4043C400.139 16.1219 396.58 15.04 392.218 15.04V17.04ZM401.469 19.921C403.697 21.8207 404.987 24.3373 405.323 27.5441L407.312 27.3359C406.928 23.6627 405.418 20.6593 402.766 18.399L401.469 19.921ZM406.318 26.44H396.838V28.44H406.318V26.44ZM397.828 27.3034C397.635 25.8991 396.988 24.738 395.889 23.8887L394.666 25.4713C395.327 25.982 395.721 26.6609 395.847 27.5766L397.828 27.3034ZM395.907 23.9028C394.842 23.0407 393.478 22.66 391.918 22.66V24.66C393.157 24.66 394.033 24.9593 394.648 25.4572L395.907 23.9028ZM391.918 22.66C390.604 22.66 389.438 22.9197 388.558 23.58L389.758 25.18C390.157 24.8803 390.831 24.66 391.918 24.66V22.66ZM388.591 23.556C387.67 24.1891 387.198 25.1225 387.198 26.24H389.198C389.198 25.7575 389.365 25.4509 389.724 25.204L388.591 23.556ZM387.198 26.24C387.198 26.9036 387.374 27.527 387.751 28.0704C388.123 28.6055 388.65 29.0062 389.265 29.3015L390.13 27.4985C389.746 27.3138 389.522 27.1145 389.394 26.9296C389.271 26.753 389.198 26.5364 389.198 26.24H387.198ZM389.279 29.308C390.418 29.834 392.103 30.3322 394.281 30.8162L394.715 28.8638C392.573 28.3878 391.057 27.926 390.117 27.492L389.279 29.308ZM394.248 30.8083C396.704 31.4421 398.676 32.0689 400.178 32.6852L400.937 30.8348C399.319 30.1711 397.252 29.5179 394.748 28.8717L394.248 30.8083ZM400.199 32.6933C401.585 33.2265 402.807 34.1182 403.868 35.398L405.408 34.122C404.148 32.6018 402.651 31.4935 400.917 30.8267L400.199 32.6933ZM403.888 35.4216C404.891 36.5583 405.461 38.1469 405.498 40.2972L407.497 40.2628C407.455 37.7731 406.785 35.6817 405.387 34.0984L403.888 35.4216ZM405.498 40.28C405.498 42.0354 405.001 43.5905 404.005 44.9768L405.63 46.1432C406.875 44.4095 407.498 42.4446 407.498 40.28H405.498ZM404.002 44.9808C403.051 46.3205 401.633 47.416 399.688 48.239L400.467 50.081C402.682 49.144 404.425 47.8395 405.633 46.1392L404.002 44.9808ZM399.682 48.2418C397.791 49.0572 395.551 49.48 392.938 49.48V51.48C395.764 51.48 398.284 51.0228 400.474 50.0782L399.682 48.2418Z" fill="#8DDE9F"/>
</svg>
