<svg width="369" height="67" viewBox="0 0 369 67" fill="none" xmlns="http://www.w3.org/2000/svg">
<path d="M32.14 28.16L33.0125 28.6486L33.0166 28.6413L32.14 28.16ZM26.98 33.02L26.5086 32.1381L26.98 33.02ZM11.98 34.88V33.88H10.98V34.88H11.98ZM11.98 50V51H12.98V50H11.98ZM1.72 50H0.72V51H1.72V50ZM1.72 7.88V6.88H0.72V7.88H1.72ZM26.86 9.62L27.3072 8.72557V8.72557L26.86 9.62ZM21.94 17.54L21.2481 18.262L21.94 17.54ZM11.98 16.16V15.16H10.98V16.16H11.98ZM11.98 26.72H10.98V27.72H11.98V26.72ZM32.82 21.44C32.82 23.7202 32.2985 25.7935 31.2634 27.6787L33.0166 28.6413C34.2215 26.4465 34.82 24.0398 34.82 21.44H32.82ZM31.2675 27.6714C30.2541 29.4811 28.6856 30.9745 26.5086 32.1381L27.4514 33.9019C29.9144 32.5855 31.7859 30.8389 33.0125 28.6486L31.2675 27.6714ZM26.5086 32.1381C24.3714 33.2804 21.6645 33.88 18.34 33.88V35.88C21.8955 35.88 24.9486 35.2396 27.4514 33.9019L26.5086 32.1381ZM18.34 33.88H11.98V35.88H18.34V33.88ZM10.98 34.88V50H12.98V34.88H10.98ZM11.98 49H1.72V51H11.98V49ZM2.72 50V7.88H0.72V50H2.72ZM1.72 8.88H18.34V6.88H1.72V8.88ZM18.34 8.88C21.589 8.88 24.2665 9.44126 26.4128 10.5144L27.3072 8.72557C24.8135 7.47874 21.811 6.88 18.34 6.88V8.88ZM26.4128 10.5144C28.575 11.5955 30.1589 13.0645 31.2107 14.9143L32.9493 13.9257C31.6811 11.6955 29.785 9.96447 27.3072 8.72557L26.4128 10.5144ZM31.2107 14.9143C32.2748 16.7855 32.82 18.9512 32.82 21.44H34.82C34.82 18.6488 34.2052 16.1344 32.9493 13.9257L31.2107 14.9143ZM17.56 27.72C19.657 27.72 21.4137 27.2294 22.6319 26.062L21.2481 24.618C20.5463 25.2906 19.383 25.72 17.56 25.72V27.72ZM22.6319 26.062C23.8376 24.9065 24.38 23.3165 24.38 21.44H22.38C22.38 22.9235 21.9624 23.9335 21.2481 24.618L22.6319 26.062ZM24.38 21.44C24.38 19.5635 23.8376 17.9735 22.6319 16.818L21.2481 18.262C21.9624 18.9465 22.38 19.9565 22.38 21.44H24.38ZM22.6319 16.818C21.4137 15.6506 19.657 15.16 17.56 15.16V17.16C19.383 17.16 20.5463 17.5894 21.2481 18.262L22.6319 16.818ZM17.56 15.16H11.98V17.16H17.56V15.16ZM10.98 16.16V26.72H12.98V16.16H10.98ZM11.98 27.72H17.56V25.72H11.98V27.72ZM71.9814 20L71.2404 20.6715L71.2457 20.6773L71.9814 20ZM75.4614 50V51H76.4614V50H75.4614ZM65.2614 50H64.2614V51H65.2614V50ZM63.5214 26.6L62.7911 27.2832V27.2832L63.5214 26.6ZM54.1614 26.6L54.8917 27.2832V27.2832L54.1614 26.6ZM52.4214 50V51H53.4214V50H52.4214ZM42.1614 50H41.1614V51H42.1614V50ZM42.1614 5.6V4.6H41.1614V5.6H42.1614ZM52.4214 5.6H53.4214V4.6H52.4214V5.6ZM52.4214 21.02H51.4214V24.1824L53.2396 21.5949L52.4214 21.02ZM56.6814 17.48L56.2422 16.5816V16.5816L56.6814 17.48ZM62.7414 17.16C66.3342 17.16 69.1323 18.3453 71.2404 20.6715L72.7224 19.3285C70.1905 16.5347 66.8287 15.16 62.7414 15.16V17.16ZM71.2457 20.6773C73.3502 22.9632 74.4614 26.1743 74.4614 30.44H76.4614C76.4614 25.8257 75.2527 22.0768 72.7171 19.3227L71.2457 20.6773ZM74.4614 30.44V50H76.4614V30.44H74.4614ZM75.4614 49H65.2614V51H75.4614V49ZM66.2614 50V31.82H64.2614V50H66.2614ZM66.2614 31.82C66.2614 29.4094 65.6345 27.395 64.2517 25.9168L62.7911 27.2832C63.7283 28.285 64.2614 29.7506 64.2614 31.82H66.2614ZM64.2517 25.9168C62.8729 24.4429 61.0314 23.74 58.8414 23.74V25.74C60.5714 25.74 61.85 26.2771 62.7911 27.2832L64.2517 25.9168ZM58.8414 23.74C56.6514 23.74 54.81 24.4429 53.4311 25.9168L54.8917 27.2832C55.8329 26.2771 57.1114 25.74 58.8414 25.74V23.74ZM53.4311 25.9168C52.0483 27.395 51.4214 29.4094 51.4214 31.82H53.4214C53.4214 29.7506 53.9545 28.285 54.8917 27.2832L53.4311 25.9168ZM51.4214 31.82V50H53.4214V31.82H51.4214ZM52.4214 49H42.1614V51H52.4214V49ZM43.1614 50V5.6H41.1614V50H43.1614ZM42.1614 6.6H52.4214V4.6H42.1614V6.6ZM51.4214 5.6V21.02H53.4214V5.6H51.4214ZM53.2396 21.5949C54.1725 20.2674 55.4555 19.1924 57.1206 18.3784L56.2422 16.5816C54.3073 17.5276 52.7504 18.8126 51.6032 20.4451L53.2396 21.5949ZM57.1206 18.3784C58.7685 17.5728 60.6355 17.16 62.7414 17.16V15.16C60.3673 15.16 58.1944 15.6272 56.2422 16.5816L57.1206 18.3784ZM86.3111 11.48L85.617 12.1998L85.63 12.2124L85.6435 12.2246L86.3111 11.48ZM86.3111 3.56L86.9915 4.29279L86.9925 4.29189L86.3111 3.56ZM95.0711 3.56L94.377 4.27984L94.39 4.29245L94.4035 4.30457L95.0711 3.56ZM95.0711 11.48L95.7515 12.2128L95.7525 12.2119L95.0711 11.48ZM95.8511 16.52H96.8511V15.52H95.8511V16.52ZM95.8511 50V51H96.8511V50H95.8511ZM85.5911 50H84.5911V51H85.5911V50ZM85.5911 16.52V15.52H84.5911V16.52H85.5911ZM90.7511 12.04C89.1567 12.04 87.9269 11.5856 86.9786 10.7354L85.6435 12.2246C87.0153 13.4544 88.7455 14.04 90.7511 14.04V12.04ZM87.0052 10.7602C86.0813 9.86919 85.6311 8.80929 85.6311 7.52H83.6311C83.6311 9.35071 84.3009 10.9308 85.617 12.1998L87.0052 10.7602ZM85.6311 7.52C85.6311 6.18338 86.0858 5.13381 86.9915 4.29279L85.6306 2.8272C84.2964 4.06618 83.6311 5.65661 83.6311 7.52H85.6311ZM86.9925 4.29189C87.9421 3.40782 89.167 2.94 90.7511 2.94V0.939997C88.7352 0.939997 87.0001 1.55217 85.6297 2.8281L86.9925 4.29189ZM90.7511 2.94C92.289 2.94 93.4683 3.40359 94.377 4.27984L95.7652 2.84015C94.4339 1.5564 92.7332 0.939997 90.7511 0.939997V2.94ZM94.4035 4.30457C95.3456 5.14913 95.8111 6.19541 95.8111 7.52H97.8111C97.8111 5.64459 97.1166 4.05087 95.7386 2.81543L94.4035 4.30457ZM95.8111 7.52C95.8111 8.79739 95.3502 9.85384 94.3897 10.7481L95.7525 12.2119C97.112 10.9462 97.8111 9.36261 97.8111 7.52H95.8111ZM94.3906 10.7472C93.4836 11.5895 92.2997 12.04 90.7511 12.04V14.04C92.7225 14.04 94.4186 13.4505 95.7515 12.2128L94.3906 10.7472ZM94.8511 16.52V50H96.8511V16.52H94.8511ZM95.8511 49H85.5911V51H95.8511V49ZM86.5911 50V16.52H84.5911V50H86.5911ZM85.5911 17.52H95.8511V15.52H85.5911V17.52ZM116.546 5.6H117.546V4.6H116.546V5.6ZM116.546 50V51H117.546V50H116.546ZM106.286 50H105.286V51H106.286V50ZM106.286 5.6V4.6H105.286V5.6H106.286ZM115.546 5.6V50H117.546V5.6H115.546ZM116.546 49H106.286V51H116.546V49ZM107.286 50V5.6H105.286V50H107.286ZM106.286 6.6H116.546V4.6H106.286V6.6ZM133.342 48.38L132.868 49.2605L132.873 49.2635L133.342 48.38ZM127.162 42.38L126.293 42.8747L126.298 42.8847L127.162 42.38ZM127.222 24.2L128.085 24.7047L128.088 24.699L127.222 24.2ZM133.462 18.14L133.93 19.0235L133.462 18.14ZM151.222 18.14L150.753 19.0235L151.222 18.14ZM157.462 24.2L156.595 24.699L156.598 24.7047L157.462 24.2ZM157.402 42.38L156.541 41.8713L156.538 41.8753L157.402 42.38ZM151.102 48.38L150.639 47.4936L150.633 47.4965L151.102 48.38ZM147.202 39.44L146.485 38.7429L146.48 38.7481L146.475 38.7534L147.202 39.44ZM147.262 27.08L146.525 27.7557L146.53 27.7612L146.535 27.7666L147.262 27.08ZM137.362 27.08L138.089 27.7661L138.099 27.7557L137.362 27.08ZM137.302 39.44L136.554 40.1044L136.559 40.1101L136.565 40.1157L137.302 39.44ZM142.222 49.48C139.089 49.48 136.292 48.8127 133.81 47.4965L132.873 49.2635C135.671 50.7473 138.795 51.48 142.222 51.48V49.48ZM133.816 47.4995C131.381 46.1885 129.454 44.32 128.025 41.8753L126.298 42.8847C127.909 45.64 130.102 47.7715 132.868 49.2605L133.816 47.4995ZM128.031 41.8853C126.65 39.4591 125.942 36.5951 125.942 33.26H123.942C123.942 36.8849 124.714 40.1009 126.293 42.8747L128.031 41.8853ZM125.942 33.26C125.942 29.9717 126.667 27.1308 128.085 24.7047L126.358 23.6953C124.737 26.4692 123.942 29.6683 123.942 33.26H125.942ZM128.088 24.699C129.516 22.2187 131.46 20.3335 133.93 19.0235L132.993 17.2565C130.184 18.7465 127.967 20.9013 126.355 23.701L128.088 24.699ZM133.93 19.0235C136.412 17.7073 139.209 17.04 142.342 17.04V15.04C138.915 15.04 135.791 15.7727 132.993 17.2565L133.93 19.0235ZM142.342 17.04C145.475 17.04 148.271 17.7073 150.753 19.0235L151.69 17.2565C148.892 15.7727 145.769 15.04 142.342 15.04V17.04ZM150.753 19.0235C153.224 20.3335 155.167 22.2187 156.595 24.699L158.328 23.701C156.716 20.9013 154.5 18.7465 151.69 17.2565L150.753 19.0235ZM156.598 24.7047C158.017 27.1308 158.742 29.9717 158.742 33.26H160.742C160.742 29.6683 159.947 26.4692 158.325 23.6953L156.598 24.7047ZM158.742 33.26C158.742 36.5433 157.999 39.4035 156.541 41.8713L158.263 42.8887C159.924 40.0765 160.742 36.8567 160.742 33.26H158.742ZM156.538 41.8753C155.114 44.3123 153.153 46.1803 150.639 47.4937L151.565 49.2663C154.411 47.7797 156.65 45.6477 158.265 42.8847L156.538 41.8753ZM150.633 47.4965C148.151 48.8127 145.355 49.48 142.222 49.48V51.48C145.649 51.48 148.772 50.7473 151.57 49.2635L150.633 47.4965ZM142.222 42.6C144.46 42.6 146.382 41.7642 147.929 40.1266L146.475 38.7534C145.301 39.9958 143.903 40.6 142.222 40.6V42.6ZM147.919 40.1371C149.554 38.4548 150.302 36.1108 150.302 33.26H148.302C148.302 35.7692 147.649 37.5452 146.485 38.7429L147.919 40.1371ZM150.302 33.26C150.302 30.4165 149.578 28.0765 147.989 26.3934L146.535 27.7666C147.665 28.9635 148.302 30.7435 148.302 33.26H150.302ZM147.999 26.4043C146.489 24.7569 144.581 23.92 142.342 23.92V25.92C144.022 25.92 145.395 26.5231 146.525 27.7557L147.999 26.4043ZM142.342 23.92C140.069 23.92 138.139 24.7521 136.625 26.4043L138.099 27.7557C139.224 26.5279 140.614 25.92 142.342 25.92V23.92ZM136.634 26.394C135.078 28.0444 134.382 30.3907 134.382 33.26H136.382C136.382 30.6893 137.005 28.9156 138.089 27.766L136.634 26.394ZM134.382 33.26C134.382 36.0892 135.058 38.4206 136.554 40.1044L138.049 38.7756C136.986 37.5794 136.382 35.7908 136.382 33.26H134.382ZM136.565 40.1157C138.075 41.7631 139.982 42.6 142.222 42.6V40.6C140.541 40.6 139.169 39.9969 138.039 38.7643L136.565 40.1157ZM174.005 48.98L174.407 48.0642L174.005 48.98ZM168.605 44.9L167.805 45.5L167.812 45.5088L168.605 44.9ZM166.385 39.02V38.02H165.308L165.388 39.0939L166.385 39.02ZM176.525 39.02L177.52 38.9171L177.427 38.02H176.525V39.02ZM178.145 41.84L178.745 41.04L178.145 41.84ZM184.625 42.2L185.202 43.017L185.21 43.0107L184.625 42.2ZM184.205 38.12L183.772 39.0215L183.787 39.0287L183.802 39.0353L184.205 38.12ZM179.345 36.56L179.587 35.5899L179.58 35.5879L179.572 35.5862L179.345 36.56ZM173.345 34.82L172.973 35.7485L172.984 35.7525L172.994 35.7563L173.345 34.82ZM169.205 31.88L168.444 32.5289L168.449 32.5346L168.454 32.5401L169.205 31.88ZM169.025 21.2L168.196 20.6405L168.193 20.6453L169.025 21.2ZM173.705 17.42L173.3 16.5054L173.294 16.5084L173.705 17.42ZM190.985 19.16L190.33 19.9157L190.336 19.921L190.985 19.16ZM195.185 27.44V28.44H196.295L196.179 27.3359L195.185 27.44ZM185.705 27.44L184.714 27.5766L184.833 28.44H185.705V27.44ZM184.145 24.68L183.516 25.4572L183.524 25.4644L183.533 25.4713L184.145 24.68ZM178.025 24.38L178.591 25.204L178.608 25.1924L178.625 25.18L178.025 24.38ZM178.565 28.4L178.132 29.3015L178.139 29.3048L178.146 29.308L178.565 28.4ZM183.365 29.84L183.615 28.8717L183.598 28.8675L183.582 28.8638L183.365 29.84ZM189.425 31.76L189.045 32.6852L189.056 32.6894L189.066 32.6933L189.425 31.76ZM193.505 34.76L192.735 35.398L192.745 35.41L192.755 35.4216L193.505 34.76ZM195.365 40.28H196.365V40.2714L196.365 40.2628L195.365 40.28ZM193.685 45.56L192.873 44.9768L192.87 44.9808L193.685 45.56ZM188.945 49.16L188.555 48.239L188.549 48.2418L188.945 49.16ZM181.805 49.48C178.999 49.48 176.54 48.9999 174.407 48.0642L173.603 49.8958C176.03 50.9601 178.77 51.48 181.805 51.48V49.48ZM174.407 48.0642C172.258 47.1218 170.601 45.8588 169.398 44.2912L167.812 45.5088C169.248 47.3812 171.192 48.8382 173.603 49.8958L174.407 48.0642ZM169.405 44.3C168.198 42.6904 167.528 40.9123 167.382 38.9461L165.388 39.0939C165.562 41.4477 166.372 43.5896 167.805 45.5L169.405 44.3ZM166.385 40.02H176.525V38.02H166.385V40.02ZM175.53 39.1229C175.68 40.5691 176.369 41.7583 177.545 42.64L178.745 41.04C178 40.4817 177.61 39.7909 177.52 38.9171L175.53 39.1229ZM177.545 42.64C178.706 43.5106 180.106 43.92 181.685 43.92V41.92C180.464 41.92 179.504 41.6094 178.745 41.04L177.545 42.64ZM181.685 43.92C183.068 43.92 184.284 43.6645 185.202 43.017L184.048 41.383C183.605 41.6955 182.862 41.92 181.685 41.92V43.92ZM185.21 43.0107C186.157 42.3267 186.705 41.38 186.705 40.22H184.705C184.705 40.66 184.532 41.0333 184.039 41.3893L185.21 43.0107ZM186.705 40.22C186.705 39.5568 186.529 38.9328 186.144 38.3938C185.764 37.8629 185.228 37.4778 184.608 37.2047L183.802 39.0353C184.181 39.2022 184.395 39.3871 184.516 39.5562C184.631 39.7172 184.705 39.9232 184.705 40.22H186.705ZM184.638 37.2185C183.541 36.6922 181.838 36.1526 179.587 35.5899L179.102 37.5301C181.331 38.0874 182.869 38.5878 183.772 39.0215L184.638 37.2185ZM179.572 35.5862C177.197 35.0321 175.242 34.4635 173.696 33.8837L172.994 35.7563C174.648 36.3765 176.692 36.9679 179.118 37.5338L179.572 35.5862ZM173.716 33.8915C172.265 33.3111 171.014 32.4242 169.956 31.2199L168.454 32.5401C169.715 33.9757 171.225 35.0489 172.973 35.7485L173.716 33.8915ZM169.966 31.2311C168.999 30.0973 168.465 28.5293 168.465 26.42H166.465C166.465 28.8707 167.091 30.9427 168.444 32.5289L169.966 31.2311ZM168.465 26.42C168.465 24.6924 168.929 23.1463 169.857 21.7547L168.193 20.6453C167.041 22.3737 166.465 24.3076 166.465 26.42H168.465ZM169.854 21.7595C170.814 20.3365 172.218 19.1876 174.116 18.3316L173.294 16.5084C171.112 17.4924 169.395 18.8635 168.196 20.6405L169.854 21.7595ZM174.109 18.3345C176.034 17.4831 178.351 17.04 181.085 17.04V15.04C178.139 15.04 175.535 15.5169 173.3 16.5055L174.109 18.3345ZM181.085 17.04C185.123 17.04 188.163 18.0381 190.33 19.9157L191.64 18.4043C189.006 16.1219 185.447 15.04 181.085 15.04V17.04ZM190.336 19.921C192.565 21.8207 193.855 24.3373 194.19 27.5441L196.179 27.3359C195.795 23.6627 194.285 20.6593 191.634 18.399L190.336 19.921ZM195.185 26.44H185.705V28.44H195.185V26.44ZM186.695 27.3034C186.502 25.8991 185.855 24.738 184.756 23.8887L183.533 25.4713C184.194 25.982 184.588 26.6609 184.714 27.5766L186.695 27.3034ZM184.774 23.9028C183.709 23.0407 182.345 22.66 180.785 22.66V24.66C182.024 24.66 182.9 24.9593 183.516 25.4572L184.774 23.9028ZM180.785 22.66C179.471 22.66 178.305 22.9197 177.425 23.58L178.625 25.18C179.024 24.8803 179.698 24.66 180.785 24.66V22.66ZM177.458 23.556C176.537 24.1891 176.065 25.1225 176.065 26.24H178.065C178.065 25.7575 178.232 25.4509 178.591 25.204L177.458 23.556ZM176.065 26.24C176.065 26.9036 176.241 27.527 176.618 28.0704C176.99 28.6055 177.517 29.0062 178.132 29.3015L178.998 27.4985C178.613 27.3138 178.39 27.1145 178.261 26.9296C178.139 26.753 178.065 26.5364 178.065 26.24H176.065ZM178.146 29.308C179.285 29.834 180.97 30.3322 183.148 30.8162L183.582 28.8638C181.44 28.3878 179.924 27.926 178.984 27.492L178.146 29.308ZM183.115 30.8083C185.571 31.4421 187.543 32.0689 189.045 32.6852L189.804 30.8348C188.187 30.1711 186.119 29.5179 183.615 28.8717L183.115 30.8083ZM189.066 32.6933C190.452 33.2265 191.674 34.1182 192.735 35.398L194.275 34.122C193.015 32.6018 191.518 31.4935 189.784 30.8267L189.066 32.6933ZM192.755 35.4216C193.758 36.5583 194.328 38.1469 194.365 40.2972L196.365 40.2628C196.322 37.7731 195.652 35.6817 194.255 34.0984L192.755 35.4216ZM194.365 40.28C194.365 42.0354 193.868 43.5905 192.873 44.9768L194.497 46.1432C195.742 44.4095 196.365 42.4446 196.365 40.28H194.365ZM192.87 44.9808C191.918 46.3205 190.501 47.416 188.555 48.239L189.334 50.081C191.549 49.144 193.292 47.8395 194.5 46.1392L192.87 44.9808ZM188.549 48.2418C186.659 49.0572 184.418 49.48 181.805 49.48V51.48C184.631 51.48 187.151 51.0228 189.341 50.0782L188.549 48.2418ZM211.002 48.38L210.528 49.2605L210.533 49.2635L211.002 48.38ZM204.822 42.38L203.953 42.8747L203.959 42.8847L204.822 42.38ZM204.882 24.2L205.745 24.7047L205.749 24.699L204.882 24.2ZM211.122 18.14L211.59 19.0235L211.122 18.14ZM228.882 18.14L228.413 19.0235L228.882 18.14ZM235.122 24.2L234.255 24.699L234.259 24.7047L235.122 24.2ZM235.062 42.38L234.201 41.8713L234.199 41.8753L235.062 42.38ZM228.762 48.38L228.299 47.4936L228.293 47.4965L228.762 48.38ZM224.862 39.44L224.145 38.7429L224.14 38.7481L224.135 38.7534L224.862 39.44ZM224.922 27.08L224.185 27.7557L224.19 27.7612L224.195 27.7666L224.922 27.08ZM215.022 27.08L215.75 27.7661L215.759 27.7557L215.022 27.08ZM214.962 39.44L214.214 40.1044L214.22 40.1101L214.225 40.1157L214.962 39.44ZM219.882 49.48C216.749 49.48 213.952 48.8127 211.47 47.4965L210.533 49.2635C213.331 50.7473 216.455 51.48 219.882 51.48V49.48ZM211.476 47.4995C209.041 46.1885 207.114 44.32 205.685 41.8753L203.959 42.8847C205.569 45.64 207.763 47.7715 210.528 49.2605L211.476 47.4995ZM205.691 41.8853C204.31 39.4591 203.602 36.5951 203.602 33.26H201.602C201.602 36.8849 202.374 40.1009 203.953 42.8747L205.691 41.8853ZM203.602 33.26C203.602 29.9717 204.327 27.1308 205.745 24.7047L204.019 23.6953C202.397 26.4692 201.602 29.6683 201.602 33.26H203.602ZM205.749 24.699C207.177 22.2187 209.12 20.3335 211.59 19.0235L210.653 17.2565C207.844 18.7465 205.627 20.9013 204.015 23.701L205.749 24.699ZM211.59 19.0235C214.072 17.7073 216.869 17.04 220.002 17.04V15.04C216.575 15.04 213.451 15.7727 210.653 17.2565L211.59 19.0235ZM220.002 17.04C223.135 17.04 225.931 17.7073 228.413 19.0235L229.35 17.2565C226.552 15.7727 223.429 15.04 220.002 15.04V17.04ZM228.413 19.0235C230.884 20.3335 232.827 22.2187 234.255 24.699L235.988 23.701C234.377 20.9013 232.16 18.7465 229.35 17.2565L228.413 19.0235ZM234.259 24.7047C235.677 27.1308 236.402 29.9717 236.402 33.26H238.402C238.402 29.6683 237.607 26.4692 235.985 23.6953L234.259 24.7047ZM236.402 33.26C236.402 36.5433 235.659 39.4035 234.201 41.8713L235.923 42.8887C237.585 40.0765 238.402 36.8567 238.402 33.26H236.402ZM234.199 41.8753C232.774 44.3123 230.813 46.1803 228.299 47.4937L229.225 49.2663C232.071 47.7797 234.31 45.6477 235.925 42.8847L234.199 41.8753ZM228.293 47.4965C225.811 48.8127 223.015 49.48 219.882 49.48V51.48C223.309 51.48 226.432 50.7473 229.23 49.2635L228.293 47.4965ZM219.882 42.6C222.12 42.6 224.042 41.7642 225.589 40.1266L224.135 38.7534C222.962 39.9958 221.563 40.6 219.882 40.6V42.6ZM225.579 40.1371C227.214 38.4548 227.962 36.1108 227.962 33.26H225.962C225.962 35.7692 225.309 37.5452 224.145 38.7429L225.579 40.1371ZM227.962 33.26C227.962 30.4165 227.238 28.0765 225.649 26.3934L224.195 27.7666C225.325 28.9635 225.962 30.7435 225.962 33.26H227.962ZM225.659 26.4043C224.149 24.7569 222.241 23.92 220.002 23.92V25.92C221.683 25.92 223.055 26.5231 224.185 27.7557L225.659 26.4043ZM220.002 23.92C217.729 23.92 215.799 24.7521 214.285 26.4043L215.759 27.7557C216.885 26.5279 218.275 25.92 220.002 25.92V23.92ZM214.294 26.394C212.738 28.0444 212.042 30.3907 212.042 33.26H214.042C214.042 30.6893 214.666 28.9156 215.749 27.766L214.294 26.394ZM212.042 33.26C212.042 36.0892 212.718 38.4206 214.214 40.1044L215.709 38.7756C214.646 37.5794 214.042 35.7908 214.042 33.26H212.042ZM214.225 40.1157C215.735 41.7631 217.643 42.6 219.882 42.6V40.6C218.201 40.6 216.829 39.9969 215.699 38.7643L214.225 40.1157ZM256.105 21.26H255.105V24.673L256.947 21.7997L256.105 21.26ZM260.245 17.48L259.766 16.6021V16.6021L260.245 17.48ZM273.925 18.14L273.395 18.988L273.925 18.14ZM279.205 24.14L278.308 24.5817L278.313 24.5927L279.205 24.14ZM279.205 42.32L278.311 41.8728L278.308 41.8783L279.205 42.32ZM273.925 48.38L274.455 49.2281L274.466 49.2212L273.925 48.38ZM260.245 49.04L259.766 49.9179L259.774 49.9224L260.245 49.04ZM256.105 45.32L256.94 44.7704L255.105 41.9806V45.32H256.105ZM256.105 65.96V66.96H257.105V65.96H256.105ZM245.845 65.96H244.845V66.96H245.845V65.96ZM245.845 16.52V15.52H244.845V16.52H245.845ZM256.105 16.52H257.105V15.52H256.105V16.52ZM268.585 27.2L267.859 27.8872L267.868 27.8973L267.878 27.9071L268.585 27.2ZM258.145 27.2L257.428 26.5026L257.419 26.5128L258.145 27.2ZM258.145 39.32L257.418 40.0073L257.428 40.0174L258.145 39.32ZM268.585 39.32L269.302 40.0174L269.311 40.0077L268.585 39.32ZM256.947 21.7997C257.849 20.3926 259.099 19.2442 260.724 18.3579L259.766 16.6021C257.871 17.6358 256.361 19.0074 255.263 20.7203L256.947 21.7997ZM260.724 18.3579C262.313 17.4911 264.203 17.04 266.425 17.04V15.04C263.927 15.04 261.697 15.5489 259.766 16.6021L260.724 18.3579ZM266.425 17.04C269.006 17.04 271.321 17.6919 273.395 18.988L274.455 17.292C272.049 15.7881 269.364 15.04 266.425 15.04V17.04ZM273.395 18.988C275.462 20.2799 277.102 22.1319 278.308 24.5817L280.102 23.6983C278.748 20.9481 276.868 18.8001 274.455 17.292L273.395 18.988ZM278.313 24.5927C279.55 27.0293 280.185 29.8892 280.185 33.2H282.185C282.185 29.6308 281.5 26.4507 280.097 23.6873L278.313 24.5927ZM280.185 33.2C280.185 36.5104 279.551 39.3929 278.311 41.8728L280.099 42.7672C281.499 39.9671 282.185 36.7696 282.185 33.2H280.185ZM278.308 41.8783C277.101 44.3301 275.458 46.2057 273.384 47.5388L274.466 49.2212C276.872 47.6743 278.749 45.5099 280.102 42.7617L278.308 41.8783ZM273.395 47.532C271.321 48.8281 269.006 49.48 266.425 49.48V51.48C269.364 51.48 272.049 50.7319 274.455 49.228L273.395 47.532ZM266.425 49.48C264.246 49.48 262.352 49.0304 260.716 48.1576L259.774 49.9224C261.738 50.9696 263.964 51.48 266.425 51.48V49.48ZM260.724 48.1621C259.093 47.2725 257.841 46.1398 256.94 44.7704L255.27 45.8696C256.369 47.5402 257.877 48.8875 259.766 49.9179L260.724 48.1621ZM255.105 45.32V65.96H257.105V45.32H255.105ZM256.105 64.96H245.845V66.96H256.105V64.96ZM246.845 65.96V16.52H244.845V65.96H246.845ZM245.845 17.52H256.105V15.52H245.845V17.52ZM255.105 16.52V21.26H257.105V16.52H255.105ZM271.745 33.2C271.745 30.4467 270.965 28.1658 269.292 26.4929L267.878 27.9071C269.085 29.1142 269.745 30.8333 269.745 33.2H271.745ZM269.311 26.5128C267.718 24.8284 265.713 23.98 263.365 23.98V25.98C265.177 25.98 266.652 26.6116 267.859 27.8872L269.311 26.5128ZM263.365 23.98C261.051 23.98 259.054 24.8318 257.428 26.5026L258.862 27.8974C260.116 26.6082 261.599 25.98 263.365 25.98V23.98ZM257.419 26.5128C255.801 28.2229 255.045 30.513 255.045 33.26H257.045C257.045 30.887 257.689 29.137 258.871 27.8872L257.419 26.5128ZM255.045 33.26C255.045 36.007 255.801 38.2971 257.419 40.0072L258.871 38.6328C257.689 37.3829 257.045 35.633 257.045 33.26H255.045ZM257.428 40.0174C259.054 41.6882 261.051 42.54 263.365 42.54V40.54C261.599 40.54 260.116 39.9118 258.862 38.6226L257.428 40.0174ZM263.365 42.54C265.679 42.54 267.676 41.6882 269.302 40.0174L267.868 38.6226C266.614 39.9118 265.131 40.54 263.365 40.54V42.54ZM269.311 40.0077C270.964 38.2625 271.745 35.9558 271.745 33.2H269.745C269.745 35.5642 269.086 37.3375 267.859 38.6323L269.311 40.0077ZM319.388 20L318.647 20.6715L318.652 20.6773L319.388 20ZM322.868 50V51H323.868V50H322.868ZM312.668 50H311.668V51H312.668V50ZM310.928 26.6L310.197 27.2832V27.2832L310.928 26.6ZM301.568 26.6L302.298 27.2832V27.2832L301.568 26.6ZM299.828 50V51H300.828V50H299.828ZM289.568 50H288.568V51H289.568V50ZM289.568 5.6V4.6H288.568V5.6H289.568ZM299.828 5.6H300.828V4.6H299.828V5.6ZM299.828 21.02H298.828V24.1824L300.646 21.5949L299.828 21.02ZM304.088 17.48L303.648 16.5816V16.5816L304.088 17.48ZM310.148 17.16C313.74 17.16 316.539 18.3453 318.647 20.6715L320.129 19.3285C317.597 16.5347 314.235 15.16 310.148 15.16V17.16ZM318.652 20.6773C320.756 22.9632 321.868 26.1743 321.868 30.44H323.868C323.868 25.8257 322.659 22.0768 320.123 19.3227L318.652 20.6773ZM321.868 30.44V50H323.868V30.44H321.868ZM322.868 49H312.668V51H322.868V49ZM313.668 50V31.82H311.668V50H313.668ZM313.668 31.82C313.668 29.4094 313.041 27.395 311.658 25.9168L310.197 27.2832C311.135 28.285 311.668 29.7506 311.668 31.82H313.668ZM311.658 25.9168C310.279 24.4429 308.438 23.74 306.248 23.74V25.74C307.978 25.74 309.256 26.2771 310.197 27.2832L311.658 25.9168ZM306.248 23.74C304.058 23.74 302.216 24.4429 300.837 25.9168L302.298 27.2832C303.239 26.2771 304.518 25.74 306.248 25.74V23.74ZM300.837 25.9168C299.455 27.395 298.828 29.4094 298.828 31.82H300.828C300.828 29.7506 301.361 28.285 302.298 27.2832L300.837 25.9168ZM298.828 31.82V50H300.828V31.82H298.828ZM299.828 49H289.568V51H299.828V49ZM290.568 50V5.6H288.568V50H290.568ZM289.568 6.6H299.828V4.6H289.568V6.6ZM298.828 5.6V21.02H300.828V5.6H298.828ZM300.646 21.5949C301.579 20.2674 302.862 19.1924 304.527 18.3784L303.648 16.5816C301.714 17.5276 300.157 18.8126 299.009 20.4451L300.646 21.5949ZM304.527 18.3784C306.175 17.5728 308.042 17.16 310.148 17.16V15.16C307.774 15.16 305.601 15.6272 303.648 16.5816L304.527 18.3784ZM367.197 16.52L368.118 16.9114L368.709 15.52H367.197V16.52ZM346.197 65.9V66.9H346.859L347.118 66.2914L346.197 65.9ZM335.157 65.9L334.246 65.4891L333.61 66.9H335.157V65.9ZM342.837 48.86L343.749 49.2709L343.928 48.8735L343.759 48.4719L342.837 48.86ZM329.217 16.52V15.52H327.711L328.296 16.9081L329.217 16.52ZM340.677 16.52L341.615 16.1733L341.374 15.52H340.677V16.52ZM348.417 37.46L347.479 37.8067L348.421 40.3542L349.356 37.8043L348.417 37.46ZM356.097 16.52V15.52H355.399L355.159 16.1757L356.097 16.52ZM366.277 16.1286L345.277 65.5086L347.118 66.2914L368.118 16.9114L366.277 16.1286ZM346.197 64.9H335.157V66.9H346.197V64.9ZM336.069 66.3109L343.749 49.2709L341.926 48.4491L334.246 65.4891L336.069 66.3109ZM343.759 48.4719L330.139 16.1319L328.296 16.9081L341.916 49.2481L343.759 48.4719ZM329.217 17.52H340.677V15.52H329.217V17.52ZM339.739 16.8667L347.479 37.8067L349.355 37.1133L341.615 16.1733L339.739 16.8667ZM349.356 37.8043L357.036 16.8643L355.159 16.1757L347.478 37.1157L349.356 37.8043ZM356.097 17.52H367.197V15.52H356.097V17.52Z" fill="#8DDE9F"/>
</svg>
