<svg width="44" height="44" viewBox="0 0 44 44" fill="none" xmlns="http://www.w3.org/2000/svg">
<rect x="1" y="1" width="42" height="42" rx="7" fill="#E2FFE9"/>
<path d="M13.5882 11H18.7647L21.3529 17.4706L18.1176 19.4118C19.5036 22.222 21.778 24.4964 24.5882 25.8824L26.5294 22.6471L33 25.2353V30.4118C33 31.0982 32.7273 31.7565 32.2419 32.2419C31.7565 32.7273 31.0982 33 30.4118 33C25.3638 32.6932 20.6026 30.5496 17.0265 26.9735C13.4504 23.3974 11.3068 18.6362 11 13.5882C11 12.9018 11.2727 12.2435 11.7581 11.7581C12.2435 11.2727 12.9018 11 13.5882 11Z" fill="#33A94D"/>
</svg>
