<svg width="36" height="36" viewBox="0 0 36 36" fill="none" xmlns="http://www.w3.org/2000/svg">
<path d="M6 5.56499V30.435C6.00006 30.6193 6.04862 30.8003 6.1408 30.9599C6.23298 31.1195 6.36553 31.252 6.52514 31.3441C6.68475 31.4362 6.8658 31.4847 7.05008 31.4847C7.23437 31.4847 7.4154 31.4361 7.575 31.344L29.508 18.714C29.6336 18.6416 29.7378 18.5375 29.8103 18.412C29.8828 18.2865 29.921 18.1442 29.921 17.9992C29.921 17.8543 29.8828 17.712 29.8103 17.5865C29.7378 17.461 29.6336 17.3569 29.508 17.2845L7.575 4.65599C7.41529 4.56379 7.23412 4.51527 7.04971 4.51532C6.86529 4.51537 6.68415 4.56399 6.52449 4.65629C6.36484 4.74858 6.23231 4.8813 6.14023 5.04108C6.04816 5.20087 5.99979 5.38208 6 5.56649V5.56499Z" stroke="black" stroke-width="1.25" stroke-linecap="round" stroke-linejoin="round"/>
<path d="M22.5 13.5L6.75 30.75" stroke="black" stroke-width="1.25" stroke-linecap="round" stroke-linejoin="round"/>
<path d="M6.75 5.25L22.5 22.5" stroke="black" stroke-width="1.25" stroke-linecap="round" stroke-linejoin="round"/>
</svg>
