<svg width="20" height="19" viewBox="0 0 20 19" fill="none" xmlns="http://www.w3.org/2000/svg">
<path d="M17.16 0L19.12 2.50418C18.3733 3.19317 17.6533 4.25314 16.96 5.6841C16.2933 7.08856 15.9333 8.86402 15.88 11.0105L20 11.5272V19H12V15.4623C12 15.1444 12.0133 14.4819 12.04 13.4749C12.0667 12.4414 12.0933 11.7524 12.12 11.408C12.1467 11.037 12.1867 10.4142 12.24 9.53975C12.2933 8.66527 12.3733 8.02929 12.48 7.6318C12.5867 7.23431 12.72 6.67782 12.88 5.96234C13.04 5.24686 13.24 4.67713 13.48 4.25314C13.7467 3.82915 14.04 3.33891 14.36 2.78243C14.7067 2.22594 15.1067 1.7357 15.56 1.31172C16.04 0.861227 16.5733 0.423989 17.16 0ZM5.4 0L7.36 2.50418C6.61333 3.19317 5.89333 4.25314 5.2 5.6841C4.53333 7.08856 4.17333 8.85077 4.12 10.9707L8 11.5272V19H0V15.4623C0 13.8459 0.0133333 12.6137 0.04 11.7657C0.0666667 10.9177 0.173333 9.83124 0.36 8.50628C0.546667 7.15481 0.813333 6.05509 1.16 5.20711C1.53333 4.35914 2.06667 3.45816 2.76 2.50418C3.48 1.55021 4.36 0.715481 5.4 0Z" fill="#33A94D"/>
</svg>
