<svg width="199" height="50" viewBox="0 0 199 50" fill="none" xmlns="http://www.w3.org/2000/svg">
<g clip-path="url(#clip0)">
<path d="M37.8324 33.5015C35.0112 37.6801 30.237 40.562 24.9563 40.4899C20.8331 40.4899 16.9992 38.8329 14.1057 35.8069C11.2846 32.9251 9.69316 28.9626 9.7655 24.8559C9.7655 20.7493 11.4293 16.9309 14.3951 14.1211C17.2886 11.2392 21.1948 9.6542 25.318 9.6542H25.4627C28.5732 9.72625 31.4667 10.6628 33.9985 12.392L41.0876 6.55622C36.7473 2.23345 31.4667 0.0720707 25.6074 -0.0720215L25.318 2.46242e-05C11.5016 -0.0720215 0.216976 10.951 -3.63474e-05 24.7118C-0.217048 38.6167 10.8506 49.7839 24.8117 50H24.884C35.0836 50.0721 44.1257 43.66 47.5979 33.5735L37.8324 33.5015ZM32.1177 22.4784L28.9349 28.9626L44.4874 29.0346L47.6703 22.4784H32.1177Z" fill="black"/>
<path d="M58.0869 9.43799C59.606 9.43799 60.7634 10.1584 61.3421 11.095V9.58208H64.5973V20.1008C64.5973 22.9106 63.0059 25.2881 59.3167 25.2881C56.2062 25.2881 54.1084 23.7031 53.819 21.1815H57.0019C57.2189 21.974 58.0146 22.4783 59.0997 22.4783C60.3294 22.4783 61.2698 21.8299 61.2698 20.0288V18.5158C60.6911 19.4524 59.5337 20.1729 58.0146 20.1729C55.4105 20.1729 53.385 18.0835 53.385 14.7694C53.385 11.5273 55.4828 9.43799 58.0869 9.43799ZM59.0273 12.2478C57.7976 12.2478 56.7125 13.1844 56.7125 14.8414C56.7125 16.4985 57.7976 17.4351 59.0273 17.4351C60.2571 17.4351 61.3421 16.4985 61.3421 14.8414C61.3421 13.1844 60.2571 12.2478 59.0273 12.2478Z" fill="black"/>
<path d="M71.6139 20.2449C68.5034 20.2449 66.261 18.1556 66.261 14.8414C66.261 11.5273 68.4311 9.43799 71.6139 9.43799C74.7245 9.43799 76.8946 11.4553 76.8946 14.6974C76.8946 14.9855 76.8946 15.3458 76.8222 15.634H69.5162C69.6608 17.0028 70.4566 17.6512 71.5416 17.6512C72.482 17.6512 72.9884 17.219 73.2054 16.6426H76.6776C76.0989 18.6599 74.2181 20.2449 71.6139 20.2449ZM69.5162 13.8328H73.5671C73.5671 12.6801 72.6267 12.0316 71.6139 12.0316C70.5289 11.9596 69.6608 12.608 69.5162 13.8328Z" fill="black"/>
<path d="M85.8644 14.3369C85.8644 12.896 85.0687 12.1035 83.839 12.1035C82.6092 12.1035 81.8135 12.896 81.8135 14.3369V20.0285H78.5583V9.50981H81.8135V10.8787C82.4646 10.0141 83.622 9.36572 84.9964 9.36572C87.4559 9.36572 89.0473 11.0228 89.0473 13.8326V19.9565H85.8644V14.3369Z" fill="black"/>
<path d="M95.9916 20.1726C92.8811 20.1726 90.6387 18.0833 90.6387 14.7692C90.6387 11.4551 92.8088 9.36572 95.9916 9.36572C99.1021 9.36572 101.272 11.383 101.272 14.6251C101.272 14.9133 101.272 15.2735 101.2 15.5617H93.8938C94.0385 16.9306 94.8342 17.579 95.9193 17.579C96.8597 17.579 97.366 17.1467 97.583 16.5703H101.055C100.549 18.5876 98.6681 20.1726 95.9916 20.1726ZM93.8938 13.7605H97.9447C97.9447 12.6078 97.0043 11.9594 95.9916 11.9594C94.9066 11.9594 94.1109 12.6078 93.8938 13.7605Z" fill="black"/>
<path d="M107.276 20.1726C104.455 20.1726 102.574 18.5876 102.43 16.5703H105.613C105.685 17.2908 106.336 17.7951 107.276 17.7951C108.144 17.7951 108.578 17.4349 108.578 16.9306C108.578 15.2015 102.791 16.4983 102.791 12.6078C102.791 10.8066 104.31 9.36572 107.059 9.36572C109.808 9.36572 111.327 10.8787 111.544 12.968H108.578C108.506 12.2476 107.927 11.8153 107.059 11.8153C106.336 11.8153 105.902 12.1035 105.902 12.6078C105.902 14.2649 111.617 13.1121 111.689 17.0026C111.544 18.8038 109.953 20.1726 107.276 20.1726Z" fill="black"/>
<path d="M120.803 9.50977H124.276L117.693 24.9997H114.221L116.608 19.6683L112.268 9.50977H115.884L118.344 16.066L120.803 9.50977Z" fill="black"/>
<path d="M129.773 20.1726C126.952 20.1726 125.071 18.5876 124.927 16.5703H128.109C128.182 17.2908 128.833 17.7951 129.773 17.7951C130.641 17.7951 131.075 17.4349 131.075 16.9306C131.075 15.2015 125.288 16.4983 125.288 12.6078C125.288 10.8066 126.807 9.36572 129.556 9.36572C132.305 9.36572 133.824 10.8787 134.041 12.968H131.075C131.003 12.2476 130.424 11.8153 129.556 11.8153C128.833 11.8153 128.399 12.1035 128.399 12.6078C128.399 14.2649 134.113 13.1121 134.186 17.0026C134.041 18.8038 132.45 20.1726 129.773 20.1726Z" fill="black"/>
<path d="M70.6737 34.8702H69.3716V32.2045H70.6737V29.6108H73.9288V32.2045H76.0266V34.8702H73.9288V39.1209C73.9288 39.7693 74.2182 39.9855 74.9416 39.9855H76.099V42.7232H74.4352C72.2651 42.7232 70.6737 41.7866 70.6737 39.0489V34.8702Z" fill="black"/>
<path d="M82.537 42.7952C79.4265 42.7952 77.1841 40.7059 77.1841 37.3917C77.1841 34.0776 79.3542 31.9883 82.537 31.9883C85.6475 31.9883 87.8177 34.0056 87.8177 37.2476C87.8177 37.5358 87.8177 37.8961 87.7453 38.1842H80.4393C80.5839 39.5531 81.3796 40.2015 82.4647 40.2015C83.4051 40.2015 83.9115 39.7693 84.1285 39.1929H87.6007C87.022 41.2102 85.1412 42.7952 82.537 42.7952ZM80.4393 36.3831H84.4902C84.4902 35.2304 83.5498 34.5819 82.537 34.5819C81.3796 34.5819 80.5839 35.2304 80.4393 36.3831Z" fill="black"/>
<path d="M94.1109 31.9883C96.7874 31.9883 98.6682 33.4292 99.1746 35.9508H95.7024C95.413 35.2304 94.9067 34.726 94.0386 34.726C92.8812 34.726 92.0855 35.6626 92.0855 37.3917C92.0855 39.1208 92.8812 40.0574 94.0386 40.0574C94.9067 40.0574 95.413 39.6252 95.7024 38.8327H99.1746C98.5959 41.2822 96.7874 42.7952 94.1109 42.7952C91.0004 42.7952 88.8303 40.7059 88.8303 37.3917C88.8303 34.0776 91.0004 31.9883 94.1109 31.9883Z" fill="black"/>
<path d="M100.911 28.6743H104.166V33.5014C104.817 32.5648 105.974 31.9884 107.421 31.9884C109.808 31.9884 111.4 33.6455 111.472 36.4553V42.5792H108.289V36.8876C108.289 35.4467 107.493 34.6541 106.264 34.6541C105.034 34.6541 104.238 35.4467 104.238 36.8876V42.5792H100.983L100.911 28.6743Z" fill="black"/>
<path d="M120.948 36.8872C120.948 35.4463 120.152 34.6538 118.923 34.6538C117.693 34.6538 116.897 35.4463 116.897 36.8872V42.5788H113.642V32.0601H116.897V33.429C117.548 32.5644 118.706 31.916 120.08 31.916C122.54 31.916 124.131 33.5731 124.131 36.3829V42.5068H120.948V36.8872Z" fill="black"/>
<path d="M131.22 42.7952C128.109 42.7952 125.795 40.7059 125.795 37.3917C125.795 34.0776 128.182 31.9883 131.292 31.9883C134.403 31.9883 136.79 34.0776 136.79 37.3917C136.79 40.7059 134.33 42.7952 131.22 42.7952ZM131.22 39.9854C132.377 39.9854 133.462 39.1208 133.462 37.3917C133.462 35.5906 132.377 34.7981 131.292 34.7981C130.135 34.7981 129.122 35.6626 129.122 37.3917C129.05 39.1208 130.063 39.9854 131.22 39.9854Z" fill="black"/>
<path d="M140.913 32.0601L143.228 39.6249L145.543 32.1321H149.015L145.253 42.6508H141.275L137.441 32.1321L140.913 32.0601Z" fill="black"/>
<path d="M154.296 31.916C155.887 31.916 156.972 32.6365 157.551 33.5731V32.0601H160.806V42.5788H157.551V41.0659C156.972 42.0025 155.815 42.7229 154.296 42.7229C151.691 42.7229 149.666 40.6336 149.666 37.3195C149.666 34.0054 151.764 31.916 154.296 31.916ZM155.308 34.7258C154.079 34.7258 152.994 35.6624 152.994 37.3195C152.994 38.9765 154.079 39.9131 155.308 39.9131C156.538 39.9131 157.623 38.9765 157.623 37.3195C157.551 35.6624 156.538 34.7258 155.308 34.7258Z" fill="black"/>
<path d="M163.7 34.7262H162.397V32.0605H163.7V29.4668H166.955V32.0605H169.052V34.7262H166.955V38.9769C166.955 39.6253 167.244 39.8414 167.967 39.8414H169.125V42.5792H167.461C165.291 42.5792 163.7 41.6426 163.7 38.9048V34.7262Z" fill="black"/>
<path d="M170.572 29.2506C170.572 28.2419 171.367 27.5215 172.525 27.5215C173.682 27.5215 174.405 28.314 174.405 29.2506C174.405 30.1872 173.61 30.9797 172.525 30.9797C171.295 30.9797 170.572 30.1872 170.572 29.2506ZM170.861 32.0604H174.116V42.5791H170.861V32.0604Z" fill="black"/>
<path d="M181.277 42.7229C178.167 42.7229 175.852 40.6336 175.852 37.3195C175.852 34.0054 178.239 31.916 181.35 31.916C184.46 31.916 186.847 34.0054 186.847 37.3195C186.775 40.6336 184.316 42.7229 181.277 42.7229ZM181.205 39.9131C182.362 39.9131 183.447 39.0486 183.447 37.3195C183.447 35.5183 182.362 34.7258 181.277 34.7258C180.12 34.7258 179.107 35.5904 179.107 37.3195C179.107 39.0486 180.048 39.9131 181.205 39.9131Z" fill="black"/>
<path d="M195.745 36.8154C195.745 35.3745 194.949 34.582 193.719 34.582C192.49 34.582 191.694 35.3745 191.694 36.8154V42.5071H188.439V31.9883H191.694V33.3572C192.345 32.4927 193.502 31.8442 194.877 31.8442C197.336 31.8442 198.928 33.5013 198.928 36.3111V42.435H195.745V36.8154Z" fill="black"/>
<path d="M59.0274 42.3633C61.784 42.3633 64.0187 40.1376 64.0187 37.3921C64.0187 34.6466 61.784 32.4209 59.0274 32.4209C56.2708 32.4209 54.0361 34.6466 54.0361 37.3921C54.0361 40.1376 56.2708 42.3633 59.0274 42.3633Z" fill="#33A94D"/>
</g>
<defs>
<clipPath id="clip0">
<rect width="199" height="50" fill="white"/>
</clipPath>
</defs>
</svg>
