<svg width="29" height="23" viewBox="0 0 29 23" fill="none" xmlns="http://www.w3.org/2000/svg">
<path d="M27.4168 1.17948C26.1251 1.8124 24.8592 2.06944 23.5417 2.45824C22.0938 0.824269 19.947 0.733852 17.8842 1.50627C15.8214 2.27869 14.4703 4.16712 14.5 6.33326V7.62494C10.3085 7.73215 6.57558 5.82305 4.1666 2.45824C4.1666 2.45824 -1.23518 12.0593 9.3333 16.6667C6.91529 18.2774 4.50373 19.3637 1.58325 19.25C5.85611 21.5789 10.5126 22.3797 14.5439 21.2095C19.1681 19.8661 22.9682 16.4006 24.4265 11.2093C24.8615 9.63048 25.0776 7.99934 25.0685 6.36168C25.0659 6.04005 27.0189 2.78116 27.4168 1.17819V1.17948Z" stroke="black" stroke-width="1.75" stroke-linecap="round" stroke-linejoin="round"/>
</svg>
