<svg width="108" height="22" viewBox="0 0 108 22" fill="none" xmlns="http://www.w3.org/2000/svg">
<path d="M5.82009 21.7685C3.7165 21.1914 1.78609 19.564 0.798477 17.5352C0.0416025 15.9804 0.0425494 15.9912 0.0407611 8.84517C-0.0489071 2.66364 -0.0146204 2.46418 0.390041 1.86801C1.24951 0.408458 3.14481 0.0967718 4.38745 1.21063C5.25989 1.99265 5.32925 2.25822 5.32925 4.81702V7.03605H8.9946C11.2366 7.03605 12.8734 7.08267 13.2097 7.15611C15.1225 7.57385 15.8487 9.90322 14.5206 11.3612C14.3641 11.533 14.0417 11.7804 13.8042 11.9109C13.3873 12.14 13.2326 12.1494 9.35079 12.1818L5.32925 12.2154V13.205C5.32925 14.6444 5.47585 15.1153 6.13191 15.7834C6.89803 16.5635 7.10254 16.6003 10.6941 16.6031C13.4805 16.6053 13.7311 16.6217 14.182 16.8295C15.8927 17.618 16.3188 19.7175 15.0575 21.1423C14.3202 21.9751 14.2715 21.9834 10.1875 21.9787C6.99982 21.975 6.48174 21.9501 5.82009 21.7685H5.82009ZM22.1423 21.8158C20.4814 21.406 18.7673 20.121 17.7196 18.5003C16.7541 17.0067 16.5659 15.9559 16.5609 12.0307C16.5567 8.64572 16.6234 8.21941 17.2629 7.54892C17.8548 6.92828 18.2319 6.76741 19.1027 6.76411C19.7677 6.76143 19.9355 6.8044 20.3954 7.09392C20.7226 7.29994 21.0483 7.63145 21.2506 7.96444C21.6556 8.67925 21.5814 8.97906 21.6313 11.9193C21.6842 15.2658 21.6905 15.345 21.9385 15.7511C22.7759 17.1227 24.5075 17.3248 25.6561 16.185C26.3193 15.527 26.3816 15.1403 26.3816 11.6841C26.3816 8.84216 26.3942 8.65085 26.6097 8.21351C27.0415 7.33734 27.6676 6.87357 28.5929 6.74441C29.5831 6.6062 30.651 7.2006 31.1626 8.17473C31.3906 8.6089 31.4043 8.78709 31.4558 11.9917C31.4374 14.6576 31.5605 15.4378 31.8076 15.8111C32.5976 17.0258 34.2583 17.2871 35.2953 16.3599C36.0386 15.6953 36.0382 15.6976 36.0993 11.9833C36.1518 8.79505 36.1662 8.60777 36.3925 8.17473C37.3422 6.35716 39.7463 6.2426 40.7915 7.9651C41.4676 8.91961 41.1717 10.9395 41.1717 12.242C41.2208 13.956 41.122 16.1538 40.8277 16.8312C40.027 19.1326 38.2436 20.9604 36.0981 21.6788C35.1248 22.0047 32.9802 22.0829 32.0139 21.8277C31.0822 21.5818 30.276 21.205 29.5088 20.6569L28.8647 20.1968L28.2207 20.6569C27.442 21.2131 26.6537 21.5899 25.7921 21.8176C24.9891 22.0299 23.006 22.0289 22.1423 21.8158ZM44.5646 21.8318C44.0728 21.6137 43.4586 21.0248 43.1901 20.514C42.9555 20.0674 42.9536 20.0181 42.9536 14.4019C42.9536 8.99757 42.9633 8.72033 43.1654 8.30508C44.0062 6.57856 46.177 6.18998 47.4933 7.5304C48.3119 8.36403 48.3096 8.34341 48.2745 14.5796C48.2443 19.9621 48.2393 20.072 48.0102 20.5036C47.7087 21.0715 47.1612 21.6021 46.6547 21.8173C46.165 22.0253 45.0189 22.0332 44.5646 21.8318V21.8318ZM55.894 21.7699C53.4941 21.1292 51.4048 19.1985 50.5225 16.8062C50.0464 15.5153 50.0088 14.8576 50.045 8.46527C50.0785 2.56921 50.0827 2.46658 50.312 2.03384C51.4555 -0.124134 54.5854 0.149043 55.2642 2.46607C55.3788 2.85698 55.4231 3.56721 55.4231 5.012V7.01578L57.9871 7.05557C60.358 7.09236 60.5838 7.11308 60.9831 7.33049C62.8596 8.35218 62.8681 10.8871 60.9985 11.9044C60.5793 12.1325 60.3899 12.1501 57.9783 12.1843L55.4054 12.2208L55.4412 13.5038C55.483 15.001 55.6505 15.4497 56.38 16.0192C57.0188 16.5179 57.421 16.5993 59.2557 16.6012C60.7278 16.6026 60.9248 16.6264 61.4209 16.8617C63.4945 17.8449 63.4923 20.8222 61.4173 21.782C60.7759 22.0787 57.0199 22.0705 55.894 21.7699H55.894ZM69.6386 21.7752C66.9199 21.0179 64.6879 18.6922 63.9838 15.8831C63.8107 15.1926 63.7916 14.4956 63.7909 8.85008C63.8319 2.9901 63.5464 3.21925 64.0853 2.01322C64.7058 0.814803 65.9865 0.286746 67.3425 0.670134C67.9077 0.829968 68.8589 1.7985 69.0158 2.37414C69.0811 2.61374 69.1331 3.73864 69.1335 4.91978L69.1341 7.0361H71.3326C73.8506 7.0361 74.5192 7.13108 75.1259 7.57496C76.4395 8.53605 76.4695 10.6896 75.1824 11.6391C74.5403 12.1128 73.933 12.2032 71.396 12.2032H69.1341V13.199C69.1341 14.5104 69.2819 15.0618 69.7916 15.6515C70.4866 16.4554 70.7443 16.5321 72.9756 16.598C74.9178 16.6554 74.9306 16.6575 75.4587 16.9895C76.0636 17.3697 76.623 18.2102 76.7316 18.9017C76.8888 19.9025 76.3739 21.0294 75.4859 21.6283L75.0345 21.9328L72.7051 21.9566C70.7165 21.977 70.2678 21.9504 69.6386 21.7752L69.6386 21.7752ZM83.115 21.8249C81.5367 21.3909 80.3737 20.6776 79.2353 19.4454C77.8526 17.9486 77.229 16.2988 77.233 14.1475C77.2355 12.8333 77.4565 11.806 77.9706 10.719C78.5136 9.57091 79.1091 8.82222 79.9864 8.18473C82.5408 6.32855 87.0812 6.21256 89.9411 7.93042C90.9649 8.54535 92.0294 9.7091 92.5482 10.7804C93.5971 12.9466 93.4915 14.9087 92.2917 15.5466C91.8766 15.7673 91.6831 15.7774 87.2985 15.8071L82.7372 15.8381V16.1265C82.7372 16.5761 83.4402 17.1855 84.214 17.4066C84.7414 17.5573 85.3778 17.5903 87.7644 17.5908C89.3792 17.5908 90.846 17.6406 91.0629 17.7019C92.9213 18.2276 93.2938 20.7341 91.6586 21.71C91.1288 22.0746 90.8091 21.983 87.424 21.9806C84.6174 21.9752 83.517 21.9354 83.115 21.8249V21.8249ZM87.8613 12.0658C87.658 11.3721 87.0754 10.9615 86.0098 10.7609C84.8764 10.5475 83.2916 11.0249 82.9859 11.6719C82.8513 11.9568 82.7227 12.2811 82.7227 12.2811C82.7227 12.2811 83.6659 12.3132 85.3389 12.3132H87.9338L87.8613 12.0658ZM96.0084 21.7761C95.4521 21.4683 94.8595 20.7533 94.7184 20.2196C94.6359 19.9076 94.6094 18.687 94.6366 16.448C94.6761 13.1867 94.6811 13.1243 94.9722 12.2346C95.7388 9.89106 97.7887 7.94728 100.173 7.30298C101.049 7.06612 105.095 6.95263 105.978 7.14014C107.204 7.40052 108 8.36365 108 9.5855C108 10.6276 107.535 11.434 106.664 11.9027C106.254 12.1234 106.018 12.1469 103.682 12.2003C101.259 12.2556 101.126 12.2698 100.737 12.516C100.224 12.8409 99.8499 13.342 99.6982 13.9073C99.6271 14.1725 99.58 15.4835 99.5797 17.2113C99.579 20.0749 99.579 20.0758 99.2984 20.6492C99.1089 21.0364 98.8547 21.3377 98.5157 21.5767C98.0748 21.8875 97.9149 21.9342 97.2039 21.9601C96.5676 21.9833 96.3116 21.9439 96.0084 21.7761ZM44.4321 5.10223C42.7182 4.23253 42.4067 1.93555 43.8301 0.662958C44.3845 0.167213 44.8306 0 45.5986 0C46.6726 0 47.5068 0.51097 47.9892 1.46421C49.1426 3.7435 46.6925 6.24929 44.4321 5.10223Z" fill="#1FC7FF"/>
</svg>
